<svg id="Layer_2" data-name="Layer 2" xmlns="http://www.w3.org/2000/svg" viewBox="0 0 1906.09 302.8"><defs><style>.cls-1,.cls-2,.cls-4,.cls-9{fill:#fff;}.cls-1,.cls-4,.cls-5,.cls-6,.cls-7,.cls-8,.cls-9{stroke:#231f20;stroke-miterlimit:10;}.cls-1{stroke-width:11.49px;}.cls-3,.cls-6,.cls-7,.cls-8{fill:#231f20;}.cls-4,.cls-5{stroke-width:7.18px;}.cls-5{fill:none;}.cls-6{stroke-width:3.49px;}.cls-7{stroke-width:3.59px;}.cls-8{stroke-width:3.77px;}.cls-9{stroke-width:11.22px;}</style></defs><g id="Specs-of-products"><g id="_Small_info_bar_-_release_date" data-name=" Small info bar - release date"><rect class="cls-1" x="5.75" y="9.82" width="597.14" height="287.23" rx="52.84"/><line class="cls-2" x1="43.54" y1="70.29" x2="209.83" y2="236.58"/><line class="cls-2" x1="209.83" y1="70.29" x2="43.54" y2="236.58"/><path class="cls-2" d="M135.94,185.49v40.76H128.5V185.49Z" transform="translate(-65.56 -50.14)"/><path class="cls-2" d="M173.67,225c-1.75.9-5.62,1.81-10.52,1.81-12.94,0-20.8-8.1-20.8-20.5,0-13.42,9.31-21.52,21.77-21.52a23.41,23.41,0,0,1,9.92,1.81l-1.64,5.93a19.69,19.69,0,0,0-8-1.58c-8.28,0-14.27,5.2-14.27,15,0,8.95,5.26,14.69,14.21,14.69a20.71,20.71,0,0,0,8.1-1.51Z" transform="translate(-65.56 -50.14)"/><path class="cls-2" d="M214.61,205.45c0,13.66-8.28,21.46-19.53,21.46-11.49,0-18.74-8.77-18.74-20.74,0-12.52,7.86-21.34,19.35-21.34C207.6,184.83,214.61,193.84,214.61,205.45Zm-30.41.6c0,8.29,4.17,14.88,11.3,14.88s11.25-6.66,11.25-15.18c0-7.68-3.81-14.94-11.25-14.94S184.2,197.65,184.2,206.05Z" transform="translate(-65.56 -50.14)"/><path class="cls-2" d="M221,226.25V185.49h8.47L240,203a111.42,111.42,0,0,1,7,13.66h.13c-.49-5.44-.67-10.7-.67-16.93V185.49h6.89v40.76h-7.68L235,208.35a143.08,143.08,0,0,1-7.32-14.09l-.18.06c.31,5.26.37,10.64.37,17.35v14.58Z" transform="translate(-65.56 -50.14)"/><path class="cls-3" d="M326.73,141.29a74.59,74.59,0,0,1,11.76-.88c6.13,0,10.3,1,13.14,3.41a10.78,10.78,0,0,1,3.67,8.53A11.36,11.36,0,0,1,347.59,163v.19c3,1.14,4.86,4.11,5.94,8.22,1.33,5.31,2.46,10.24,3.35,11.88h-8c-.63-1.26-1.64-4.74-2.84-10-1.2-5.56-3.23-7.33-7.65-7.45h-3.92v17.5h-7.71Zm7.71,18.84h4.62c5.24,0,8.53-2.78,8.53-7,0-4.68-3.29-6.82-8.35-6.82a23.27,23.27,0,0,0-4.8.37Z" transform="translate(-65.56 -50.14)"/><path class="cls-3" d="M368.06,170.11c.19,5.56,4.55,8,9.48,8a23.2,23.2,0,0,0,8.53-1.39l1.14,5.37A29.06,29.06,0,0,1,376.47,184c-10,0-15.87-6.13-15.87-15.54,0-8.54,5.19-16.56,15-16.56s13.27,8.21,13.27,15a19.77,19.77,0,0,1-.25,3.28Zm13.53-5.43c.06-2.85-1.2-7.52-6.39-7.52-4.8,0-6.82,4.36-7.14,7.52Z" transform="translate(-65.56 -50.14)"/><path class="cls-3" d="M395.17,138.45H403v44.87h-7.84Z" transform="translate(-65.56 -50.14)"/><path class="cls-3" d="M416.91,170.11c.19,5.56,4.55,8,9.48,8a23.25,23.25,0,0,0,8.54-1.39l1.13,5.37A29.06,29.06,0,0,1,425.32,184c-10,0-15.86-6.13-15.86-15.54,0-8.54,5.18-16.56,15-16.56s13.27,8.21,13.27,15a19.77,19.77,0,0,1-.25,3.28Zm13.53-5.43c.06-2.85-1.2-7.52-6.38-7.52-4.81,0-6.83,4.36-7.15,7.52Z" transform="translate(-65.56 -50.14)"/><path class="cls-3" d="M461.34,183.32l-.5-3.41h-.19a11.44,11.44,0,0,1-9.1,4.11c-6.2,0-9.67-4.49-9.67-9.17,0-7.77,6.88-11.69,18.26-11.63v-.5c0-2-.82-5.37-6.25-5.37a16.31,16.31,0,0,0-8.29,2.27l-1.51-5.05a22,22,0,0,1,11.12-2.72c9.86,0,12.71,6.25,12.71,13v11.13a48.76,48.76,0,0,0,.44,7.39Zm-1-15c-5.5-.13-10.74,1.07-10.74,5.75a4.07,4.07,0,0,0,4.42,4.42,6.3,6.3,0,0,0,6.07-4.23,5.58,5.58,0,0,0,.25-1.71Z" transform="translate(-65.56 -50.14)"/><path class="cls-3" d="M475.75,176.18a17.4,17.4,0,0,0,7.9,2.21c3.41,0,4.93-1.39,4.93-3.41s-1.26-3.16-5.06-4.49c-6-2.08-8.53-5.37-8.46-9,0-5.44,4.48-9.67,11.62-9.67a18.06,18.06,0,0,1,8.16,1.83l-1.52,5.5a13.81,13.81,0,0,0-6.51-1.77c-2.78,0-4.3,1.33-4.3,3.22s1.46,2.91,5.38,4.3c5.56,2,8.15,4.87,8.21,9.42,0,5.56-4.36,9.6-12.51,9.6a20,20,0,0,1-9.36-2.14Z" transform="translate(-65.56 -50.14)"/><path class="cls-3" d="M508,170.11c.19,5.56,4.55,8,9.48,8a23.2,23.2,0,0,0,8.53-1.39l1.14,5.37A29.06,29.06,0,0,1,516.39,184c-10,0-15.87-6.13-15.87-15.54,0-8.54,5.19-16.56,15.05-16.56s13.27,8.21,13.27,15a19.77,19.77,0,0,1-.25,3.28Zm13.53-5.43c.06-2.85-1.2-7.52-6.39-7.52-4.8,0-6.82,4.36-7.14,7.52Z" transform="translate(-65.56 -50.14)"/><path class="cls-3" d="M563.47,138.45v36.21c0,3.16.13,6.58.25,8.66h-7l-.31-4.87h-.13A11.07,11.07,0,0,1,546.28,184c-7.33,0-13.14-6.26-13.14-15.74-.07-10.3,6.38-16.43,13.77-16.43,4.24,0,7.27,1.77,8.66,4h.13V138.45Zm-7.77,26.92a10.63,10.63,0,0,0-.19-2,6.82,6.82,0,0,0-6.7-5.5c-5,0-7.77,4.42-7.77,10.18s2.78,9.73,7.71,9.73a6.84,6.84,0,0,0,6.69-5.5,8.18,8.18,0,0,0,.26-2.27Z" transform="translate(-65.56 -50.14)"/><path class="cls-3" d="M328.16,251.36v-3.45l3.54-3.26c7-6.53,10.34-10.12,10.38-14.07,0-2.66-1.42-5-5.33-5a10.88,10.88,0,0,0-6.39,2.48l-1.65-4A14.75,14.75,0,0,1,337.9,221c6.62,0,9.83,4.18,9.83,9.05,0,5.24-3.76,9.47-9,14.29l-2.62,2.26v.09h12.27v4.69Z" transform="translate(-65.56 -50.14)"/><path class="cls-3" d="M373.89,236.23c0,9.61-3.77,15.63-10.89,15.63-6.9,0-10.57-6.25-10.62-15.35,0-9.28,3.95-15.53,10.94-15.53C370.53,221,373.89,227.41,373.89,236.23Zm-15.81.28c-.05,7.26,2,11,5.1,11,3.31,0,5.05-4,5.05-11.21,0-6.94-1.65-11-5.05-11C360.15,225.3,358,229,358.08,236.51Z" transform="translate(-65.56 -50.14)"/><path class="cls-3" d="M386.3,226.58h-.09l-5.47,2.76-1-4.27,7.26-3.59h4.74v29.88H386.3Z" transform="translate(-65.56 -50.14)"/><path class="cls-3" d="M404.36,247.31a15,15,0,0,0,3.13-.09,11.34,11.34,0,0,0,6.06-2.3,11,11,0,0,0,3.82-6.62l-.09,0a8.27,8.27,0,0,1-6.53,2.66c-5.19,0-9.05-3.77-9.05-9.28A10.58,10.58,0,0,1,412.5,221c6.94,0,10.66,5.46,10.66,12.73,0,6.39-2.11,10.94-5.19,13.88a16.53,16.53,0,0,1-10.21,4.09,24.19,24.19,0,0,1-3.4.09Zm2.94-16c.05,3.08,1.8,5.47,4.92,5.47a5.45,5.45,0,0,0,4.83-2.49,3.39,3.39,0,0,0,.32-1.61c0-4-1.47-7.53-5.15-7.53C409.37,225.16,407.3,227.69,407.3,231.32Z" transform="translate(-65.56 -50.14)"/><g id="Clender-icon"><rect class="cls-4" x="53.82" y="94.44" width="146.51" height="119.22" rx="17.98"/><line class="cls-5" x1="53.82" y1="130.35" x2="200.33" y2="130.35"/><rect class="cls-6" x="83.99" y="83.22" width="8.62" height="23.88"/><rect class="cls-7" x="158.2" y="82.68" width="9.09" height="23.88"/><rect class="cls-8" x="78.24" y="146.15" width="8.62" height="8.62"/><rect class="cls-8" x="108.4" y="146.15" width="8.62" height="8.62"/><rect class="cls-8" x="137.13" y="146.15" width="8.62" height="8.62"/><rect class="cls-8" x="165.86" y="146.15" width="8.62" height="8.62"/><rect class="cls-8" x="78.24" y="169.13" width="8.62" height="8.62"/><rect class="cls-8" x="108.4" y="169.13" width="8.62" height="8.62"/><rect class="cls-8" x="137.13" y="169.13" width="8.62" height="8.62"/><rect class="cls-8" x="165.86" y="169.13" width="8.62" height="8.62"/><rect class="cls-8" x="78.24" y="190.67" width="8.62" height="8.62"/><rect class="cls-8" x="108.4" y="190.67" width="8.62" height="8.62"/><rect class="cls-8" x="137.13" y="190.67" width="8.62" height="8.62"/></g></g><g id="_Small_info_bar_-_Price" data-name=" Small info bar -  Price"><rect class="cls-1" x="1303.2" y="5.75" width="597.14" height="287.23" rx="52.84"/><line class="cls-2" x1="1340.99" y1="66.22" x2="1507.28" y2="232.51"/><line class="cls-2" x1="1507.28" y1="66.22" x2="1340.99" y2="232.51"/><path class="cls-2" d="M1433.39,181.42v40.76H1426V181.42Z" transform="translate(-65.56 -50.14)"/><path class="cls-2" d="M1471.13,221c-1.76.9-5.63,1.81-10.52,1.81-12.94,0-20.81-8.1-20.81-20.5,0-13.42,9.32-21.53,21.77-21.53a23.33,23.33,0,0,1,9.92,1.82l-1.63,5.92a20,20,0,0,0-8-1.57c-8.29,0-14.28,5.2-14.28,15,0,9,5.27,14.69,14.22,14.69a20.78,20.78,0,0,0,8.1-1.51Z" transform="translate(-65.56 -50.14)"/><path class="cls-2" d="M1512.07,201.37c0,13.67-8.29,21.47-19.53,21.47-11.49,0-18.75-8.77-18.75-20.74,0-12.52,7.86-21.35,19.35-21.35C1505.05,180.75,1512.07,189.77,1512.07,201.37Zm-30.42.61c0,8.28,4.17,14.88,11.31,14.88s11.25-6.66,11.25-15.18c0-7.68-3.81-14.94-11.25-14.94S1481.65,193.57,1481.65,202Z" transform="translate(-65.56 -50.14)"/><path class="cls-2" d="M1518.48,222.18V181.42h8.46l10.52,17.48a113,113,0,0,1,7,13.66h.12c-.48-5.44-.67-10.7-.67-16.93V181.42h6.9v40.76h-7.68l-10.65-17.9a144.1,144.1,0,0,1-7.31-14.09l-.18.06c.3,5.26.36,10.64.36,17.35v14.58Z" transform="translate(-65.56 -50.14)"/><path class="cls-3" d="M1637.27,137.22a66.8,66.8,0,0,1,11.88-.89c5.69,0,9.86,1.2,12.57,3.48a12,12,0,0,1,4.18,9.41c0,4.05-1.27,7.4-3.67,9.67-3.1,3.1-8,4.55-13.46,4.55a21.82,21.82,0,0,1-3.79-.25v16.06h-7.71Zm7.71,19.84a15.79,15.79,0,0,0,3.79.32c5.81,0,9.35-2.85,9.35-7.84,0-4.74-3.28-7.27-8.66-7.27a21.33,21.33,0,0,0-4.48.38Z" transform="translate(-65.56 -50.14)"/><path class="cls-3" d="M1671.52,158.39c0-4.17-.06-7.14-.25-9.92H1678l.25,5.87h.26c1.51-4.36,5.11-6.57,8.4-6.57a7.91,7.91,0,0,1,1.83.19v7.33a11.18,11.18,0,0,0-2.27-.25,6.85,6.85,0,0,0-7,5.88,12.87,12.87,0,0,0-.26,2.4v15.93h-7.77Z" transform="translate(-65.56 -50.14)"/><path class="cls-3" d="M1702.3,139.87a4.12,4.12,0,0,1-4.43,4.17,4.08,4.08,0,0,1-4.29-4.17,4.36,4.36,0,0,1,8.72,0ZM1694,179.25V148.47h7.84v30.78Z" transform="translate(-65.56 -50.14)"/><path class="cls-3" d="M1732.82,178.3a22.43,22.43,0,0,1-8.72,1.58c-9.61,0-15.86-6.13-15.86-15.68,0-9.22,6.32-16.43,17.13-16.43a19.44,19.44,0,0,1,7.52,1.45L1731.5,155a13.72,13.72,0,0,0-5.88-1.2c-5.94,0-9.48,4.36-9.42,10,0,6.32,4.11,9.93,9.42,9.93a15.24,15.24,0,0,0,6.13-1.2Z" transform="translate(-65.56 -50.14)"/><path class="cls-3" d="M1743.5,166c.19,5.56,4.55,8,9.48,8a23.25,23.25,0,0,0,8.54-1.39l1.13,5.37a28.84,28.84,0,0,1-10.74,1.9c-10,0-15.86-6.13-15.86-15.55,0-8.53,5.18-16.56,15-16.56s13.27,8.22,13.27,15a20,20,0,0,1-.25,3.29ZM1757,160.6c.06-2.84-1.2-7.52-6.39-7.52-4.8,0-6.82,4.36-7.14,7.52Z" transform="translate(-65.56 -50.14)"/><path class="cls-3" d="M1643.35,251.23v-4.46a15.26,15.26,0,0,1-7.44-2l1.24-4.32a14.44,14.44,0,0,0,7.17,2c2.89,0,4.87-1.42,4.87-3.63s-1.61-3.4-5-4.64c-4.83-1.74-8-4-8-8.23,0-3.95,2.75-7,7.4-7.81v-4.5h3.77v4.27a14.6,14.6,0,0,1,6.34,1.52l-1.24,4.23a13.63,13.63,0,0,0-6.25-1.57c-3.22,0-4.37,1.66-4.37,3.22,0,1.88,1.66,2.94,5.56,4.51,5.15,1.93,7.45,4.41,7.45,8.5,0,3.9-2.71,7.35-7.77,8.18v4.73Z" transform="translate(-65.56 -50.14)"/><path class="cls-3" d="M1668.63,222.51h-.09l-5.47,2.76-1-4.28,7.27-3.58h4.73v29.87h-5.47Z" transform="translate(-65.56 -50.14)"/><path class="cls-3" d="M1703.38,222.09h-11.49l-.88,6a15.4,15.4,0,0,1,2.17-.14,13.38,13.38,0,0,1,7.26,1.93,8.57,8.57,0,0,1,3.9,7.58c0,5.7-4.73,10.34-12.08,10.34a17.25,17.25,0,0,1-7.91-1.74l1.15-4.28a15.11,15.11,0,0,0,6.57,1.57c3.31,0,6.48-1.89,6.48-5.47,0-3.4-2.53-5.66-8.5-5.66a26.32,26.32,0,0,0-4.09.28l2-15.07h15.44Z" transform="translate(-65.56 -50.14)"/><path class="cls-3" d="M1708.62,239.6c0-3.72,2.16-6.25,5.61-7.76v-.14c-3.13-1.52-4.55-4-4.55-6.62,0-4.87,4.32-8.18,10-8.18,6.43,0,9.37,3.86,9.37,7.54,0,2.53-1.33,5.15-4.59,6.75v.14c3.26,1.24,5.7,3.82,5.7,7.54,0,5.33-4.51,8.91-10.89,8.91C1712.25,247.78,1708.62,243.79,1708.62,239.6Zm15.76-.27c0-3-2.25-4.69-5.56-5.61-2.8.83-4.41,2.76-4.41,5.24a4.71,4.71,0,0,0,5,4.83C1722.41,243.79,1724.38,241.9,1724.38,239.33Zm-9.33-14.48c0,2.44,2,3.91,4.88,4.69a4.85,4.85,0,0,0,3.72-4.51,4,4,0,0,0-4.28-4.22A4,4,0,0,0,1715.05,224.85Z" transform="translate(-65.56 -50.14)"/><path class="cls-3" d="M1734,244.15a3.44,3.44,0,0,1,3.49-3.63,3.63,3.63,0,0,1,0,7.26A3.44,3.44,0,0,1,1734,244.15Z" transform="translate(-65.56 -50.14)"/><path class="cls-3" d="M1746.81,243.23a14.32,14.32,0,0,0,3.13-.09,11.31,11.31,0,0,0,6.07-2.29,11.07,11.07,0,0,0,3.81-6.62l-.09,0a8.28,8.28,0,0,1-6.53,2.67c-5.19,0-9-3.77-9-9.29A10.58,10.58,0,0,1,1755,216.9c6.94,0,10.66,5.47,10.66,12.73,0,6.39-2.11,10.94-5.19,13.88a16.41,16.41,0,0,1-10.21,4.09,21.48,21.48,0,0,1-3.4.09Zm2.94-16c0,3.08,1.8,5.47,4.92,5.47a5.45,5.45,0,0,0,4.83-2.48,3.45,3.45,0,0,0,.32-1.61c0-4-1.47-7.54-5.15-7.54C1751.82,221.08,1749.75,223.61,1749.75,227.24Z" transform="translate(-65.56 -50.14)"/><path class="cls-3" d="M1787.35,221.4a22.23,22.23,0,0,0-2.89.14c-6.25.74-9.29,4.6-10,8.73h.13a8.62,8.62,0,0,1,6.71-2.89c5.15,0,9.15,3.68,9.15,9.74a10.37,10.37,0,0,1-10.52,10.66c-7.27,0-11.26-5.51-11.26-12.86,0-5.75,2.06-10.44,5.19-13.42a20,20,0,0,1,13.47-4.51Zm-2.66,16c0-3.44-1.89-5.92-5.2-5.92a5.49,5.49,0,0,0-4.87,3.07,3.89,3.89,0,0,0-.37,1.8c.1,4,2,7.17,5.61,7.17C1782.8,243.56,1784.69,241,1784.69,237.44Z" transform="translate(-65.56 -50.14)"/><g id="Price-icon"><rect class="cls-9" x="1352.95" y="76.58" width="143.63" height="143.63" rx="71.82"/><path class="cls-3" d="M1512.77,185.07c4.38,0-1-11.68-6.74-15.71-6-4.2-12.46-4.36-18-4.49-4.52-.11-8.76-.21-13.47,2.25a20.55,20.55,0,0,0-9,9c-.34.68-4.73,9.86,0,18,3.63,6.23,10.52,8.15,13.46,9,6.59,1.85,8.6-.33,15.71,2.25,3.24,1.17,7.37,2.74,9,6.73a8.87,8.87,0,0,1,0,6.74c-2.53,5.2-11.16,5.33-15.71,4.48-1.42-.26-8.26-1.54-11.22-6.73-1.19-2.08,0-4.49-2.25-4.49h-11.22c-1.25,0-.59,2.42,0,4.49a27.39,27.39,0,0,0,9,13.47c11.33,8.31,26.29,3.22,29.18,2.24,4.54-1.54,10-3.39,13.46-9,.58-.93,5.21-8.31,2.25-15.71-1.77-4.4-5.36-6.68-9-9-3.45-2.19-6.68-3.12-11.22-4.49a53.78,53.78,0,0,0-9-2.25c-3.36-.41-6.12-.29-9-2.24a6.19,6.19,0,0,1-2.24-2.25c-1.47-2.78-.19-6.81,2.24-9,1.66-1.48,3.5-1.76,6.74-2.25a15.14,15.14,0,0,1,6.73,0,12.66,12.66,0,0,1,6.73,4.49c1.6,2.17,2.67,4.49,4.49,4.49Z" transform="translate(-65.56 -50.14)"/><rect class="cls-3" x="1418.04" y="105.75" width="13.47" height="85.28"/></g></g><g id="_Small_info_bar_-Battery" data-name=" Small info bar -Battery"><rect class="cls-1" x="659.08" y="7.18" width="597.14" height="287.23" rx="52.84"/><line class="cls-2" x1="696.87" y1="67.65" x2="863.17" y2="233.94"/><line class="cls-2" x1="863.17" y1="67.65" x2="696.87" y2="233.94"/><path class="cls-2" d="M789.27,182.86v40.75h-7.44V182.86Z" transform="translate(-65.56 -50.14)"/><path class="cls-2" d="M827,222.4c-1.76.91-5.63,1.82-10.53,1.82-12.94,0-20.8-8.11-20.8-20.5,0-13.43,9.31-21.53,21.77-21.53a23.53,23.53,0,0,1,9.92,1.81l-1.63,5.93a19.79,19.79,0,0,0-8-1.57c-8.28,0-14.27,5.2-14.27,15,0,8.94,5.26,14.69,14.21,14.69a21,21,0,0,0,8.11-1.51Z" transform="translate(-65.56 -50.14)"/><path class="cls-2" d="M867.94,202.81c0,13.67-8.28,21.47-19.53,21.47-11.49,0-18.74-8.77-18.74-20.74,0-12.52,7.86-21.35,19.35-21.35C860.93,182.19,867.94,191.2,867.94,202.81Zm-30.41.61c0,8.28,4.17,14.87,11.31,14.87s11.24-6.65,11.24-15.18c0-7.68-3.81-14.93-11.24-14.93S837.53,195,837.53,203.42Z" transform="translate(-65.56 -50.14)"/><path class="cls-2" d="M874.35,223.61V182.86h8.47l10.52,17.47a113.07,113.07,0,0,1,7,13.67h.12c-.49-5.44-.67-10.71-.67-16.93V182.86h6.89v40.75H899l-10.65-17.9A139.77,139.77,0,0,1,881,191.62l-.19.06c.31,5.26.37,10.65.37,17.36v14.57Z" transform="translate(-65.56 -50.14)"/><path class="cls-3" d="M993.15,138.65a65.54,65.54,0,0,1,11.31-.88c5.75,0,9.29.69,12.2,2.71a9,9,0,0,1,4.42,8c0,3.92-2.46,7.52-7.08,9.23v.12c4.49,1.14,8.6,4.68,8.6,10.56a11,11,0,0,1-4.11,8.78c-3,2.66-8,4-15.8,4a73.84,73.84,0,0,1-9.54-.57Zm7.71,16.81h4c5.37,0,8.41-2.52,8.41-6.13,0-4-3-5.81-8-5.81a22,22,0,0,0-4.42.31Zm0,19.6a35.76,35.76,0,0,0,4.11.19c5,0,9.41-1.9,9.41-7.15,0-4.93-4.29-6.95-9.67-6.95h-3.85Z" transform="translate(-65.56 -50.14)"/><path class="cls-3" d="M1046.74,180.68l-.51-3.41h-.18a11.45,11.45,0,0,1-9.11,4.11c-6.19,0-9.67-4.49-9.67-9.17,0-7.77,6.89-11.69,18.27-11.63v-.5c0-2-.82-5.38-6.26-5.38A16.3,16.3,0,0,0,1031,157l-1.51-5.06a22.13,22.13,0,0,1,11.12-2.71c9.86,0,12.7,6.25,12.7,12.95v11.13a48.7,48.7,0,0,0,.45,7.39Zm-1-15c-5.5-.13-10.75,1.07-10.75,5.75a4.08,4.08,0,0,0,4.43,4.42,6.3,6.3,0,0,0,6.07-4.23,5.58,5.58,0,0,0,.25-1.71Z" transform="translate(-65.56 -50.14)"/><path class="cls-3" d="M1070.06,141.12v8.78h7.4v5.82h-7.4V169.3c0,3.73,1,5.69,4,5.69a11.53,11.53,0,0,0,3-.38l.12,5.94a16.87,16.87,0,0,1-5.62.76,9,9,0,0,1-6.7-2.53c-1.65-1.76-2.4-4.55-2.4-8.59V155.72h-4.43V149.9h4.43v-7Z" transform="translate(-65.56 -50.14)"/><path class="cls-3" d="M1092.24,141.12v8.78h7.4v5.82h-7.4V169.3c0,3.73,1,5.69,4,5.69a11.53,11.53,0,0,0,3-.38l.13,5.94a16.94,16.94,0,0,1-5.63.76,9,9,0,0,1-6.7-2.53c-1.64-1.76-2.4-4.55-2.4-8.59V155.72h-4.43V149.9h4.43v-7Z" transform="translate(-65.56 -50.14)"/><path class="cls-3" d="M1110.63,167.47c.19,5.56,4.55,8,9.48,8a23,23,0,0,0,8.54-1.4l1.13,5.38a29.06,29.06,0,0,1-10.74,1.89c-10,0-15.86-6.13-15.86-15.54,0-8.54,5.18-16.56,15-16.56s13.27,8.21,13.27,15a19.77,19.77,0,0,1-.25,3.28Zm13.53-5.43c.06-2.85-1.2-7.52-6.38-7.52-4.81,0-6.83,4.36-7.15,7.52Z" transform="translate(-65.56 -50.14)"/><path class="cls-3" d="M1137.75,159.82c0-4.17-.07-7.14-.26-9.92h6.77l.25,5.88h.25c1.52-4.36,5.12-6.57,8.41-6.57a7.91,7.91,0,0,1,1.83.19v7.33a10.54,10.54,0,0,0-2.28-.26,6.87,6.87,0,0,0-7,5.88,14.05,14.05,0,0,0-.25,2.4v15.93h-7.77Z" transform="translate(-65.56 -50.14)"/><path class="cls-3" d="M1166.5,149.9l5.56,16.5c.63,1.89,1.27,4.23,1.71,6h.19c.5-1.77,1.07-4,1.64-6.07l4.8-16.43h8.35l-7.71,21c-4.24,11.51-7.08,16.63-10.75,19.79a15.65,15.65,0,0,1-8.15,4l-1.77-6.57a14,14,0,0,0,8.78-7,3.09,3.09,0,0,0,.51-1.39,3.28,3.28,0,0,0-.44-1.52L1158,149.9Z" transform="translate(-65.56 -50.14)"/><path class="cls-3" d="M991,248.71v-3.44l3.53-3.27c7-6.52,10.35-10.11,10.39-14.06,0-2.67-1.42-5-5.33-5a10.88,10.88,0,0,0-6.39,2.48l-1.65-4a14.81,14.81,0,0,1,9.19-3.07c6.62,0,9.83,4.18,9.83,9,0,5.24-3.76,9.47-9,14.29L999,243.94V244h12.27v4.68Z" transform="translate(-65.56 -50.14)"/><path class="cls-3" d="M1036.74,233.59c0,9.61-3.77,15.63-10.9,15.63-6.89,0-10.57-6.25-10.61-15.35,0-9.28,3.95-15.53,10.94-15.53C1033.38,218.34,1036.74,224.77,1036.74,233.59Zm-15.81.28c0,7.26,2,11,5.1,11,3.31,0,5-4,5-11.21,0-6.94-1.65-11-5-11C1023,222.66,1020.88,226.38,1020.93,233.87Z" transform="translate(-65.56 -50.14)"/><path class="cls-3" d="M1050.85,216.08h5.7v13.33h.09a8.08,8.08,0,0,1,6.66-3.58c3.82,0,7.82,2.53,7.82,9.69v13.19h-5.66V236.17c0-3.27-1.19-5.7-4.32-5.7a4.63,4.63,0,0,0-4.59,4.87v13.37h-5.7Z" transform="translate(-65.56 -50.14)"/><path class="cls-3" d="M1098.42,237.32c0,8.22-5.79,11.9-11.49,11.9-6.34,0-11.22-4.37-11.22-11.54,0-7.35,4.83-11.85,11.59-11.85S1098.42,230.51,1098.42,237.32Zm-16.87.23c0,4.32,2.11,7.58,5.56,7.58,3.22,0,5.47-3.17,5.47-7.68,0-3.49-1.56-7.49-5.42-7.49S1081.55,233.82,1081.55,237.55Z" transform="translate(-65.56 -50.14)"/><path class="cls-3" d="M1123.1,242c0,2.67.09,4.88.18,6.71h-5l-.28-3.4H1118a8.08,8.08,0,0,1-7.17,3.91c-4.09,0-7.81-2.44-7.81-9.74V226.33h5.65v12.18c0,3.72,1.2,6.11,4.19,6.11a4.76,4.76,0,0,0,4.32-3,5.2,5.2,0,0,0,.32-1.75V226.33h5.65Z" transform="translate(-65.56 -50.14)"/><path class="cls-3" d="M1129.21,233.55c0-3,0-5.19-.18-7.22H1134l.18,4.28h.19a6.67,6.67,0,0,1,6.11-4.78,6.06,6.06,0,0,1,1.33.13v5.34a7.27,7.27,0,0,0-1.65-.19,5,5,0,0,0-5.06,4.28,9.8,9.8,0,0,0-.18,1.74v11.58h-5.66Z" transform="translate(-65.56 -50.14)"/><path class="cls-3" d="M1145.3,243.52a12.63,12.63,0,0,0,5.75,1.61c2.48,0,3.58-1,3.58-2.48s-.92-2.3-3.68-3.27c-4.36-1.51-6.2-3.9-6.15-6.52,0-4,3.26-7,8.45-7a13.16,13.16,0,0,1,5.93,1.33l-1.1,4a10.1,10.1,0,0,0-4.74-1.29c-2,0-3.12,1-3.12,2.34s1.06,2.12,3.91,3.13c4,1.47,5.92,3.54,6,6.85,0,4-3.17,7-9.1,7a14.41,14.41,0,0,1-6.8-1.56Z" transform="translate(-65.56 -50.14)"/><g id="Baterry-icon"><rect class="cls-3" x="734.65" y="80.48" width="86.18" height="159.75"/><rect class="cls-3" x="757.77" y="57.36" width="42.04" height="37.84"/></g></g></g></svg>