<svg id="Layer_2" data-name="Layer 2" xmlns="http://www.w3.org/2000/svg" viewBox="0 0 1906.09 655.13"><defs><style>.cls-1,.cls-10,.cls-2,.cls-4,.cls-9{fill:#fff;}.cls-1,.cls-10,.cls-11,.cls-4,.cls-5,.cls-6,.cls-7,.cls-8,.cls-9{stroke:#231f20;stroke-miterlimit:10;}.cls-1{stroke-width:11.49px;}.cls-11,.cls-3,.cls-6,.cls-7,.cls-8{fill:#231f20;}.cls-4,.cls-5{stroke-width:7.18px;}.cls-5{fill:none;}.cls-6{stroke-width:3.49px;}.cls-7{stroke-width:3.59px;}.cls-8{stroke-width:3.77px;}.cls-9{stroke-width:11.22px;}.cls-10{stroke-width:8.38px;}.cls-11{stroke-width:4.23px;}</style></defs><g id="Specs-of-products"><g id="_Small_info_bar_-_release_date" data-name=" Small info bar - release date"><rect class="cls-1" x="5.75" y="9.82" width="597.14" height="287.23" rx="52.84"/><line class="cls-2" x1="43.54" y1="70.29" x2="209.83" y2="236.58"/><line class="cls-2" x1="209.83" y1="70.29" x2="43.54" y2="236.58"/><path class="cls-2" d="M136.94,183.33v40.75H129.5V183.33Z" transform="translate(-66.56 -47.98)"/><path class="cls-2" d="M174.67,222.87c-1.75.91-5.62,1.82-10.52,1.82-12.94,0-20.8-8.11-20.8-20.5,0-13.43,9.31-21.53,21.77-21.53a23.53,23.53,0,0,1,9.92,1.81l-1.64,5.93a19.7,19.7,0,0,0-8-1.57c-8.28,0-14.27,5.2-14.27,15,0,8.94,5.26,14.69,14.21,14.69a20.89,20.89,0,0,0,8.1-1.51Z" transform="translate(-66.56 -47.98)"/><path class="cls-2" d="M215.61,203.28c0,13.67-8.28,21.47-19.53,21.47-11.49,0-18.74-8.77-18.74-20.74,0-12.52,7.86-21.35,19.35-21.35C208.6,182.66,215.61,191.67,215.61,203.28Zm-30.41.61c0,8.28,4.17,14.87,11.3,14.87s11.25-6.65,11.25-15.18c0-7.68-3.81-14.93-11.25-14.93S185.2,195.48,185.2,203.89Z" transform="translate(-66.56 -47.98)"/><path class="cls-2" d="M222,224.08V183.33h8.47L241,200.8a111.53,111.53,0,0,1,7,13.67h.13c-.49-5.44-.67-10.71-.67-16.93V183.33h6.89v40.75h-7.68L236,206.18a142,142,0,0,1-7.32-14.09l-.18.06c.31,5.26.37,10.65.37,17.36v14.57Z" transform="translate(-66.56 -47.98)"/><path class="cls-3" d="M327.73,139.13a73.27,73.27,0,0,1,11.76-.89c6.13,0,10.3,1,13.14,3.42a10.75,10.75,0,0,1,3.67,8.53,11.37,11.37,0,0,1-7.71,10.68v.19c3,1.14,4.86,4.11,5.94,8.21,1.33,5.31,2.46,10.24,3.35,11.89h-8a60.64,60.64,0,0,1-2.84-10c-1.2-5.56-3.23-7.33-7.65-7.46h-3.92v17.51h-7.71ZM335.44,158h4.62c5.24,0,8.53-2.78,8.53-7,0-4.68-3.29-6.83-8.34-6.83a22.36,22.36,0,0,0-4.81.38Z" transform="translate(-66.56 -47.98)"/><path class="cls-3" d="M369.06,168c.19,5.56,4.55,8,9.48,8a23,23,0,0,0,8.53-1.39l1.14,5.37a28.84,28.84,0,0,1-10.74,1.9c-10,0-15.87-6.13-15.87-15.55,0-8.53,5.19-16.56,15-16.56s13.27,8.22,13.27,15a20,20,0,0,1-.25,3.29Zm13.53-5.44c.06-2.84-1.2-7.52-6.39-7.52-4.8,0-6.82,4.36-7.14,7.52Z" transform="translate(-66.56 -47.98)"/><path class="cls-3" d="M396.17,136.28H404v44.88h-7.84Z" transform="translate(-66.56 -47.98)"/><path class="cls-3" d="M417.91,168c.19,5.56,4.55,8,9.48,8a23,23,0,0,0,8.54-1.39l1.13,5.37a28.84,28.84,0,0,1-10.74,1.9c-10,0-15.86-6.13-15.86-15.55,0-8.53,5.18-16.56,15-16.56s13.27,8.22,13.27,15a20,20,0,0,1-.25,3.29Zm13.53-5.44c.06-2.84-1.2-7.52-6.38-7.52-4.81,0-6.83,4.36-7.15,7.52Z" transform="translate(-66.56 -47.98)"/><path class="cls-3" d="M462.34,181.16l-.5-3.42h-.19a11.41,11.41,0,0,1-9.1,4.11c-6.2,0-9.67-4.49-9.67-9.16,0-7.78,6.89-11.69,18.26-11.63v-.51c0-2-.82-5.37-6.26-5.37a16.23,16.23,0,0,0-8.27,2.28l-1.52-5.06a22.15,22.15,0,0,1,11.12-2.72c9.86,0,12.71,6.26,12.71,13v11.12a49,49,0,0,0,.44,7.4Zm-1-15c-5.5-.12-10.74,1.08-10.74,5.76a4.08,4.08,0,0,0,4.42,4.42,6.3,6.3,0,0,0,6.07-4.23,5.62,5.62,0,0,0,.25-1.71Z" transform="translate(-66.56 -47.98)"/><path class="cls-3" d="M476.75,174a17.28,17.28,0,0,0,7.9,2.22c3.41,0,4.93-1.39,4.93-3.42s-1.26-3.16-5.06-4.48c-6-2.09-8.53-5.38-8.46-9,0-5.43,4.48-9.67,11.63-9.67a18.18,18.18,0,0,1,8.15,1.83l-1.52,5.5a13.81,13.81,0,0,0-6.51-1.77c-2.78,0-4.3,1.33-4.3,3.23s1.46,2.9,5.38,4.29c5.56,2,8.15,4.87,8.21,9.42,0,5.56-4.36,9.61-12.51,9.61a19.94,19.94,0,0,1-9.36-2.15Z" transform="translate(-66.56 -47.98)"/><path class="cls-3" d="M509,168c.19,5.56,4.55,8,9.48,8a23,23,0,0,0,8.54-1.39l1.13,5.37a28.84,28.84,0,0,1-10.74,1.9c-10,0-15.87-6.13-15.87-15.55,0-8.53,5.19-16.56,15.05-16.56s13.27,8.22,13.27,15a20,20,0,0,1-.25,3.29Zm13.53-5.44c.06-2.84-1.2-7.52-6.39-7.52-4.8,0-6.82,4.36-7.14,7.52Z" transform="translate(-66.56 -47.98)"/><path class="cls-3" d="M564.47,136.28V172.5c0,3.16.13,6.57.25,8.66h-7l-.31-4.87h-.13a11.08,11.08,0,0,1-10.05,5.56c-7.33,0-13.15-6.26-13.15-15.74-.06-10.3,6.39-16.43,13.78-16.43,4.24,0,7.27,1.77,8.66,4h.13V136.28Zm-7.77,26.93a11.71,11.71,0,0,0-.19-2,6.81,6.81,0,0,0-6.7-5.49c-5,0-7.77,4.42-7.77,10.17s2.78,9.73,7.71,9.73a6.85,6.85,0,0,0,6.7-5.49,9.16,9.16,0,0,0,.25-2.28Z" transform="translate(-66.56 -47.98)"/><path class="cls-3" d="M330.44,249.19v-31h6.44l8,13.29a84.11,84.11,0,0,1,5.29,10.38h.09c-.37-4.13-.5-8.13-.5-12.87v-10.8H355v31h-5.84l-8.09-13.6a109.12,109.12,0,0,1-5.56-10.71l-.14,0c.23,4,.28,8.09.28,13.19v11.08Z" transform="translate(-66.56 -47.98)"/><path class="cls-3" d="M382.56,237.79c0,8.23-5.79,11.91-11.49,11.91-6.34,0-11.21-4.37-11.21-11.54,0-7.35,4.83-11.86,11.58-11.86S382.56,231,382.56,237.79ZM365.7,238c0,4.32,2.11,7.58,5.56,7.58,3.21,0,5.47-3.17,5.47-7.67,0-3.49-1.57-7.49-5.43-7.49S365.7,234.3,365.7,238Z" transform="translate(-66.56 -47.98)"/><path class="cls-3" d="M390.42,226.81l3.64,11.35c.64,2,1.1,3.77,1.51,5.61h.14c.41-1.84.92-3.59,1.52-5.61l3.54-11.35h6l-8.55,22.38h-5.56l-8.32-22.38Z" transform="translate(-66.56 -47.98)"/><path class="cls-3" d="M418.65,249.19v-3.45l3.53-3.26c7-6.53,10.35-10.11,10.39-14.06,0-2.67-1.42-5-5.33-5a10.88,10.88,0,0,0-6.39,2.48l-1.65-4a14.75,14.75,0,0,1,9.19-3.08c6.62,0,9.83,4.18,9.83,9.05,0,5.24-3.76,9.47-9,14.3l-2.62,2.25v.09h12.27v4.69Z" transform="translate(-66.56 -47.98)"/><path class="cls-3" d="M441.67,254.75a74.81,74.81,0,0,0,3.08-12.13l5.93-.46a58.25,58.25,0,0,1-5.15,12.22Z" transform="translate(-66.56 -47.98)"/><path class="cls-3" d="M463.64,249.19v-3.45l3.54-3.26c7-6.53,10.34-10.11,10.39-14.06,0-2.67-1.43-5-5.33-5a10.88,10.88,0,0,0-6.39,2.48l-1.66-4a14.78,14.78,0,0,1,9.2-3.08c6.61,0,9.83,4.18,9.83,9.05,0,5.24-3.77,9.47-9,14.3l-2.62,2.25v.09h12.27v4.69Z" transform="translate(-66.56 -47.98)"/><path class="cls-3" d="M509.37,234.07c0,9.6-3.76,15.63-10.89,15.63-6.89,0-10.57-6.26-10.62-15.36,0-9.28,4-15.53,10.94-15.53C506,218.81,509.37,225.25,509.37,234.07Zm-15.81.27c0,7.27,2,11,5.11,11,3.3,0,5.05-4,5.05-11.22,0-6.94-1.65-11-5.05-11C495.63,223.13,493.52,226.85,493.56,234.34Z" transform="translate(-66.56 -47.98)"/><path class="cls-3" d="M521.78,224.42h-.09l-5.47,2.75-1-4.27,7.26-3.58h4.73v29.87h-5.47Z" transform="translate(-66.56 -47.98)"/><path class="cls-3" d="M555.75,223.32a24.16,24.16,0,0,0-2.9.13c-6.25.74-9.28,4.6-10,8.73H543a8.61,8.61,0,0,1,6.71-2.89c5.15,0,9.15,3.68,9.15,9.74A10.38,10.38,0,0,1,548.3,249.7c-7.26,0-11.26-5.52-11.26-12.87,0-5.75,2.07-10.44,5.2-13.42A17.21,17.21,0,0,1,552.85,219a16.57,16.57,0,0,1,2.85-.1Zm-2.67,16c0-3.44-1.88-5.92-5.19-5.92A5.49,5.49,0,0,0,543,236.5a3.89,3.89,0,0,0-.37,1.8c.09,3.95,2,7.17,5.61,7.17C551.2,245.47,553.08,242.94,553.08,239.35Z" transform="translate(-66.56 -47.98)"/><g id="Clender-icon"><rect class="cls-4" x="53.82" y="94.44" width="146.51" height="119.22" rx="17.98"/><line class="cls-5" x1="53.82" y1="130.35" x2="200.33" y2="130.35"/><rect class="cls-6" x="83.99" y="83.22" width="8.62" height="23.88"/><rect class="cls-7" x="158.2" y="82.68" width="9.09" height="23.88"/><rect class="cls-8" x="78.24" y="146.15" width="8.62" height="8.62"/><rect class="cls-8" x="108.4" y="146.15" width="8.62" height="8.62"/><rect class="cls-8" x="137.13" y="146.15" width="8.62" height="8.62"/><rect class="cls-8" x="165.86" y="146.15" width="8.62" height="8.62"/><rect class="cls-8" x="78.24" y="169.13" width="8.62" height="8.62"/><rect class="cls-8" x="108.4" y="169.13" width="8.62" height="8.62"/><rect class="cls-8" x="137.13" y="169.13" width="8.62" height="8.62"/><rect class="cls-8" x="165.86" y="169.13" width="8.62" height="8.62"/><rect class="cls-8" x="78.24" y="190.67" width="8.62" height="8.62"/><rect class="cls-8" x="108.4" y="190.67" width="8.62" height="8.62"/><rect class="cls-8" x="137.13" y="190.67" width="8.62" height="8.62"/></g></g><g id="_Small_info_bar_-_Price" data-name=" Small info bar -  Price"><rect class="cls-1" x="1303.2" y="5.75" width="597.14" height="287.23" rx="52.84"/><line class="cls-2" x1="1340.99" y1="66.22" x2="1507.28" y2="232.51"/><line class="cls-2" x1="1507.28" y1="66.22" x2="1340.99" y2="232.51"/><path class="cls-2" d="M1434.39,179.25V220H1427V179.25Z" transform="translate(-66.56 -47.98)"/><path class="cls-2" d="M1472.13,218.8c-1.76.91-5.63,1.82-10.52,1.82-12.95,0-20.81-8.11-20.81-20.5,0-13.43,9.32-21.53,21.77-21.53a23.53,23.53,0,0,1,9.92,1.81l-1.63,5.93a19.78,19.78,0,0,0-8-1.57c-8.29,0-14.28,5.2-14.28,15,0,8.95,5.27,14.7,14.21,14.7a21,21,0,0,0,8.11-1.51Z" transform="translate(-66.56 -47.98)"/><path class="cls-2" d="M1513.07,199.21c0,13.67-8.29,21.47-19.54,21.47-11.49,0-18.74-8.77-18.74-20.74,0-12.52,7.86-21.35,19.35-21.35C1506.05,178.59,1513.07,187.6,1513.07,199.21Zm-30.42.6c0,8.29,4.17,14.88,11.31,14.88s11.25-6.65,11.25-15.18c0-7.68-3.81-14.93-11.25-14.93S1482.65,191.41,1482.65,199.81Z" transform="translate(-66.56 -47.98)"/><path class="cls-2" d="M1519.48,220V179.25h8.46l10.52,17.48a113.07,113.07,0,0,1,7,13.67h.12c-.49-5.45-.67-10.71-.67-16.93V179.25h6.9V220h-7.68l-10.65-17.9a139.77,139.77,0,0,1-7.31-14.09l-.18.06c.3,5.26.36,10.65.36,17.36V220Z" transform="translate(-66.56 -47.98)"/><path class="cls-3" d="M1638.27,135.05a68,68,0,0,1,11.88-.88c5.69,0,9.86,1.2,12.57,3.47a12,12,0,0,1,4.18,9.42c0,4-1.27,7.39-3.67,9.67-3.1,3.1-8,4.55-13.46,4.55A21.82,21.82,0,0,1,1646,161v16.05h-7.71ZM1646,154.9a15.82,15.82,0,0,0,3.79.31c5.81,0,9.35-2.84,9.35-7.83,0-4.74-3.28-7.27-8.66-7.27a21.33,21.33,0,0,0-4.48.38Z" transform="translate(-66.56 -47.98)"/><path class="cls-3" d="M1672.52,156.22c0-4.17-.06-7.14-.25-9.92H1679l.25,5.88h.25c1.52-4.36,5.12-6.57,8.41-6.57a7.91,7.91,0,0,1,1.83.19v7.33a10.44,10.44,0,0,0-2.27-.26,6.85,6.85,0,0,0-7,5.88,13.06,13.06,0,0,0-.26,2.4v15.93h-7.77Z" transform="translate(-66.56 -47.98)"/><path class="cls-3" d="M1703.3,137.71a4.13,4.13,0,0,1-4.43,4.17,4.08,4.08,0,0,1-4.29-4.17,4.36,4.36,0,0,1,8.72,0ZM1695,177.08V146.3h7.83v30.78Z" transform="translate(-66.56 -47.98)"/><path class="cls-3" d="M1733.82,176.13a22.43,22.43,0,0,1-8.72,1.58c-9.61,0-15.86-6.13-15.86-15.67,0-9.23,6.32-16.43,17.12-16.43a19.46,19.46,0,0,1,7.53,1.45l-1.39,5.81a13.87,13.87,0,0,0-5.88-1.2c-5.94,0-9.48,4.36-9.42,10,0,6.32,4.11,9.92,9.42,9.92a15.28,15.28,0,0,0,6.13-1.2Z" transform="translate(-66.56 -47.98)"/><path class="cls-3" d="M1744.5,163.87c.19,5.56,4.55,8,9.48,8a23,23,0,0,0,8.54-1.39l1.13,5.38a29.06,29.06,0,0,1-10.74,1.89c-10,0-15.87-6.13-15.87-15.55,0-8.53,5.19-16.55,15-16.55s13.27,8.21,13.27,15a19.82,19.82,0,0,1-.25,3.29Zm13.53-5.43c.06-2.85-1.2-7.53-6.39-7.53-4.8,0-6.82,4.37-7.14,7.53Z" transform="translate(-66.56 -47.98)"/><path class="cls-3" d="M1644.35,249.07v-4.46a15.37,15.37,0,0,1-7.44-2l1.24-4.32a14.54,14.54,0,0,0,7.17,2c2.89,0,4.87-1.43,4.87-3.63s-1.61-3.4-5-4.64c-4.83-1.75-8-4-8-8.23,0-3.95,2.75-7,7.4-7.81v-4.51h3.77v4.28a14.77,14.77,0,0,1,6.34,1.51l-1.24,4.23a13.79,13.79,0,0,0-6.25-1.56c-3.22,0-4.37,1.65-4.37,3.22,0,1.88,1.65,2.94,5.56,4.5,5.15,1.93,7.45,4.41,7.45,8.5,0,3.91-2.72,7.36-7.77,8.18v4.74Z" transform="translate(-66.56 -47.98)"/><path class="cls-3" d="M1669.63,220.34h-.09l-5.47,2.76-1-4.27,7.27-3.59h4.73v29.87h-5.47Z" transform="translate(-66.56 -47.98)"/><path class="cls-3" d="M1685.4,245.11v-3.44l3.53-3.27c7-6.52,10.35-10.11,10.39-14.06,0-2.67-1.42-5-5.33-5a10.88,10.88,0,0,0-6.39,2.48l-1.65-4a14.81,14.81,0,0,1,9.19-3.07c6.62,0,9.83,4.18,9.83,9,0,5.24-3.76,9.47-9,14.29l-2.62,2.25v.1h12.27v4.68Z" transform="translate(-66.56 -47.98)"/><path class="cls-3" d="M1728.23,219.24a22.3,22.3,0,0,0-2.89.14c-6.25.73-9.29,4.59-10,8.73h.14a8.6,8.6,0,0,1,6.71-2.9c5.14,0,9.14,3.68,9.14,9.75a10.37,10.37,0,0,1-10.52,10.66c-7.27,0-11.26-5.52-11.26-12.87,0-5.74,2.06-10.43,5.19-13.42a17.33,17.33,0,0,1,10.62-4.41,15.41,15.41,0,0,1,2.85-.09Zm-2.66,16c0-3.45-1.89-5.93-5.2-5.93a5.49,5.49,0,0,0-4.87,3.08,3.85,3.85,0,0,0-.37,1.79c.1,3.95,2,7.17,5.61,7.17C1723.68,241.39,1725.57,238.86,1725.57,235.28Z" transform="translate(-66.56 -47.98)"/><path class="cls-3" d="M1735,242a3.44,3.44,0,0,1,3.49-3.63,3.63,3.63,0,0,1,0,7.26A3.44,3.44,0,0,1,1735,242Z" transform="translate(-66.56 -47.98)"/><path class="cls-3" d="M1763.71,219.24a22.38,22.38,0,0,0-2.89.14c-6.25.73-9.28,4.59-10,8.73h.14a8.6,8.6,0,0,1,6.71-2.9c5.15,0,9.14,3.68,9.14,9.75a10.37,10.37,0,0,1-10.52,10.66c-7.26,0-11.26-5.52-11.26-12.87,0-5.74,2.07-10.43,5.19-13.42a17.33,17.33,0,0,1,10.62-4.41,15.41,15.41,0,0,1,2.85-.09Zm-2.66,16c0-3.45-1.89-5.93-5.19-5.93a5.51,5.51,0,0,0-4.88,3.08,3.86,3.86,0,0,0-.36,1.79c.09,3.95,2,7.17,5.6,7.17C1759.16,241.39,1761.05,238.86,1761.05,235.28Z" transform="translate(-66.56 -47.98)"/><path class="cls-3" d="M1769.74,237.44c0-3.72,2.16-6.25,5.6-7.77v-.14c-3.12-1.51-4.55-4-4.55-6.61,0-4.88,4.32-8.18,10-8.18,6.43,0,9.37,3.86,9.37,7.53,0,2.53-1.33,5.15-4.59,6.76v.14c3.26,1.24,5.7,3.81,5.7,7.53,0,5.34-4.51,8.92-10.9,8.92C1773.37,245.62,1769.74,241.62,1769.74,237.44Zm15.76-.28c0-3-2.25-4.68-5.56-5.6-2.8.82-4.41,2.75-4.41,5.24a4.71,4.71,0,0,0,5,4.82C1783.52,241.62,1785.5,239.74,1785.5,237.16Zm-9.33-14.47c0,2.43,2,3.9,4.87,4.68a4.83,4.83,0,0,0,3.73-4.5,4,4,0,0,0-4.28-4.23A4,4,0,0,0,1776.17,222.69Z" transform="translate(-66.56 -47.98)"/><g id="Price-icon"><rect class="cls-9" x="1352.95" y="76.58" width="143.63" height="143.63" rx="71.82"/><path class="cls-3" d="M1513.77,182.91c4.38,0-1-11.68-6.74-15.71-6-4.2-12.46-4.36-18-4.49-4.52-.11-8.76-.21-13.47,2.24a20.59,20.59,0,0,0-9,9c-.34.68-4.73,9.85,0,17.95,3.63,6.23,10.52,8.16,13.46,9,6.59,1.84,8.6-.34,15.71,2.24,3.24,1.18,7.37,2.75,9,6.74a8.84,8.84,0,0,1,0,6.73c-2.53,5.21-11.16,5.34-15.71,4.49-1.42-.27-8.26-1.54-11.22-6.73-1.19-2.08,0-4.49-2.25-4.49h-11.22c-1.25,0-.59,2.41,0,4.49a27.39,27.39,0,0,0,9,13.46c11.33,8.31,26.29,3.23,29.18,2.25,4.54-1.55,10-3.39,13.46-9,.58-.93,5.21-8.31,2.25-15.71-1.77-4.4-5.36-6.68-9-9-3.45-2.19-6.68-3.12-11.22-4.49a52.58,52.58,0,0,0-9-2.24c-3.36-.42-6.12-.29-9-2.25a6.08,6.08,0,0,1-2.24-2.24c-1.47-2.78-.19-6.82,2.24-9,1.66-1.47,3.5-1.75,6.74-2.24a15.14,15.14,0,0,1,6.73,0,12.6,12.6,0,0,1,6.73,4.49c1.6,2.17,2.67,4.49,4.49,4.49Z" transform="translate(-66.56 -47.98)"/><rect class="cls-3" x="1418.04" y="105.75" width="13.47" height="85.28"/></g></g><g id="_Small_info_bar_-Display" data-name=" Small info bar -Display"><rect class="cls-1" x="7.83" y="362.15" width="597.14" height="287.23" rx="52.84"/><line class="cls-2" x1="45.63" y1="422.62" x2="211.92" y2="588.91"/><line class="cls-2" x1="211.92" y1="422.62" x2="45.63" y2="588.91"/><path class="cls-2" d="M139,535.66v40.75h-7.44V535.66Z" transform="translate(-66.56 -47.98)"/><path class="cls-2" d="M176.76,575.2c-1.75.91-5.62,1.82-10.52,1.82-12.94,0-20.8-8.11-20.8-20.5,0-13.43,9.31-21.53,21.77-21.53a23.51,23.51,0,0,1,9.91,1.81l-1.63,5.93a19.78,19.78,0,0,0-8-1.57c-8.29,0-14.27,5.2-14.27,15,0,9,5.26,14.7,14.21,14.7a20.93,20.93,0,0,0,8.1-1.51Z" transform="translate(-66.56 -47.98)"/><path class="cls-2" d="M217.7,555.61c0,13.67-8.29,21.47-19.53,21.47-11.49,0-18.75-8.77-18.75-20.74,0-12.52,7.86-21.35,19.35-21.35C210.68,535,217.7,544,217.7,555.61Zm-30.42.6c0,8.29,4.17,14.88,11.31,14.88s11.25-6.65,11.25-15.18c0-7.68-3.81-14.93-11.25-14.93S187.28,547.81,187.28,556.21Z" transform="translate(-66.56 -47.98)"/><path class="cls-2" d="M224.11,576.41V535.66h8.46l10.53,17.47a111.53,111.53,0,0,1,7,13.67h.12c-.48-5.45-.66-10.71-.66-16.93V535.66h6.89v40.75h-7.68l-10.64-17.9a142,142,0,0,1-7.32-14.09l-.18.06c.3,5.27.36,10.65.36,17.36v14.57Z" transform="translate(-66.56 -47.98)"/><path class="cls-3" d="M329.82,491.46a78.23,78.23,0,0,1,12.39-.89c8,0,13.46,1.65,17.38,4.93,4.11,3.35,6.63,8.41,6.63,15.68,0,7.58-2.59,13.27-6.63,16.94-4.24,3.85-11,5.81-19.28,5.81a84.06,84.06,0,0,1-10.49-.57Zm7.77,36.09a29,29,0,0,0,4.3.19c10.11.06,16.12-5.5,16.12-16.31.06-9.42-5.37-14.79-15.11-14.79a25.19,25.19,0,0,0-5.31.44Z" transform="translate(-66.56 -47.98)"/><path class="cls-3" d="M381.14,494.11a4.12,4.12,0,0,1-4.43,4.17,4.08,4.08,0,0,1-4.29-4.17,4.36,4.36,0,0,1,8.72,0Zm-8.28,39.38V502.71h7.84v30.78Z" transform="translate(-66.56 -47.98)"/><path class="cls-3" d="M389,511.87c0-3.54-.07-6.51-.26-9.16h6.7l.32,4.55H396a10.66,10.66,0,0,1,9.48-5.25A8.88,8.88,0,0,1,414,507.7h.13a11.64,11.64,0,0,1,3.79-3.85,10.3,10.3,0,0,1,6.19-1.84c5.12,0,10.31,3.48,10.31,13.34v18.14h-7.59v-17c0-5.12-1.77-8.16-5.5-8.16a5.93,5.93,0,0,0-5.43,4.11,11.15,11.15,0,0,0-.38,2.59v18.46h-7.59V515.66c0-4.29-1.7-7.33-5.3-7.33a6.09,6.09,0,0,0-5.57,4.43,6.77,6.77,0,0,0-.44,2.53v18.2H389Z" transform="translate(-66.56 -47.98)"/><path class="cls-3" d="M448.13,520.28c.19,5.56,4.55,8,9.48,8a23,23,0,0,0,8.53-1.39l1.14,5.37a28.89,28.89,0,0,1-10.75,1.9c-10,0-15.86-6.13-15.86-15.55,0-8.53,5.18-16.56,15-16.56S469,510.23,469,517a18.86,18.86,0,0,1-.25,3.29Zm13.52-5.44c.07-2.84-1.2-7.52-6.38-7.52-4.8,0-6.83,4.36-7.14,7.52Z" transform="translate(-66.56 -47.98)"/><path class="cls-3" d="M475.24,511.87c0-3.54-.06-6.51-.25-9.16h6.82l.38,4.61h.19a11.11,11.11,0,0,1,9.8-5.31c5.37,0,10.93,3.48,10.93,13.21v18.27h-7.77V516.11c0-4.43-1.65-7.78-5.88-7.78a6.52,6.52,0,0,0-6.07,4.55,8.06,8.06,0,0,0-.31,2.53v18.08h-7.84Z" transform="translate(-66.56 -47.98)"/><path class="cls-3" d="M511,526.35a17.4,17.4,0,0,0,7.9,2.21c3.41,0,4.93-1.39,4.93-3.42s-1.26-3.16-5.06-4.48c-6-2.09-8.53-5.37-8.47-9,0-5.43,4.49-9.67,11.63-9.67a18,18,0,0,1,8.16,1.84l-1.52,5.49a13.93,13.93,0,0,0-6.51-1.76c-2.78,0-4.3,1.32-4.3,3.22s1.46,2.91,5.38,4.3c5.56,2,8.15,4.86,8.21,9.41,0,5.56-4.36,9.61-12.51,9.61a19.94,19.94,0,0,1-9.36-2.15Z" transform="translate(-66.56 -47.98)"/><path class="cls-3" d="M546,494.11a4.36,4.36,0,1,1-4.36-4.23A4.11,4.11,0,0,1,546,494.11Zm-8.28,39.38V502.71h7.84v30.78Z" transform="translate(-66.56 -47.98)"/><path class="cls-3" d="M583.18,517.81c0,11.32-8,16.37-15.8,16.37-8.72,0-15.42-6-15.42-15.86,0-10.11,6.64-16.31,15.93-16.31S583.18,508.46,583.18,517.81Zm-23.19.32c0,5.94,2.91,10.43,7.65,10.43,4.42,0,7.52-4.36,7.52-10.56,0-4.8-2.15-10.3-7.46-10.3C562.2,507.7,560,513,560,518.13Z" transform="translate(-66.56 -47.98)"/><path class="cls-3" d="M589.57,511.87c0-3.54-.07-6.51-.26-9.16h6.83l.38,4.61h.19A11.08,11.08,0,0,1,606.5,502c5.38,0,10.94,3.48,10.94,13.21v18.27h-7.78V516.11c0-4.43-1.64-7.78-5.87-7.78a6.52,6.52,0,0,0-6.07,4.55,8,8,0,0,0-.32,2.53v18.08h-7.83Z" transform="translate(-66.56 -47.98)"/><path class="cls-3" d="M349.63,565.26h-.09L344.07,568l-1-4.27,7.27-3.58h4.73V590h-5.47Z" transform="translate(-66.56 -47.98)"/><path class="cls-3" d="M385.94,560.16v3.63L373.3,590h-6l12.59-25.09v-.1H365.86v-4.68Z" transform="translate(-66.56 -47.98)"/><path class="cls-3" d="M390.4,586.9a3.44,3.44,0,0,1,3.49-3.63,3.63,3.63,0,0,1,0,7.26A3.44,3.44,0,0,1,390.4,586.9Z" transform="translate(-66.56 -47.98)"/><path class="cls-3" d="M400.47,582.35c0-3.72,2.16-6.25,5.6-7.76v-.14c-3.12-1.52-4.55-4-4.55-6.62,0-4.87,4.32-8.18,10-8.18,6.43,0,9.37,3.86,9.37,7.54,0,2.53-1.33,5.14-4.59,6.75v.14c3.26,1.24,5.69,3.82,5.69,7.54,0,5.33-4.5,8.91-10.89,8.91C404.1,590.53,400.47,586.54,400.47,582.35Zm15.76-.27c0-3-2.25-4.69-5.56-5.61-2.8.83-4.41,2.76-4.41,5.24a4.7,4.7,0,0,0,5,4.83C414.25,586.54,416.23,584.65,416.23,582.08ZM406.9,567.6c0,2.44,2,3.91,4.87,4.69a4.85,4.85,0,0,0,3.72-4.51,4,4,0,0,0-4.27-4.22A4,4,0,0,0,406.9,567.6Z" transform="translate(-66.56 -47.98)"/><path class="cls-3" d="M439.85,567.65l2.67,4.23c.74,1.19,1.38,2.29,2,3.44h.14c.64-1.24,1.29-2.39,1.93-3.54l2.48-4.13h6.16l-7.49,10.75L455.39,590H449l-2.76-4.46c-.73-1.19-1.38-2.39-2-3.63h-.09c-.64,1.29-1.29,2.39-2,3.63L439.53,590h-6.25l7.77-11.4-7.49-11Z" transform="translate(-66.56 -47.98)"/><path class="cls-3" d="M476.12,565.26H476L470.56,568l-1-4.27,7.26-3.58h4.74V590h-5.47Z" transform="translate(-66.56 -47.98)"/><path class="cls-3" d="M512.43,560.16v3.63L499.79,590h-6l12.6-25.09v-.1H492.34v-4.68Z" transform="translate(-66.56 -47.98)"/><path class="cls-3" d="M516.89,586.9a3.44,3.44,0,0,1,3.49-3.63,3.63,3.63,0,0,1,0,7.26A3.44,3.44,0,0,1,516.89,586.9Z" transform="translate(-66.56 -47.98)"/><path class="cls-3" d="M546.35,564.84H534.86l-.88,6a15.4,15.4,0,0,1,2.17-.14,13.38,13.38,0,0,1,7.26,1.93,8.57,8.57,0,0,1,3.9,7.58c0,5.7-4.73,10.34-12.08,10.34a17.25,17.25,0,0,1-7.91-1.74l1.15-4.28a15.11,15.11,0,0,0,6.57,1.57c3.31,0,6.48-1.89,6.48-5.47,0-3.4-2.53-5.66-8.5-5.66a26.41,26.41,0,0,0-4.09.28l2-15.07h15.44Z" transform="translate(-66.56 -47.98)"/><path class="cls-3" d="M355.1,622.8l2.67,4.23c.73,1.2,1.37,2.3,2,3.45h.14c.64-1.24,1.28-2.39,1.93-3.54l2.48-4.14h6.16L363,633.56l7.63,11.62h-6.38l-2.76-4.45c-.74-1.2-1.38-2.39-2-3.63h-.1c-.64,1.28-1.28,2.39-2,3.63l-2.57,4.45h-6.25l7.76-11.39-7.49-11Z" transform="translate(-66.56 -47.98)"/><path class="cls-3" d="M382.08,637.51c0-3.72,2.16-6.25,5.61-7.77v-.14c-3.13-1.51-4.55-4-4.55-6.61,0-4.88,4.32-8.18,10-8.18,6.43,0,9.38,3.86,9.38,7.53,0,2.53-1.34,5.15-4.6,6.76v.14c3.26,1.24,5.7,3.81,5.7,7.53,0,5.34-4.51,8.92-10.89,8.92C385.71,645.69,382.08,641.69,382.08,637.51Zm15.76-.28c0-3-2.25-4.68-5.56-5.6-2.8.82-4.41,2.75-4.41,5.24a4.71,4.71,0,0,0,5,4.82C395.87,641.69,397.84,639.81,397.84,637.23Zm-9.33-14.47c0,2.43,2,3.9,4.88,4.68a4.84,4.84,0,0,0,3.72-4.5,4,4,0,0,0-4.28-4.23A4,4,0,0,0,388.51,622.76Z" transform="translate(-66.56 -47.98)"/><path class="cls-3" d="M407.5,642.06a3.44,3.44,0,0,1,3.49-3.63,3.63,3.63,0,0,1,0,7.26A3.44,3.44,0,0,1,407.5,642.06Z" transform="translate(-66.56 -47.98)"/><path class="cls-3" d="M420.27,641.14a15,15,0,0,0,3.13-.09,11.37,11.37,0,0,0,6.07-2.3,11,11,0,0,0,3.81-6.62l-.09,0a8.27,8.27,0,0,1-6.53,2.66c-5.19,0-9.05-3.77-9.05-9.28a10.58,10.58,0,0,1,10.8-10.66c6.94,0,10.66,5.46,10.66,12.73,0,6.38-2.11,10.94-5.19,13.88a16.53,16.53,0,0,1-10.21,4.09,24.19,24.19,0,0,1-3.4.09Zm3-16c0,3.08,1.79,5.47,4.91,5.47a5.44,5.44,0,0,0,4.83-2.49,3.38,3.38,0,0,0,.32-1.6c.05-4-1.47-7.54-5.15-7.54C425.28,619,423.22,621.52,423.22,625.15Z" transform="translate(-66.56 -47.98)"/><path class="cls-3" d="M469.64,644.5a16.46,16.46,0,0,1-6.35,1.14c-7,0-11.53-4.45-11.53-11.39,0-6.71,4.59-12,12.45-12a14.22,14.22,0,0,1,5.47,1.05l-1,4.23a10,10,0,0,0-4.27-.87c-4.32,0-6.9,3.17-6.85,7.26,0,4.6,3,7.22,6.85,7.22a11,11,0,0,0,4.45-.88Z" transform="translate(-66.56 -47.98)"/><path class="cls-3" d="M473.82,629.47c0-2.58-.05-4.74-.18-6.67h4.87l.23,3.31h.14a7.74,7.74,0,0,1,6.89-3.81,6.44,6.44,0,0,1,6.2,4.13h.1a8.47,8.47,0,0,1,2.75-2.8,7.51,7.51,0,0,1,4.51-1.33c3.72,0,7.49,2.53,7.49,9.7v13.18H501.3V632.82c0-3.72-1.28-5.93-4-5.93a4.31,4.31,0,0,0-3.95,3,8,8,0,0,0-.27,1.88v13.42h-5.52v-13c0-3.12-1.24-5.33-3.86-5.33a4.41,4.41,0,0,0-4,3.22,4.85,4.85,0,0,0-.33,1.84v13.23h-5.51Z" transform="translate(-66.56 -47.98)"/><g id="Display-icon"><rect class="cls-10" x="54.68" y="447.73" width="149.38" height="115.87" rx="12.96"/><path class="cls-11" d="M246.88,547.58V562a.26.26,0,0,0,.37.23l15-7.81a.62.62,0,0,0,.08-1l-14-10.34a.91.91,0,0,0-1.44.73Z" transform="translate(-66.56 -47.98)"/><path class="cls-11" d="M145.22,558l.18-14.39a.25.25,0,0,0-.37-.23L130,551a.62.62,0,0,0-.1,1.05l13.86,10.51a.91.91,0,0,0,1.45-.71Z" transform="translate(-66.56 -47.98)"/><path class="cls-11" d="M195.68,507.77l-6.77,12.69a.25.25,0,0,0,.22.37L206,521a.62.62,0,0,0,.56-.89l-7.47-15.7a.9.9,0,0,0-1.61,0Z" transform="translate(-66.56 -47.98)"/><path class="cls-11" d="M202.58,587.5l-14.38-.3a.25.25,0,0,0-.23.37l7.49,15.12a.63.63,0,0,0,1,.11L207.13,589a.9.9,0,0,0-.69-1.45Z" transform="translate(-66.56 -47.98)"/></g></g><g id="_Small_info_bar_-Battery" data-name=" Small info bar -Battery"><rect class="cls-1" x="659.08" y="7.18" width="597.14" height="287.23" rx="52.84"/><line class="cls-2" x1="696.87" y1="67.65" x2="863.17" y2="233.94"/><line class="cls-2" x1="863.17" y1="67.65" x2="696.87" y2="233.94"/><path class="cls-2" d="M790.27,180.69v40.76h-7.44V180.69Z" transform="translate(-66.56 -47.98)"/><path class="cls-2" d="M828,220.24c-1.76.91-5.63,1.81-10.53,1.81-12.94,0-20.8-8.1-20.8-20.5,0-13.42,9.31-21.53,21.77-21.53a23.33,23.33,0,0,1,9.92,1.82l-1.63,5.92a20,20,0,0,0-8-1.57c-8.28,0-14.27,5.2-14.27,15,0,8.95,5.26,14.69,14.21,14.69a20.8,20.8,0,0,0,8.11-1.51Z" transform="translate(-66.56 -47.98)"/><path class="cls-2" d="M868.94,200.65c0,13.66-8.28,21.46-19.53,21.46-11.49,0-18.74-8.77-18.74-20.74,0-12.52,7.86-21.35,19.35-21.35C861.93,180,868.94,189,868.94,200.65Zm-30.41.6c0,8.28,4.17,14.88,11.31,14.88s11.24-6.66,11.24-15.18c0-7.68-3.81-14.94-11.24-14.94S838.53,192.84,838.53,201.25Z" transform="translate(-66.56 -47.98)"/><path class="cls-2" d="M875.35,221.45V180.69h8.47l10.52,17.48a113,113,0,0,1,7,13.66h.12c-.49-5.44-.67-10.7-.67-16.93V180.69h6.9v40.76H900l-10.65-17.9A141.94,141.94,0,0,1,882,189.46l-.19.06c.31,5.26.37,10.64.37,17.35v14.58Z" transform="translate(-66.56 -47.98)"/><path class="cls-3" d="M994.15,136.49a64.4,64.4,0,0,1,11.31-.89c5.75,0,9.29.7,12.2,2.72a9,9,0,0,1,4.42,8c0,3.92-2.46,7.52-7.08,9.23v.13c4.49,1.13,8.6,4.67,8.6,10.55a11.06,11.06,0,0,1-4.11,8.79c-3,2.65-8,4-15.8,4a75.72,75.72,0,0,1-9.54-.57Zm7.71,16.81h4c5.37,0,8.41-2.53,8.41-6.13,0-4-3-5.82-8-5.82a21,21,0,0,0-4.42.32Zm0,19.59a33.59,33.59,0,0,0,4.11.19c5,0,9.41-1.9,9.41-7.14,0-4.93-4.29-6.95-9.67-6.95h-3.85Z" transform="translate(-66.56 -47.98)"/><path class="cls-3" d="M1047.74,178.52l-.51-3.42H1047a11.42,11.42,0,0,1-9.1,4.11c-6.19,0-9.67-4.49-9.67-9.16,0-7.78,6.89-11.7,18.27-11.63v-.51c0-2-.82-5.37-6.26-5.37a16.3,16.3,0,0,0-8.28,2.28l-1.51-5.06a22.12,22.12,0,0,1,11.12-2.72c9.86,0,12.7,6.26,12.7,13v11.12a48.84,48.84,0,0,0,.45,7.4Zm-1-15.05c-5.5-.12-10.75,1.08-10.75,5.76a4.08,4.08,0,0,0,4.43,4.42,6.3,6.3,0,0,0,6.07-4.24,5.52,5.52,0,0,0,.25-1.7Z" transform="translate(-66.56 -47.98)"/><path class="cls-3" d="M1071.06,139v8.79h7.4v5.81h-7.4v13.59c0,3.73,1,5.69,4,5.69a11.53,11.53,0,0,0,3-.38l.12,5.94a17.13,17.13,0,0,1-5.62.76,9,9,0,0,1-6.7-2.53c-1.65-1.77-2.4-4.55-2.4-8.6V153.55h-4.43v-5.81h4.43v-7Z" transform="translate(-66.56 -47.98)"/><path class="cls-3" d="M1093.24,139v8.79h7.4v5.81h-7.4v13.59c0,3.73,1,5.69,4,5.69a11.53,11.53,0,0,0,3-.38l.12,5.94a17.09,17.09,0,0,1-5.62.76,9,9,0,0,1-6.7-2.53c-1.64-1.77-2.4-4.55-2.4-8.6V153.55h-4.43v-5.81h4.43v-7Z" transform="translate(-66.56 -47.98)"/><path class="cls-3" d="M1111.63,165.31c.19,5.56,4.55,8,9.48,8a23.25,23.25,0,0,0,8.54-1.39l1.13,5.37a28.84,28.84,0,0,1-10.74,1.9c-10,0-15.86-6.13-15.86-15.55,0-8.53,5.18-16.56,15-16.56s13.27,8.22,13.27,15a20,20,0,0,1-.25,3.29Zm13.53-5.44c.06-2.84-1.2-7.52-6.38-7.52-4.81,0-6.83,4.36-7.15,7.52Z" transform="translate(-66.56 -47.98)"/><path class="cls-3" d="M1138.75,157.66c0-4.17-.07-7.14-.26-9.92h6.77l.25,5.87h.25c1.52-4.36,5.12-6.57,8.41-6.57a7.91,7.91,0,0,1,1.83.19v7.33a11.29,11.29,0,0,0-2.28-.25,6.86,6.86,0,0,0-7,5.88,13.84,13.84,0,0,0-.25,2.4v15.93h-7.77Z" transform="translate(-66.56 -47.98)"/><path class="cls-3" d="M1167.5,147.74l5.56,16.49c.63,1.9,1.27,4.24,1.71,6h.19c.5-1.77,1.07-4.05,1.64-6.07l4.8-16.43h8.35l-7.71,21c-4.24,11.5-7.08,16.62-10.75,19.78a15.57,15.57,0,0,1-8.15,4l-1.77-6.57a13.33,13.33,0,0,0,4.55-2.15,13.58,13.58,0,0,0,4.23-4.86,3.12,3.12,0,0,0,.51-1.4,3.27,3.27,0,0,0-.44-1.51L1159,147.74Z" transform="translate(-66.56 -47.98)"/><path class="cls-3" d="M1004.46,246.55V239H991v-3.68l12.18-18.61h6.66v18h3.86V239h-3.86v7.58Zm0-11.86v-8.13c0-1.7,0-3.45.18-5.2h-.18c-.92,1.89-1.7,3.4-2.62,5.06l-5.47,8.18,0,.09Z" transform="translate(-66.56 -47.98)"/><path class="cls-3" d="M1037.74,231.43c0,9.6-3.77,15.62-10.9,15.62-6.89,0-10.57-6.25-10.61-15.35,0-9.28,3.95-15.53,10.94-15.53C1034.38,216.17,1037.74,222.6,1037.74,231.43Zm-15.81.27c0,7.27,2,11,5.1,11,3.31,0,5-4.05,5-11.22,0-6.94-1.65-11-5-11C1024,220.49,1021.88,224.21,1021.93,231.7Z" transform="translate(-66.56 -47.98)"/><path class="cls-3" d="M1051.85,213.92h5.7v13.33h.09a8.06,8.06,0,0,1,6.66-3.59c3.82,0,7.82,2.53,7.82,9.7v13.19h-5.66V234c0-3.26-1.19-5.7-4.32-5.7a4.63,4.63,0,0,0-4.59,4.87v13.38h-5.7Z" transform="translate(-66.56 -47.98)"/><path class="cls-3" d="M1099.42,235.15c0,8.23-5.79,11.9-11.49,11.9-6.34,0-11.22-4.36-11.22-11.53,0-7.36,4.83-11.86,11.59-11.86S1099.42,228.35,1099.42,235.15Zm-16.87.23c0,4.32,2.12,7.58,5.56,7.58,3.22,0,5.47-3.17,5.47-7.67,0-3.49-1.56-7.49-5.42-7.49S1082.55,231.66,1082.55,235.38Z" transform="translate(-66.56 -47.98)"/><path class="cls-3" d="M1124.1,239.84c0,2.66.09,4.87.18,6.71h-5l-.28-3.4H1119a8.08,8.08,0,0,1-7.17,3.9c-4.09,0-7.81-2.43-7.81-9.74V224.17h5.65v12.18c0,3.72,1.2,6.11,4.19,6.11a4.77,4.77,0,0,0,4.32-3,5.29,5.29,0,0,0,.32-1.75V224.17h5.65Z" transform="translate(-66.56 -47.98)"/><path class="cls-3" d="M1130.21,231.38c0-3,0-5.19-.18-7.21H1135l.18,4.27h.19a6.67,6.67,0,0,1,6.11-4.78,6,6,0,0,1,1.33.14v5.33a8,8,0,0,0-1.65-.18,5,5,0,0,0-5.06,4.27,9.92,9.92,0,0,0-.18,1.75v11.58h-5.66Z" transform="translate(-66.56 -47.98)"/><path class="cls-3" d="M1146.3,241.36a12.63,12.63,0,0,0,5.75,1.6c2.48,0,3.58-1,3.58-2.48s-.92-2.3-3.68-3.26c-4.36-1.52-6.2-3.91-6.16-6.53,0-3.95,3.27-7,8.46-7a13.3,13.3,0,0,1,5.93,1.33l-1.1,4a10.11,10.11,0,0,0-4.74-1.28c-2,0-3.12,1-3.12,2.34s1.06,2.11,3.91,3.12c4,1.48,5.92,3.54,6,6.85,0,4-3.17,7-9.1,7a14.41,14.41,0,0,1-6.8-1.56Z" transform="translate(-66.56 -47.98)"/><g id="Baterry-icon"><rect class="cls-3" x="734.65" y="80.48" width="86.18" height="159.75"/><rect class="cls-3" x="757.77" y="57.36" width="42.04" height="37.84"/></g></g></g></svg>