<svg id="Layer_1" data-name="Layer 1" xmlns="http://www.w3.org/2000/svg" viewBox="0 0 1910.55 1004.75"><defs><style>.cls-1,.cls-10,.cls-12,.cls-13,.cls-15,.cls-16,.cls-18,.cls-19,.cls-2,.cls-4,.cls-9{fill:#fff;}.cls-1,.cls-10,.cls-11,.cls-12,.cls-13,.cls-14,.cls-15,.cls-16,.cls-17,.cls-18,.cls-19,.cls-4,.cls-5,.cls-6,.cls-7,.cls-8,.cls-9{stroke:#231f20;stroke-miterlimit:10;}.cls-1{stroke-width:11.49px;}.cls-11,.cls-17,.cls-3,.cls-6,.cls-7,.cls-8{fill:#231f20;}.cls-4,.cls-5{stroke-width:7.18px;}.cls-14,.cls-5{fill:none;}.cls-6{stroke-width:3.49px;}.cls-7{stroke-width:3.59px;}.cls-8{stroke-width:3.77px;}.cls-9{stroke-width:13.26px;}.cls-10{stroke-width:10.3px;}.cls-11{stroke-width:4.79px;}.cls-12{stroke-width:9.13px;}.cls-13{stroke-width:15.05px;}.cls-14{stroke-width:18.25px;}.cls-15{stroke-width:11.22px;}.cls-16{stroke-width:8.38px;}.cls-17{stroke-width:4.23px;}.cls-18{stroke-width:17.6px;}.cls-19{stroke-width:23.24px;}</style></defs><g id="Specs-of-products"><g id="_Small_info_bar_-_release_date" data-name=" Small info bar - release date"><rect class="cls-1" x="10.29" y="12.84" width="597.14" height="287.23" rx="52.84"/><line class="cls-2" x1="48.09" y1="73.31" x2="214.38" y2="239.6"/><line class="cls-2" x1="214.38" y1="73.31" x2="48.09" y2="239.6"/><path class="cls-2" d="M136.67,187.37v40.76h-7.44V187.37Z" transform="translate(-61.73 -49)"/><path class="cls-2" d="M174.4,226.92c-1.76.91-5.63,1.81-10.52,1.81-12.94,0-20.81-8.1-20.81-20.49,0-13.43,9.32-21.53,21.77-21.53a23.53,23.53,0,0,1,9.92,1.81l-1.63,5.93a19.78,19.78,0,0,0-8-1.57c-8.29,0-14.27,5.2-14.27,15,0,8.95,5.26,14.7,14.21,14.7a20.77,20.77,0,0,0,8.1-1.52Z" transform="translate(-61.73 -49)"/><path class="cls-2" d="M215.34,207.33c0,13.66-8.29,21.47-19.53,21.47-11.49,0-18.75-8.77-18.75-20.75,0-12.51,7.86-21.34,19.35-21.34C208.32,186.71,215.34,195.72,215.34,207.33Zm-30.42.6c0,8.29,4.17,14.88,11.31,14.88s11.25-6.65,11.25-15.18c0-7.68-3.81-14.94-11.25-14.94S184.92,199.53,184.92,207.93Z" transform="translate(-61.73 -49)"/><path class="cls-2" d="M221.75,228.13V187.37h8.46l10.52,17.48a110.93,110.93,0,0,1,7,13.67h.12c-.48-5.45-.67-10.71-.67-16.94V187.37H254v40.76h-7.68l-10.64-17.9a139.88,139.88,0,0,1-7.32-14.09l-.18.06c.3,5.26.36,10.64.36,17.36v14.57Z" transform="translate(-61.73 -49)"/><path class="cls-3" d="M327.46,143.18a73,73,0,0,1,11.75-.89c6.13,0,10.3,1,13.15,3.41a10.78,10.78,0,0,1,3.66,8.54,11.38,11.38,0,0,1-7.71,10.68v.19c3,1.13,4.87,4.1,5.94,8.21,1.33,5.31,2.47,10.24,3.35,11.88h-8c-.64-1.26-1.65-4.74-2.85-10-1.2-5.57-3.22-7.34-7.65-7.46h-3.91v17.5h-7.71ZM335.17,162h4.61c5.25,0,8.53-2.78,8.53-7,0-4.67-3.28-6.82-8.34-6.82a22.17,22.17,0,0,0-4.8.38Z" transform="translate(-61.73 -49)"/><path class="cls-3" d="M368.79,172c.19,5.56,4.55,8,9.48,8a23.23,23.23,0,0,0,8.53-1.39l1.14,5.37a29.1,29.1,0,0,1-10.75,1.9c-10,0-15.86-6.13-15.86-15.55,0-8.53,5.18-16.56,15-16.56s13.27,8.22,13.27,15a19,19,0,0,1-.25,3.29Zm13.52-5.44c.06-2.84-1.2-7.52-6.38-7.52-4.81,0-6.83,4.36-7.14,7.52Z" transform="translate(-61.73 -49)"/><path class="cls-3" d="M395.9,140.33h7.83V185.2H395.9Z" transform="translate(-61.73 -49)"/><path class="cls-3" d="M417.64,172c.19,5.56,4.55,8,9.48,8a23.23,23.23,0,0,0,8.53-1.39l1.14,5.37a29.1,29.1,0,0,1-10.75,1.9c-10,0-15.86-6.13-15.86-15.55,0-8.53,5.18-16.56,15-16.56s13.27,8.22,13.27,15a19,19,0,0,1-.25,3.29Zm13.52-5.44c.07-2.84-1.2-7.52-6.38-7.52-4.8,0-6.83,4.36-7.14,7.52Z" transform="translate(-61.73 -49)"/><path class="cls-3" d="M462.07,185.2l-.51-3.41h-.19a11.43,11.43,0,0,1-9.1,4.11c-6.19,0-9.67-4.49-9.67-9.16,0-7.78,6.89-11.7,18.27-11.63v-.51c0-2-.83-5.37-6.26-5.37a16.4,16.4,0,0,0-8.28,2.27l-1.52-5.05a22.2,22.2,0,0,1,11.13-2.72c9.86,0,12.7,6.26,12.7,13v11.12a50.09,50.09,0,0,0,.44,7.39Zm-1-15c-5.5-.12-10.75,1.08-10.75,5.75a4.08,4.08,0,0,0,4.43,4.43,6.28,6.28,0,0,0,6.06-4.24,5.59,5.59,0,0,0,.26-1.7Z" transform="translate(-61.73 -49)"/><path class="cls-3" d="M476.48,178.06a17.2,17.2,0,0,0,7.9,2.21c3.41,0,4.93-1.39,4.93-3.41s-1.27-3.16-5.06-4.49c-6-2.08-8.53-5.37-8.47-9,0-5.44,4.49-9.67,11.63-9.67a18,18,0,0,1,8.15,1.83l-1.51,5.5a13.84,13.84,0,0,0-6.51-1.77c-2.79,0-4.3,1.33-4.3,3.22s1.45,2.91,5.37,4.3c5.56,2,8.15,4.87,8.22,9.42,0,5.56-4.36,9.61-12.52,9.61a19.87,19.87,0,0,1-9.35-2.15Z" transform="translate(-61.73 -49)"/><path class="cls-3" d="M508.71,172c.19,5.56,4.55,8,9.48,8a23.23,23.23,0,0,0,8.53-1.39l1.14,5.37a29.1,29.1,0,0,1-10.75,1.9c-10,0-15.86-6.13-15.86-15.55,0-8.53,5.18-16.56,15-16.56s13.27,8.22,13.27,15a19,19,0,0,1-.25,3.29Zm13.52-5.44c.07-2.84-1.2-7.52-6.38-7.52-4.8,0-6.83,4.36-7.14,7.52Z" transform="translate(-61.73 -49)"/><path class="cls-3" d="M564.2,140.33v36.22c0,3.16.12,6.57.25,8.65h-7l-.32-4.86h-.13a11.07,11.07,0,0,1-10,5.56c-7.34,0-13.15-6.26-13.15-15.74-.06-10.3,6.38-16.43,13.78-16.43,4.23,0,7.27,1.77,8.66,4h.12V140.33Zm-7.78,26.93a10.65,10.65,0,0,0-.19-2,6.81,6.81,0,0,0-6.7-5.5c-5,0-7.77,4.43-7.77,10.18s2.78,9.73,7.71,9.73a6.86,6.86,0,0,0,6.7-5.5,8.59,8.59,0,0,0,.25-2.27Z" transform="translate(-61.73 -49)"/><path class="cls-3" d="M357.65,237.43c0,10.38-6.29,16.31-14.84,16.31-8.74,0-14.25-6.66-14.25-15.76,0-9.51,6-16.22,14.71-16.22C352.32,221.76,357.65,228.6,357.65,237.43Zm-23.12.46c0,6.29,3.18,11.3,8.6,11.3s8.55-5.05,8.55-11.53c0-5.84-2.9-11.35-8.55-11.35S334.53,231.5,334.53,237.89Z" transform="translate(-61.73 -49)"/><path class="cls-3" d="M378.75,252.55a16.41,16.41,0,0,1-6.34,1.15c-7,0-11.54-4.46-11.54-11.4,0-6.71,4.6-12,12.46-12a14.1,14.1,0,0,1,5.47,1.06l-1,4.23a9.84,9.84,0,0,0-4.27-.88c-4.32,0-6.89,3.17-6.85,7.26,0,4.6,3,7.22,6.85,7.22a11.08,11.08,0,0,0,4.46-.87Z" transform="translate(-61.73 -49)"/><path class="cls-3" d="M390.1,224.47v6.39h5.38v4.22H390.1V245c0,2.71.74,4.13,2.9,4.13a8.69,8.69,0,0,0,2.2-.27l.1,4.32a12.49,12.49,0,0,1-4.09.55,6.56,6.56,0,0,1-4.88-1.84c-1.19-1.29-1.74-3.31-1.74-6.25V235.08h-3.22v-4.22h3.22V225.8Z" transform="translate(-61.73 -49)"/><path class="cls-3" d="M408.21,253.24v-3.45l3.54-3.26c7-6.53,10.34-10.11,10.39-14.07,0-2.66-1.43-5-5.33-5a10.86,10.86,0,0,0-6.39,2.49l-1.66-4a14.78,14.78,0,0,1,9.2-3.08c6.61,0,9.83,4.18,9.83,9,0,5.24-3.77,9.47-9,14.3l-2.62,2.25v.09h12.27v4.69Z" transform="translate(-61.73 -49)"/><path class="cls-3" d="M431.24,258.8a74.81,74.81,0,0,0,3.08-12.13l5.93-.46a58.78,58.78,0,0,1-5.15,12.22Z" transform="translate(-61.73 -49)"/><path class="cls-3" d="M453.21,253.24v-3.45l3.54-3.26c7-6.53,10.34-10.11,10.38-14.07,0-2.66-1.42-5-5.33-5a10.89,10.89,0,0,0-6.39,2.49l-1.65-4a14.75,14.75,0,0,1,9.19-3.08c6.62,0,9.84,4.18,9.84,9,0,5.24-3.77,9.47-9,14.3l-2.61,2.25v.09h12.27v4.69Z" transform="translate(-61.73 -49)"/><path class="cls-3" d="M498.94,238.12c0,9.6-3.77,15.62-10.89,15.62-6.9,0-10.57-6.25-10.62-15.35,0-9.28,3.95-15.53,10.94-15.53C495.58,222.86,498.94,229.29,498.94,238.12Zm-15.81.27c-.05,7.26,2,11,5.1,11,3.31,0,5.06-4,5.06-11.21,0-6.94-1.66-11-5.06-11C485.2,227.18,483.08,230.9,483.13,238.39Z" transform="translate(-61.73 -49)"/><path class="cls-3" d="M502.48,253.24v-3.45l3.54-3.26c7-6.53,10.34-10.11,10.39-14.07,0-2.66-1.43-5-5.34-5a10.83,10.83,0,0,0-6.38,2.49l-1.66-4a14.75,14.75,0,0,1,9.19-3.08c6.62,0,9.84,4.18,9.84,9,0,5.24-3.77,9.47-9,14.3l-2.62,2.25v.09h12.27v4.69Z" transform="translate(-61.73 -49)"/><path class="cls-3" d="M548.21,238.12c0,9.6-3.77,15.62-10.89,15.62-6.89,0-10.57-6.25-10.62-15.35,0-9.28,4-15.53,10.94-15.53C544.86,222.86,548.21,229.29,548.21,238.12Zm-15.81.27c0,7.26,2,11,5.1,11,3.31,0,5.06-4,5.06-11.21,0-6.94-1.66-11-5.06-11C534.47,227.18,532.36,230.9,532.4,238.39Z" transform="translate(-61.73 -49)"/><g id="Clender-icon"><rect class="cls-4" x="58.37" y="97.46" width="146.51" height="119.22" rx="17.98"/><line class="cls-5" x1="58.37" y1="133.37" x2="204.88" y2="133.37"/><rect class="cls-6" x="88.53" y="86.24" width="8.62" height="23.88"/><rect class="cls-7" x="162.75" y="85.7" width="9.09" height="23.88"/><rect class="cls-8" x="82.79" y="149.17" width="8.62" height="8.62"/><rect class="cls-8" x="112.95" y="149.17" width="8.62" height="8.62"/><rect class="cls-8" x="141.68" y="149.17" width="8.62" height="8.62"/><rect class="cls-8" x="170.41" y="149.17" width="8.62" height="8.62"/><rect class="cls-8" x="82.79" y="172.15" width="8.62" height="8.62"/><rect class="cls-8" x="112.95" y="172.15" width="8.62" height="8.62"/><rect class="cls-8" x="141.68" y="172.15" width="8.62" height="8.62"/><rect class="cls-8" x="170.41" y="172.15" width="8.62" height="8.62"/><rect class="cls-8" x="82.79" y="193.7" width="8.62" height="8.62"/><rect class="cls-8" x="112.95" y="193.7" width="8.62" height="8.62"/><rect class="cls-8" x="141.68" y="193.7" width="8.62" height="8.62"/></g></g><g id="_Small_info_bar_-_Camera" data-name=" Small info bar - Camera"><rect class="cls-1" x="662.43" y="5.75" width="597.14" height="287.23" rx="52.84"/><line class="cls-2" x1="700.22" y1="66.22" x2="866.52" y2="232.51"/><line class="cls-2" x1="866.52" y1="66.22" x2="700.22" y2="232.51"/><path class="cls-2" d="M788.8,180.28V221h-7.44V180.28Z" transform="translate(-61.73 -49)"/><path class="cls-2" d="M826.53,219.83c-1.75.9-5.62,1.81-10.52,1.81-12.94,0-20.8-8.1-20.8-20.5,0-13.42,9.31-21.53,21.77-21.53a23.33,23.33,0,0,1,9.92,1.82l-1.63,5.92a20,20,0,0,0-8-1.57c-8.28,0-14.27,5.2-14.27,15,0,8.95,5.26,14.69,14.21,14.69a20.8,20.8,0,0,0,8.11-1.51Z" transform="translate(-61.73 -49)"/><path class="cls-2" d="M867.47,200.23c0,13.67-8.28,21.47-19.53,21.47-11.49,0-18.74-8.77-18.74-20.74,0-12.52,7.86-21.35,19.35-21.35C860.46,179.61,867.47,188.62,867.47,200.23Zm-30.41.61c0,8.28,4.17,14.88,11.31,14.88s11.24-6.66,11.24-15.18c0-7.68-3.81-14.94-11.24-14.94S837.06,192.43,837.06,200.84Z" transform="translate(-61.73 -49)"/><path class="cls-2" d="M873.88,221V180.28h8.47l10.52,17.48a113,113,0,0,1,7,13.66H900c-.49-5.44-.67-10.7-.67-16.93V180.28h6.89V221h-7.68l-10.64-17.9a141.94,141.94,0,0,1-7.31-14.09l-.19.06c.31,5.26.37,10.64.37,17.35V221Z" transform="translate(-61.73 -49)"/><path class="cls-3" d="M1010.12,176.84c-1.83.95-5.88,1.9-11,1.9-13.52,0-21.74-8.47-21.74-21.43,0-14,9.73-22.5,22.75-22.5,5.12,0,8.79,1.08,10.37,1.9l-1.71,6.19a20.76,20.76,0,0,0-8.34-1.64c-8.66,0-14.92,5.43-14.92,15.67,0,9.36,5.5,15.36,14.86,15.36a21.67,21.67,0,0,0,8.46-1.58Z" transform="translate(-61.73 -49)"/><path class="cls-3" d="M1033.19,178.11l-.51-3.42h-.19a11.44,11.44,0,0,1-9.1,4.11c-6.19,0-9.67-4.49-9.67-9.16,0-7.78,6.89-11.7,18.27-11.63v-.51c0-2-.83-5.37-6.26-5.37a16.24,16.24,0,0,0-8.28,2.28l-1.52-5.06a22.2,22.2,0,0,1,11.13-2.72c9.85,0,12.7,6.26,12.7,13v11.12a50.33,50.33,0,0,0,.44,7.4Zm-1-15.05c-5.49-.12-10.74,1.08-10.74,5.76a4.08,4.08,0,0,0,4.42,4.42,6.29,6.29,0,0,0,6.07-4.24,5.52,5.52,0,0,0,.25-1.7Z" transform="translate(-61.73 -49)"/><path class="cls-3" d="M1048,156.49c0-3.54-.06-6.51-.25-9.16h6.7l.32,4.55h.19a10.63,10.63,0,0,1,9.48-5.25,8.88,8.88,0,0,1,8.53,5.69h.12a11.7,11.7,0,0,1,3.8-3.86,10.25,10.25,0,0,1,6.19-1.83c5.12,0,10.3,3.48,10.3,13.34v18.14h-7.58v-17c0-5.11-1.77-8.15-5.5-8.15a6,6,0,0,0-5.44,4.11,11.16,11.16,0,0,0-.37,2.59v18.46h-7.59V160.28c0-4.29-1.71-7.33-5.31-7.33a6.07,6.07,0,0,0-5.56,4.43,6.52,6.52,0,0,0-.44,2.52v18.21H1048Z" transform="translate(-61.73 -49)"/><path class="cls-3" d="M1107.06,164.9c.19,5.56,4.56,8,9.48,8a23.25,23.25,0,0,0,8.54-1.39l1.13,5.37a28.84,28.84,0,0,1-10.74,1.9c-10,0-15.86-6.13-15.86-15.55,0-8.53,5.18-16.56,15-16.56s13.27,8.22,13.27,15a20,20,0,0,1-.25,3.29Zm13.53-5.44c.06-2.84-1.2-7.52-6.38-7.52-4.81,0-6.83,4.36-7.15,7.52Z" transform="translate(-61.73 -49)"/><path class="cls-3" d="M1134.18,157.25c0-4.17-.07-7.14-.26-9.92h6.77l.25,5.87h.25c1.52-4.36,5.12-6.57,8.41-6.57a7.91,7.91,0,0,1,1.83.19v7.33a11.27,11.27,0,0,0-2.27-.25,6.86,6.86,0,0,0-7,5.88,13.84,13.84,0,0,0-.25,2.4v15.93h-7.77Z" transform="translate(-61.73 -49)"/><path class="cls-3" d="M1173.42,178.11l-.5-3.42h-.19a11.44,11.44,0,0,1-9.1,4.11c-6.2,0-9.67-4.49-9.67-9.16,0-7.78,6.89-11.7,18.26-11.63v-.51c0-2-.82-5.37-6.25-5.37a16.24,16.24,0,0,0-8.28,2.28l-1.52-5.06a22.15,22.15,0,0,1,11.12-2.72c9.86,0,12.71,6.26,12.71,13v11.12a49,49,0,0,0,.44,7.4Zm-1-15.05c-5.5-.12-10.74,1.08-10.74,5.76a4.08,4.08,0,0,0,4.42,4.42,6.3,6.3,0,0,0,6.07-4.24,5.52,5.52,0,0,0,.25-1.7Z" transform="translate(-61.73 -49)"/><path class="cls-3" d="M987.18,227.56h-.07l-4.1,2.07-.73-3.21,5.45-2.69h3.55v22.41h-4.1Z" transform="translate(-61.73 -49)"/><path class="cls-3" d="M999,246.14v-2.59l2.65-2.44c5.28-4.9,7.76-7.59,7.79-10.55,0-2-1.06-3.76-4-3.76a8.13,8.13,0,0,0-4.79,1.86l-1.25-3a11.1,11.1,0,0,1,6.9-2.31c5,0,7.37,3.14,7.37,6.79,0,3.93-2.82,7.11-6.72,10.73l-2,1.68v.07h9.2v3.52Z" transform="translate(-61.73 -49)"/><path class="cls-3" d="M1045.19,236.66c-.14-3-.31-6.62-.27-9.75h-.11c-.76,2.82-1.72,6-2.76,8.89l-3.37,10.06h-3.28l-3.1-9.92c-.9-3-1.72-6.14-2.34-9h-.07c-.11,3-.24,6.72-.42,9.89l-.51,9.34h-4l1.55-23.23h5.59l3,9.34c.83,2.72,1.55,5.48,2.14,8.06h.1c.62-2.51,1.41-5.37,2.31-8.1l3.21-9.3h5.51l1.35,23.23h-4.14Z" transform="translate(-61.73 -49)"/><path class="cls-3" d="M1054.09,223.22a36.16,36.16,0,0,1,6.48-.49c3.1,0,5.37.66,6.86,1.9a6.55,6.55,0,0,1,2.27,5.14,7,7,0,0,1-2,5.27c-1.69,1.69-4.34,2.48-7.34,2.48a11.34,11.34,0,0,1-2.07-.14v8.76h-4.2Zm4.2,10.82a8.5,8.5,0,0,0,2.07.17c3.17,0,5.1-1.55,5.1-4.27s-1.79-4-4.72-4a12,12,0,0,0-2.45.21Z" transform="translate(-61.73 -49)"/><path class="cls-3" d="M1087.45,222.25a27.07,27.07,0,0,0,0,28h-3.1a23.41,23.41,0,0,1-4.17-13.93,24.05,24.05,0,0,1,4.17-14Z" transform="translate(-61.73 -49)"/><path class="cls-3" d="M1090.87,223.22a42.72,42.72,0,0,1,6.75-.49c4.35,0,7.35.9,9.48,2.69s3.62,4.59,3.62,8.55c0,4.14-1.41,7.24-3.62,9.24s-6,3.17-10.51,3.17a46.78,46.78,0,0,1-5.72-.31Zm4.24,19.68a16.24,16.24,0,0,0,2.34.1c5.52,0,8.79-3,8.79-8.89,0-5.14-2.93-8.07-8.24-8.07a14.06,14.06,0,0,0-2.89.24Z" transform="translate(-61.73 -49)"/><path class="cls-3" d="M1129.41,241.11c0,2,.07,3.65.13,5h-3.72l-.21-2.55h-.06a6.09,6.09,0,0,1-5.38,2.93c-3.07,0-5.86-1.83-5.86-7.31v-9.86h4.24v9.14c0,2.79.89,4.58,3.14,4.58a3.59,3.59,0,0,0,3.24-2.27,4.07,4.07,0,0,0,.24-1.31V229.35h4.24Z" transform="translate(-61.73 -49)"/><path class="cls-3" d="M1143.44,246.14l-.28-1.86h-.1a6.24,6.24,0,0,1-5,2.24,5,5,0,0,1-5.27-5c0-4.24,3.76-6.38,10-6.34v-.28c0-1.1-.45-2.93-3.41-2.93a8.94,8.94,0,0,0-4.52,1.24l-.82-2.75a12,12,0,0,1,6.06-1.49c5.38,0,6.93,3.42,6.93,7.07v6.07a27.33,27.33,0,0,0,.24,4Zm-.55-8.2c-3-.07-5.86.58-5.86,3.13a2.22,2.22,0,0,0,2.41,2.41,3.44,3.44,0,0,0,3.31-2.3,3.2,3.2,0,0,0,.14-.94Z" transform="translate(-61.73 -49)"/><path class="cls-3" d="M1151.5,221.67h4.28v24.47h-4.28Z" transform="translate(-61.73 -49)"/><path class="cls-3" d="M1184.32,245.45a14.67,14.67,0,0,1-6,1c-7.38,0-11.86-4.62-11.86-11.68,0-7.65,5.31-12.27,12.41-12.27a13.41,13.41,0,0,1,5.66,1l-.93,3.38a11.35,11.35,0,0,0-4.55-.9c-4.73,0-8.14,3-8.14,8.55,0,5.1,3,8.38,8.1,8.38a12,12,0,0,0,4.62-.86Z" transform="translate(-61.73 -49)"/><path class="cls-3" d="M1196.9,246.14l-.27-1.86h-.11a6.22,6.22,0,0,1-5,2.24,5,5,0,0,1-5.27-5c0-4.24,3.75-6.38,10-6.34v-.28c0-1.1-.45-2.93-3.42-2.93a8.93,8.93,0,0,0-4.51,1.24l-.83-2.75a12.06,12.06,0,0,1,6.07-1.49c5.38,0,6.93,3.42,6.93,7.07v6.07a27.33,27.33,0,0,0,.24,4Zm-.55-8.2c-3-.07-5.86.58-5.86,3.13a2.22,2.22,0,0,0,2.41,2.41,3.44,3.44,0,0,0,3.31-2.3,2.9,2.9,0,0,0,.14-.94Z" transform="translate(-61.73 -49)"/><path class="cls-3" d="M1205,234.35c0-1.93,0-3.55-.14-5h3.65l.18,2.48h.1a5.8,5.8,0,0,1,5.17-2.86,4.82,4.82,0,0,1,4.65,3.11h.07a6.43,6.43,0,0,1,2.07-2.11,5.64,5.64,0,0,1,3.38-1c2.79,0,5.62,1.9,5.62,7.28v9.89h-4.14v-9.27c0-2.8-1-4.45-3-4.45a3.23,3.23,0,0,0-3,2.24,6.22,6.22,0,0,0-.21,1.41v10.07h-4.13v-9.72c0-2.35-.94-4-2.9-4a3.3,3.3,0,0,0-3,2.41,3.52,3.52,0,0,0-.24,1.38v9.93H1205Z" transform="translate(-61.73 -49)"/><path class="cls-3" d="M1237.2,238.93c.1,3,2.48,4.35,5.17,4.35a12.61,12.61,0,0,0,4.65-.76l.62,2.93a15.68,15.68,0,0,1-5.86,1c-5.44,0-8.65-3.34-8.65-8.48,0-4.65,2.83-9,8.21-9s7.24,4.48,7.24,8.17a10.1,10.1,0,0,1-.14,1.79Zm7.38-3c0-1.55-.66-4.1-3.48-4.1-2.62,0-3.73,2.38-3.9,4.1Z" transform="translate(-61.73 -49)"/><path class="cls-3" d="M1252,234.76c0-2.27,0-3.89-.14-5.41h3.69l.14,3.21h.13a5,5,0,0,1,4.59-3.59,4.44,4.44,0,0,1,1,.11v4a5.82,5.82,0,0,0-1.24-.14,3.73,3.73,0,0,0-3.79,3.2,7.21,7.21,0,0,0-.14,1.31v8.69H1252Z" transform="translate(-61.73 -49)"/><path class="cls-3" d="M1273.4,246.14l-.28-1.86h-.1a6.26,6.26,0,0,1-5,2.24,5,5,0,0,1-5.27-5c0-4.24,3.76-6.38,10-6.34v-.28c0-1.1-.45-2.93-3.41-2.93a8.94,8.94,0,0,0-4.52,1.24l-.82-2.75a12,12,0,0,1,6.06-1.49c5.38,0,6.93,3.42,6.93,7.07v6.07a27.33,27.33,0,0,0,.24,4Zm-.56-8.2c-3-.07-5.86.58-5.86,3.13a2.22,2.22,0,0,0,2.42,2.41,3.44,3.44,0,0,0,3.31-2.3,3.18,3.18,0,0,0,.13-.94Z" transform="translate(-61.73 -49)"/><path class="cls-3" d="M1280.15,250.21a27.25,27.25,0,0,0,0-28h3.07a23.19,23.19,0,0,1,4.21,14,23.52,23.52,0,0,1-4.21,14Z" transform="translate(-61.73 -49)"/><path class="cls-3" d="M987.18,268.93h-.07L983,271l-.73-3.2,5.45-2.69h3.55v22.41h-4.1Z" transform="translate(-61.73 -49)"/><path class="cls-3" d="M999,287.51v-2.59l2.65-2.45c5.28-4.89,7.76-7.58,7.79-10.54,0-2-1.06-3.76-4-3.76a8.13,8.13,0,0,0-4.79,1.86l-1.25-3a11.1,11.1,0,0,1,6.9-2.31c5,0,7.37,3.14,7.37,6.79,0,3.93-2.82,7.1-6.72,10.72l-2,1.69V284h9.2v3.52Z" transform="translate(-61.73 -49)"/><path class="cls-3" d="M1045.19,278c-.14-3-.31-6.62-.27-9.76h-.11c-.76,2.83-1.72,6-2.76,8.89l-3.37,10.07h-3.28l-3.1-9.93c-.9-3-1.72-6.13-2.34-9h-.07c-.11,3-.24,6.72-.42,9.89l-.51,9.35h-4l1.55-23.24h5.59l3,9.34c.83,2.73,1.55,5.49,2.14,8.07h.1c.62-2.52,1.41-5.38,2.31-8.1l3.21-9.31h5.51l1.35,23.24h-4.14Z" transform="translate(-61.73 -49)"/><path class="cls-3" d="M1054.09,264.58a37.32,37.32,0,0,1,6.48-.48c3.1,0,5.37.66,6.86,1.9a6.53,6.53,0,0,1,2.27,5.13,7,7,0,0,1-2,5.28c-1.69,1.69-4.34,2.48-7.34,2.48a12.31,12.31,0,0,1-2.07-.14v8.76h-4.2Zm4.2,10.83a9,9,0,0,0,2.07.17c3.17,0,5.1-1.55,5.1-4.28s-1.79-4-4.72-4a11.27,11.27,0,0,0-2.45.21Z" transform="translate(-61.73 -49)"/><path class="cls-3" d="M1080.49,264.27h13.41v3.48h-9.17v6.42h8.55v3.48h-8.55v9.86h-4.24Z" transform="translate(-61.73 -49)"/><path class="cls-3" d="M1097.11,276.13c0-2.27,0-3.89-.14-5.41h3.69l.14,3.2h.13a5,5,0,0,1,4.59-3.58,4.46,4.46,0,0,1,1,.1v4a5.9,5.9,0,0,0-1.24-.14,3.74,3.74,0,0,0-3.8,3.21,8.29,8.29,0,0,0-.13,1.31v8.69h-4.24Z" transform="translate(-61.73 -49)"/><path class="cls-3" d="M1125,279c0,6.17-4.34,8.93-8.62,8.93-4.76,0-8.41-3.28-8.41-8.66s3.62-8.89,8.69-8.89S1125,273.86,1125,279Zm-12.65.17c0,3.24,1.58,5.69,4.17,5.69,2.41,0,4.1-2.38,4.1-5.76,0-2.62-1.17-5.62-4.07-5.62S1112.38,276.34,1112.38,279.13Z" transform="translate(-61.73 -49)"/><path class="cls-3" d="M1128.51,275.72c0-1.93,0-3.55-.14-5h3.73l.2,2.52h.11a6,6,0,0,1,5.34-2.9c2.93,0,6,1.9,6,7.2v10h-4.24V278c0-2.42-.89-4.24-3.2-4.24a3.55,3.55,0,0,0-3.31,2.48,4.25,4.25,0,0,0-.17,1.38v9.86h-4.28Z" transform="translate(-61.73 -49)"/><path class="cls-3" d="M1152.92,265.93v4.79h4v3.17h-4v7.41c0,2,.55,3.1,2.17,3.1a6.45,6.45,0,0,0,1.65-.2l.07,3.24a9.36,9.36,0,0,1-3.07.41,4.9,4.9,0,0,1-3.65-1.38c-.9-1-1.31-2.48-1.31-4.69v-7.89h-2.41v-3.17h2.41v-3.79Z" transform="translate(-61.73 -49)"/><g id="Camera-icon"><rect class="cls-9" x="710.47" y="75.92" width="143.63" height="143.63" rx="71.82"/><rect class="cls-10" x="725.39" y="91.94" width="111.59" height="111.59" rx="55.8"/><rect class="cls-11" x="754.67" y="120.11" width="51.93" height="51.93" rx="25.96"/></g></g><g id="_Small_info_bar_-Hardware" data-name=" Small info bar -Hardware"><rect class="cls-1" x="1306.46" y="6.99" width="597.14" height="287.23" rx="52.84"/><line class="cls-2" x1="1344.26" y1="67.46" x2="1510.55" y2="233.75"/><line class="cls-2" x1="1510.55" y1="67.46" x2="1344.26" y2="233.75"/><path class="cls-2" d="M1432.83,181.52v40.76h-7.44V181.52Z" transform="translate(-61.73 -49)"/><path class="cls-2" d="M1470.57,221.07c-1.76.91-5.63,1.82-10.53,1.82-12.94,0-20.8-8.11-20.8-20.5,0-13.43,9.31-21.53,21.77-21.53a23.53,23.53,0,0,1,9.92,1.81l-1.63,5.93a19.79,19.79,0,0,0-8-1.57c-8.28,0-14.27,5.2-14.27,15,0,8.95,5.26,14.7,14.21,14.7a21,21,0,0,0,8.11-1.51Z" transform="translate(-61.73 -49)"/><path class="cls-2" d="M1511.5,201.48c0,13.67-8.28,21.47-19.53,21.47-11.49,0-18.74-8.77-18.74-20.75,0-12.51,7.86-21.34,19.35-21.34C1504.49,180.86,1511.5,189.87,1511.5,201.48Zm-30.41.6c0,8.29,4.17,14.88,11.31,14.88s11.24-6.65,11.24-15.18c0-7.68-3.81-14.93-11.24-14.93S1481.09,193.68,1481.09,202.08Z" transform="translate(-61.73 -49)"/><path class="cls-2" d="M1517.91,222.28V181.52h8.47L1536.9,199a112.34,112.34,0,0,1,7,13.67h.12c-.49-5.45-.67-10.71-.67-16.94V181.52h6.9v40.76h-7.68l-10.65-17.9a139.77,139.77,0,0,1-7.31-14.09l-.19.06c.31,5.26.37,10.65.37,17.36v14.57Z" transform="translate(-61.73 -49)"/><path class="cls-3" d="M1631.4,136.75v17.07h18V136.75h7.78v42.6h-7.78V160.58h-18v18.77h-7.77v-42.6Z" transform="translate(-61.73 -49)"/><path class="cls-3" d="M1683.1,179.35l-.51-3.41h-.19a11.43,11.43,0,0,1-9.1,4.11c-6.19,0-9.67-4.49-9.67-9.17,0-7.77,6.89-11.69,18.27-11.63v-.5c0-2-.83-5.38-6.26-5.38a16.3,16.3,0,0,0-8.28,2.28l-1.52-5.06a22.21,22.21,0,0,1,11.13-2.71c9.86,0,12.7,6.25,12.7,13V172a50.19,50.19,0,0,0,.44,7.39Zm-1-15c-5.5-.13-10.75,1.07-10.75,5.75a4.08,4.08,0,0,0,4.43,4.42,6.29,6.29,0,0,0,6.06-4.23,5.6,5.6,0,0,0,.26-1.71Z" transform="translate(-61.73 -49)"/><path class="cls-3" d="M1697.89,158.49c0-4.17-.07-7.14-.26-9.92h6.76l.26,5.88h.25c1.52-4.36,5.12-6.57,8.41-6.57a8.6,8.6,0,0,1,1.83.18v7.34a10.54,10.54,0,0,0-2.28-.26,6.86,6.86,0,0,0-6.95,5.88,14.05,14.05,0,0,0-.25,2.4v15.93h-7.77Z" transform="translate(-61.73 -49)"/><path class="cls-3" d="M1748.19,134.48v36.21c0,3.16.13,6.57.26,8.66h-7l-.31-4.87h-.13a11.07,11.07,0,0,1-10,5.57c-7.33,0-13.14-6.26-13.14-15.74-.07-10.3,6.38-16.43,13.77-16.43,4.24,0,7.27,1.76,8.66,4h.13V134.48Zm-7.77,26.92a10.63,10.63,0,0,0-.19-2,6.81,6.81,0,0,0-6.7-5.5c-5,0-7.77,4.42-7.77,10.17s2.78,9.74,7.71,9.74a6.86,6.86,0,0,0,6.7-5.5,8.66,8.66,0,0,0,.25-2.28Z" transform="translate(-61.73 -49)"/><path class="cls-3" d="M1761.21,148.57l3.22,14c.7,3.28,1.39,6.63,2,10h.13c.63-3.35,1.64-6.76,2.53-9.92l4-14h6.32l3.85,13.65c1,3.6,1.77,6.95,2.47,10.3h.13c.5-3.35,1.2-6.7,2-10.3l3.41-13.65h7.65l-9.67,30.78H1782l-3.66-12.51A95.4,95.4,0,0,1,1776,157h-.13a80.21,80.21,0,0,1-2.34,9.86l-3.91,12.51h-7.27l-9.1-30.78Z" transform="translate(-61.73 -49)"/><path class="cls-3" d="M1820.81,179.35l-.51-3.41h-.19a11.43,11.43,0,0,1-9.1,4.11c-6.19,0-9.67-4.49-9.67-9.17,0-7.77,6.89-11.69,18.27-11.63v-.5c0-2-.82-5.38-6.26-5.38a16.3,16.3,0,0,0-8.28,2.28l-1.52-5.06a22.21,22.21,0,0,1,11.13-2.71c9.86,0,12.7,6.25,12.7,13V172a50.19,50.19,0,0,0,.44,7.39Zm-1-15c-5.5-.13-10.75,1.07-10.75,5.75a4.08,4.08,0,0,0,4.43,4.42,6.29,6.29,0,0,0,6.06-4.23,5.6,5.6,0,0,0,.26-1.71Z" transform="translate(-61.73 -49)"/><path class="cls-3" d="M1835.6,158.49c0-4.17-.07-7.14-.26-9.92h6.77l.25,5.88h.25c1.52-4.36,5.12-6.57,8.41-6.57a8.53,8.53,0,0,1,1.83.18v7.34a10.54,10.54,0,0,0-2.28-.26,6.87,6.87,0,0,0-7,5.88,14.05,14.05,0,0,0-.25,2.4v15.93h-7.77Z" transform="translate(-61.73 -49)"/><path class="cls-3" d="M1863,166.14c.19,5.56,4.55,8,9.48,8a23,23,0,0,0,8.54-1.39l1.13,5.38a29.06,29.06,0,0,1-10.74,1.89c-10,0-15.86-6.13-15.86-15.55,0-8.53,5.18-16.55,15-16.55s13.27,8.21,13.27,15a19.82,19.82,0,0,1-.25,3.29Zm13.53-5.43c.06-2.85-1.2-7.53-6.38-7.53-4.81,0-6.83,4.37-7.15,7.53Z" transform="translate(-61.73 -49)"/><path class="cls-3" d="M1642.06,238.61l-2.67,8.77h-5.84l9.93-31h7.22l10.06,31h-6.06l-2.81-8.77Zm8.87-4.28-2.44-7.63c-.6-1.88-1.1-4-1.56-5.79h-.09c-.46,1.79-.92,4-1.47,5.79l-2.39,7.63Z" transform="translate(-61.73 -49)"/><path class="cls-3" d="M1664.63,232.45c0-2.94-.1-5.33-.19-7.45h5l.28,3.45h.09a8.73,8.73,0,0,1,7.68-3.95c5.15,0,9.42,4.41,9.42,11.39,0,8.09-5.1,12-10.2,12a7.36,7.36,0,0,1-6.3-3h-.09v11.58h-5.65Zm5.65,5.56a5.75,5.75,0,0,0,.18,1.56,5.11,5.11,0,0,0,5,4c3.58,0,5.69-3,5.69-7.4,0-4-1.93-7.17-5.56-7.17a5.26,5.26,0,0,0-5,4.19,5,5,0,0,0-.23,1.42Z" transform="translate(-61.73 -49)"/><path class="cls-3" d="M1691.51,232.45c0-2.94-.09-5.33-.18-7.45h5l.28,3.45h.09a8.71,8.71,0,0,1,7.68-3.95c5.14,0,9.42,4.41,9.42,11.39,0,8.09-5.1,12-10.21,12a7.35,7.35,0,0,1-6.29-3h-.09v11.58h-5.66Zm5.66,5.56a5.75,5.75,0,0,0,.18,1.56,5.1,5.1,0,0,0,5,4c3.59,0,5.7-3,5.7-7.4,0-4-1.93-7.17-5.56-7.17a5.26,5.26,0,0,0-5,4.19,5,5,0,0,0-.23,1.42Z" transform="translate(-61.73 -49)"/><path class="cls-3" d="M1718.4,214.75h5.7v32.63h-5.7Z" transform="translate(-61.73 -49)"/><path class="cls-3" d="M1734.21,237.78c.14,4,3.31,5.79,6.9,5.79a16.87,16.87,0,0,0,6.2-1l.83,3.9a20.93,20.93,0,0,1-7.82,1.38c-7.26,0-11.53-4.45-11.53-11.3,0-6.21,3.77-12,10.94-12s9.65,6,9.65,10.89a13,13,0,0,1-.19,2.39Zm9.84-3.95c0-2.07-.88-5.47-4.65-5.47-3.49,0-5,3.17-5.19,5.47Z" transform="translate(-61.73 -49)"/><path class="cls-3" d="M1769.88,238.61l-2.67,8.77h-5.83l9.92-31h7.22l10.06,31h-6.06l-2.81-8.77Zm8.87-4.28-2.44-7.63c-.6-1.88-1.1-4-1.56-5.79h-.09c-.46,1.79-.92,4-1.47,5.79l-2.39,7.63Z" transform="translate(-61.73 -49)"/><path class="cls-3" d="M1800.49,222.61h-.09l-5.47,2.76-1-4.27,7.26-3.59H1806v29.87h-5.47Z" transform="translate(-61.73 -49)"/><path class="cls-3" d="M1828.71,247.38V239.8H1815.2v-3.68l12.18-18.61H1834v18h3.86v4.27H1834v7.58Zm0-11.85v-8.14c0-1.7,0-3.45.18-5.19h-.18c-.92,1.88-1.7,3.4-2.62,5.05l-5.47,8.18,0,.1Z" transform="translate(-61.73 -49)"/><g id="Hardware-icon"><rect class="cls-12" x="1371.33" y="91.1" width="111.04" height="111.04" rx="13.71"/><rect class="cls-13" x="1402.2" y="120.3" width="51.39" height="51.39" rx="1.11"/><line class="cls-14" x1="1407.83" y1="62.2" x2="1407.83" y2="86.54"/><line class="cls-14" x1="1441.3" y1="62.2" x2="1441.3" y2="86.54"/><line class="cls-14" x1="1410.88" y1="206.7" x2="1410.88" y2="231.04"/><line class="cls-14" x1="1444.34" y1="206.7" x2="1444.34" y2="231.04"/><line class="cls-14" x1="1366.75" y1="130.64" x2="1342.41" y2="130.66"/><line class="cls-14" x1="1366.78" y1="164.1" x2="1342.44" y2="164.12"/><line class="cls-14" x1="1509.05" y1="125.96" x2="1484.72" y2="125.98"/><line class="cls-14" x1="1509.08" y1="159.42" x2="1484.75" y2="159.44"/></g></g><g id="_Small_info_bar_-_Price" data-name=" Small info bar -  Price"><rect class="cls-1" x="5.75" y="711.77" width="597.14" height="287.23" rx="52.84"/><line class="cls-2" x1="43.54" y1="772.24" x2="209.83" y2="938.53"/><line class="cls-2" x1="209.83" y1="772.24" x2="43.54" y2="938.53"/><path class="cls-2" d="M132.12,886.3v40.76h-7.44V886.3Z" transform="translate(-61.73 -49)"/><path class="cls-2" d="M169.85,925.85c-1.75.91-5.62,1.81-10.52,1.81-12.94,0-20.8-8.1-20.8-20.5,0-13.42,9.31-21.52,21.77-21.52,4.9,0,8.4,1,9.91,1.81l-1.63,5.93a19.69,19.69,0,0,0-8-1.58c-8.29,0-14.27,5.21-14.27,15,0,9,5.26,14.7,14.21,14.7a20.74,20.74,0,0,0,8.1-1.52Z" transform="translate(-61.73 -49)"/><path class="cls-2" d="M210.79,906.26c0,13.66-8.28,21.46-19.53,21.46-11.49,0-18.75-8.76-18.75-20.74,0-12.51,7.86-21.34,19.35-21.34C203.78,885.64,210.79,894.65,210.79,906.26Zm-30.42.6c0,8.29,4.18,14.88,11.31,14.88s11.25-6.65,11.25-15.18c0-7.68-3.81-14.94-11.25-14.94S180.37,898.46,180.37,906.86Z" transform="translate(-61.73 -49)"/><path class="cls-2" d="M217.2,927.06V886.3h8.47l10.52,17.48a111.42,111.42,0,0,1,6.95,13.66h.12c-.48-5.44-.66-10.7-.66-16.93V886.3h6.89v40.76h-7.68l-10.64-17.9a142,142,0,0,1-7.32-14.09l-.18.06c.3,5.26.36,10.64.36,17.36v14.57Z" transform="translate(-61.73 -49)"/><path class="cls-3" d="M336,842.1a66.89,66.89,0,0,1,11.88-.89c5.69,0,9.86,1.2,12.58,3.48a12,12,0,0,1,4.17,9.42c0,4-1.26,7.39-3.67,9.67-3.09,3.09-8,4.55-13.46,4.55a22.93,22.93,0,0,1-3.79-.25v16H336Zm7.71,19.84a15.29,15.29,0,0,0,3.79.32c5.82,0,9.36-2.84,9.36-7.84,0-4.74-3.29-7.26-8.66-7.26a21.64,21.64,0,0,0-4.49.37Z" transform="translate(-61.73 -49)"/><path class="cls-3" d="M370.24,863.27c0-4.17-.06-7.14-.25-9.92h6.76l.26,5.88h.25c1.52-4.36,5.12-6.58,8.4-6.58a8.6,8.6,0,0,1,1.84.19v7.33a11.29,11.29,0,0,0-2.28-.25,6.85,6.85,0,0,0-7,5.88,13,13,0,0,0-.25,2.4v15.93h-7.78Z" transform="translate(-61.73 -49)"/><path class="cls-3" d="M401,844.75a4.36,4.36,0,1,1-4.36-4.23A4.12,4.12,0,0,1,401,844.75Zm-8.28,39.38V853.35h7.84v30.78Z" transform="translate(-61.73 -49)"/><path class="cls-3" d="M431.55,883.18a22.53,22.53,0,0,1-8.73,1.58c-9.6,0-15.86-6.13-15.86-15.67,0-9.23,6.32-16.44,17.13-16.44a19.43,19.43,0,0,1,7.52,1.46l-1.39,5.81a13.68,13.68,0,0,0-5.88-1.2c-5.94,0-9.48,4.36-9.42,10,0,6.32,4.11,9.92,9.42,9.92a15.2,15.2,0,0,0,6.13-1.2Z" transform="translate(-61.73 -49)"/><path class="cls-3" d="M442.23,870.92c.19,5.56,4.55,8,9.48,8a23,23,0,0,0,8.53-1.39l1.14,5.37a28.89,28.89,0,0,1-10.75,1.9c-10,0-15.86-6.13-15.86-15.55,0-8.53,5.18-16.56,15-16.56s13.27,8.22,13.27,15a18.86,18.86,0,0,1-.25,3.29Zm13.52-5.44c.07-2.84-1.2-7.52-6.38-7.52-4.8,0-6.83,4.36-7.14,7.52Z" transform="translate(-61.73 -49)"/><path class="cls-3" d="M342.07,956.11v-4.45a15.36,15.36,0,0,1-7.44-2l1.24-4.32a14.47,14.47,0,0,0,7.17,2c2.9,0,4.87-1.43,4.87-3.63s-1.61-3.41-5-4.65c-4.82-1.74-7.95-3.95-7.95-8.22,0-4,2.76-7,7.4-7.82v-4.5h3.77v4.27a14.9,14.9,0,0,1,6.34,1.52l-1.24,4.23A13.58,13.58,0,0,0,345,927c-3.22,0-4.37,1.65-4.37,3.21,0,1.89,1.66,2.94,5.57,4.51,5.14,1.93,7.44,4.41,7.44,8.5,0,3.91-2.71,7.35-7.77,8.18v4.73Z" transform="translate(-61.73 -49)"/><path class="cls-3" d="M367.35,927.39h-.09l-5.47,2.76-1-4.28,7.26-3.58h4.73v29.87h-5.47Z" transform="translate(-61.73 -49)"/><path class="cls-3" d="M381.51,957.72a74.81,74.81,0,0,0,3.08-12.13l5.93-.46a59.11,59.11,0,0,1-5.15,12.23Z" transform="translate(-61.73 -49)"/><path class="cls-3" d="M412.17,926.29a24.16,24.16,0,0,0-2.9.13c-6.25.74-9.28,4.6-10,8.74h.14a8.6,8.6,0,0,1,6.71-2.9c5.15,0,9.15,3.68,9.15,9.74a10.39,10.39,0,0,1-10.53,10.67c-7.26,0-11.26-5.52-11.26-12.87,0-5.75,2.07-10.43,5.19-13.42A17.24,17.24,0,0,1,409.27,922a16.55,16.55,0,0,1,2.85-.1Zm-2.67,16c0-3.45-1.88-5.93-5.19-5.93a5.46,5.46,0,0,0-4.87,3.08,3.85,3.85,0,0,0-.37,1.79c.09,4,2,7.17,5.61,7.17C407.62,948.44,409.5,945.91,409.5,942.33Z" transform="translate(-61.73 -49)"/><path class="cls-3" d="M418.19,944.49c0-3.73,2.16-6.25,5.61-7.77v-.14c-3.13-1.52-4.55-4-4.55-6.62,0-4.87,4.32-8.18,10-8.18,6.43,0,9.38,3.86,9.38,7.54,0,2.53-1.34,5.15-4.6,6.76v.13c3.26,1.24,5.7,3.82,5.7,7.54,0,5.33-4.51,8.92-10.89,8.92C421.82,952.67,418.19,948.67,418.19,944.49Zm15.76-.28c0-3-2.25-4.69-5.56-5.61-2.8.83-4.41,2.76-4.41,5.24a4.71,4.71,0,0,0,5,4.83C432,948.67,434,946.78,434,944.21Zm-9.33-14.48c0,2.44,2,3.91,4.88,4.69a4.85,4.85,0,0,0,3.72-4.5,4,4,0,0,0-4.28-4.23A4,4,0,0,0,424.62,929.73Z" transform="translate(-61.73 -49)"/><path class="cls-3" d="M445.54,948.12a15.62,15.62,0,0,0,3.12-.09,11.37,11.37,0,0,0,6.07-2.3,11.07,11.07,0,0,0,3.81-6.62l-.09-.05a8.27,8.27,0,0,1-6.52,2.67c-5.2,0-9.06-3.77-9.06-9.28a10.59,10.59,0,0,1,10.8-10.67c6.94,0,10.66,5.47,10.66,12.73,0,6.39-2.11,10.94-5.19,13.88a16.38,16.38,0,0,1-10.2,4.09,23,23,0,0,1-3.4.1Zm2.94-16c0,3.08,1.79,5.47,4.92,5.47a5.43,5.43,0,0,0,4.82-2.48,3.33,3.33,0,0,0,.32-1.61c0-4-1.47-7.53-5.14-7.53C450.55,926,448.48,928.49,448.48,932.12Z" transform="translate(-61.73 -49)"/><path class="cls-3" d="M468.24,949a3.44,3.44,0,0,1,3.5-3.63,3.63,3.63,0,0,1,0,7.26A3.45,3.45,0,0,1,468.24,949Z" transform="translate(-61.73 -49)"/><path class="cls-3" d="M481,948.12a15.61,15.61,0,0,0,3.12-.09,11.34,11.34,0,0,0,6.07-2.3,11.13,11.13,0,0,0,3.82-6.62l-.1-.05a8.25,8.25,0,0,1-6.52,2.67c-5.2,0-9.06-3.77-9.06-9.28a10.59,10.59,0,0,1,10.8-10.67c6.94,0,10.67,5.47,10.67,12.73,0,6.39-2.12,10.94-5.2,13.88a16.38,16.38,0,0,1-10.2,4.09,23,23,0,0,1-3.4.1Zm2.94-16c.05,3.08,1.79,5.47,4.92,5.47a5.41,5.41,0,0,0,4.82-2.48,3.31,3.31,0,0,0,.33-1.61c0-4-1.47-7.53-5.15-7.53C486,926,484,928.49,484,932.12Z" transform="translate(-61.73 -49)"/><path class="cls-3" d="M522.34,927H510.85l-.87,6a15.25,15.25,0,0,1,2.16-.14,13.33,13.33,0,0,1,7.26,1.93,8.59,8.59,0,0,1,3.9,7.59c0,5.7-4.73,10.34-12.08,10.34a17.23,17.23,0,0,1-7.91-1.75l1.15-4.27a15.12,15.12,0,0,0,6.57,1.56c3.31,0,6.48-1.88,6.48-5.47,0-3.4-2.52-5.65-8.5-5.65a26.63,26.63,0,0,0-4.09.27l2-15.07h15.44Z" transform="translate(-61.73 -49)"/><g id="Price-icon"><rect class="cls-15" x="55.5" y="782.6" width="143.63" height="143.63" rx="71.82"/><path class="cls-3" d="M211.49,890c4.38,0-1-11.67-6.73-15.71-6-4.2-12.46-4.35-18-4.49-4.52-.1-8.75-.21-13.46,2.25a20.53,20.53,0,0,0-9,9c-.34.67-4.72,9.85,0,17.95,3.64,6.23,10.52,8.15,13.47,9,6.58,1.84,8.59-.34,15.71,2.24,3.23,1.18,7.36,2.74,9,6.73a8.77,8.77,0,0,1,0,6.74c-2.52,5.2-11.16,5.34-15.71,4.49-1.41-.27-8.25-1.54-11.22-6.74-1.18-2.07,0-4.49-2.24-4.49H162.12c-1.26,0-.6,2.42,0,4.49a27.34,27.34,0,0,0,9,13.47c11.33,8.31,26.29,3.22,29.18,2.24,4.54-1.54,10-3.38,13.47-9,.58-.94,5.2-8.31,2.24-15.71-1.76-4.41-5.36-6.69-9-9-3.45-2.19-6.67-3.12-11.22-4.49a52.58,52.58,0,0,0-9-2.24c-3.36-.42-6.12-.29-9-2.25a6.26,6.26,0,0,1-2.25-2.24c-1.47-2.78-.18-6.82,2.25-9,1.66-1.48,3.5-1.75,6.73-2.24a14.85,14.85,0,0,1,6.73,0,12.54,12.54,0,0,1,6.74,4.48c1.6,2.18,2.67,4.49,4.48,4.49Z" transform="translate(-61.73 -49)"/><rect class="cls-3" x="120.58" y="811.78" width="13.47" height="85.28"/></g></g><g id="_Small_info_bar_-Display" data-name=" Small info bar -Display"><rect class="cls-1" x="657.88" y="704.67" width="597.14" height="287.23" rx="52.84"/><line class="cls-2" x1="695.68" y1="765.14" x2="861.97" y2="931.44"/><line class="cls-2" x1="861.97" y1="765.14" x2="695.68" y2="931.44"/><path class="cls-2" d="M784.25,879.2V920h-7.44V879.2Z" transform="translate(-61.73 -49)"/><path class="cls-2" d="M822,918.75c-1.75.91-5.62,1.81-10.52,1.81-12.94,0-20.8-8.1-20.8-20.5,0-13.42,9.31-21.52,21.77-21.52a23.57,23.57,0,0,1,9.92,1.81l-1.64,5.93a19.7,19.7,0,0,0-8-1.57c-8.28,0-14.27,5.2-14.27,15,0,8.95,5.26,14.7,14.21,14.7a20.74,20.74,0,0,0,8.1-1.52Z" transform="translate(-61.73 -49)"/><path class="cls-2" d="M862.92,899.16c0,13.66-8.28,21.46-19.53,21.46-11.49,0-18.75-8.76-18.75-20.74,0-12.51,7.87-21.34,19.36-21.34C855.91,878.54,862.92,887.55,862.92,899.16Zm-30.41.6c0,8.29,4.17,14.88,11.3,14.88s11.25-6.65,11.25-15.18c0-7.68-3.81-14.94-11.25-14.94S832.51,891.36,832.51,899.76Z" transform="translate(-61.73 -49)"/><path class="cls-2" d="M869.33,920V879.2h8.47l10.52,17.48a110.82,110.82,0,0,1,6.95,13.67h.12c-.48-5.45-.66-10.71-.66-16.94V879.2h6.89V920h-7.68l-10.64-17.9A142,142,0,0,1,876,888l-.18.06c.3,5.26.37,10.64.37,17.36V920Z" transform="translate(-61.73 -49)"/><path class="cls-3" d="M988.13,835a78.19,78.19,0,0,1,12.38-.89c8,0,13.47,1.64,17.38,4.93,4.11,3.35,6.64,8.41,6.64,15.67,0,7.59-2.59,13.28-6.64,16.94-4.23,3.86-11,5.82-19.27,5.82a85.93,85.93,0,0,1-10.49-.57Zm7.77,36.08a28.9,28.9,0,0,0,4.3.19c10.11.07,16.11-5.5,16.11-16.3.07-9.42-5.37-14.79-15.1-14.79a25,25,0,0,0-5.31.44Z" transform="translate(-61.73 -49)"/><path class="cls-3" d="M1039.44,837.66a4.36,4.36,0,1,1-4.36-4.23A4.11,4.11,0,0,1,1039.44,837.66ZM1031.16,877V846.26H1039V877Z" transform="translate(-61.73 -49)"/><path class="cls-3" d="M1047,869.89a17.28,17.28,0,0,0,7.9,2.22c3.42,0,4.93-1.4,4.93-3.42s-1.26-3.16-5-4.49c-6-2.08-8.54-5.37-8.47-9,0-5.44,4.49-9.67,11.63-9.67a18.18,18.18,0,0,1,8.15,1.83l-1.52,5.5a13.77,13.77,0,0,0-6.51-1.77c-2.78,0-4.29,1.33-4.29,3.23s1.45,2.9,5.37,4.29c5.56,2,8.15,4.87,8.21,9.42,0,5.56-4.36,9.61-12.51,9.61a19.87,19.87,0,0,1-9.35-2.15Z" transform="translate(-61.73 -49)"/><path class="cls-3" d="M1073.7,856.49c0-4-.13-7.33-.26-10.23h6.83l.38,4.74h.12a12,12,0,0,1,10.56-5.44c7.08,0,13,6.07,13,15.67,0,11.13-7,16.5-14,16.5-3.85,0-7.07-1.64-8.65-4.11h-.13v15.93h-7.77Zm7.77,7.65a8,8,0,0,0,.25,2.15,7,7,0,0,0,6.83,5.44c4.93,0,7.84-4.11,7.84-10.18,0-5.43-2.66-9.86-7.65-9.86a7.23,7.23,0,0,0-7,5.75,7,7,0,0,0-.32,2Z" transform="translate(-61.73 -49)"/><path class="cls-3" d="M1110.67,832.16h7.83V877h-7.83Z" transform="translate(-61.73 -49)"/><path class="cls-3" d="M1144.23,877l-.51-3.41h-.19a11.44,11.44,0,0,1-9.1,4.11c-6.19,0-9.67-4.49-9.67-9.16,0-7.78,6.89-11.7,18.26-11.63v-.51c0-2-.82-5.37-6.25-5.37a16.34,16.34,0,0,0-8.28,2.27l-1.52-5.05a22.2,22.2,0,0,1,11.13-2.72c9.85,0,12.7,6.26,12.7,13v11.12a50.09,50.09,0,0,0,.44,7.39Zm-1-15c-5.49-.12-10.74,1.08-10.74,5.75a4.08,4.08,0,0,0,4.42,4.43,6.29,6.29,0,0,0,6.07-4.24,5.52,5.52,0,0,0,.25-1.7Z" transform="translate(-61.73 -49)"/><path class="cls-3" d="M1163.25,846.26l5.56,16.49c.63,1.9,1.26,4.24,1.71,6h.19c.5-1.77,1.07-4,1.64-6.07l4.8-16.43h8.35l-7.72,21c-4.23,11.5-7.07,16.62-10.74,19.78a15.57,15.57,0,0,1-8.15,4l-1.77-6.57a13.33,13.33,0,0,0,4.55-2.15,13.54,13.54,0,0,0,4.23-4.87,3.05,3.05,0,0,0,.51-1.39,3.27,3.27,0,0,0-.44-1.51l-11.25-28.25Z" transform="translate(-61.73 -49)"/><path class="cls-3" d="M1004.18,907.7a22.38,22.38,0,0,0-2.89.14c-6.25.74-9.29,4.6-10,8.73h.14a8.59,8.59,0,0,1,6.71-2.89c5.15,0,9.14,3.67,9.14,9.74a10.37,10.37,0,0,1-10.52,10.66c-7.26,0-11.26-5.51-11.26-12.87,0-5.74,2.07-10.43,5.19-13.42a17.33,17.33,0,0,1,10.62-4.41,15.41,15.41,0,0,1,2.85-.09Zm-2.66,16c0-3.45-1.89-5.93-5.19-5.93a5.51,5.51,0,0,0-4.88,3.08,3.86,3.86,0,0,0-.36,1.79c.09,4,2,7.17,5.6,7.17C999.63,929.85,1001.52,927.33,1001.52,923.74Z" transform="translate(-61.73 -49)"/><path class="cls-3" d="M1011,930.45a3.44,3.44,0,0,1,3.49-3.63,3.63,3.63,0,0,1,0,7.26A3.44,3.44,0,0,1,1011,930.45Z" transform="translate(-61.73 -49)"/><path class="cls-3" d="M1042,903.7v3.63l-12.64,26.25h-6l12.59-25.1v-.09h-14.06V903.7Z" transform="translate(-61.73 -49)"/><path class="cls-3" d="M1062.69,904.94a3.17,3.17,0,1,1-3.17-3.07A3,3,0,0,1,1062.69,904.94Zm-6,28.64V911.19h5.7v22.39Z" transform="translate(-61.73 -49)"/><path class="cls-3" d="M1068.44,917.86c0-2.58,0-4.74-.18-6.67h5l.28,3.36h.13a8.07,8.07,0,0,1,7.13-3.86c3.9,0,8,2.53,8,9.6v13.29h-5.65V920.94c0-3.22-1.2-5.66-4.28-5.66a4.75,4.75,0,0,0-4.41,3.31,5.91,5.91,0,0,0-.23,1.84v13.15h-5.7Z" transform="translate(-61.73 -49)"/><path class="cls-3" d="M1111.18,932.89a16.33,16.33,0,0,1-6.34,1.15c-7,0-11.53-4.46-11.53-11.4,0-6.71,4.59-11.95,12.45-11.95a14.07,14.07,0,0,1,5.47,1.06l-1,4.22a10,10,0,0,0-4.28-.87c-4.32,0-6.89,3.17-6.84,7.26,0,4.6,3,7.22,6.84,7.22a11.21,11.21,0,0,0,4.46-.87Z" transform="translate(-61.73 -49)"/><path class="cls-3" d="M1115.37,901h5.7v13.32h.09a7.64,7.64,0,0,1,2.8-2.57,7.73,7.73,0,0,1,3.86-1c3.82,0,7.82,2.53,7.82,9.7v13.19H1130V921c0-3.26-1.19-5.7-4.32-5.7a4.63,4.63,0,0,0-4.59,4.87v13.38h-5.7Z" transform="translate(-61.73 -49)"/><path class="cls-3" d="M1145.66,924c.13,4,3.31,5.79,6.89,5.79a17,17,0,0,0,6.21-1l.82,3.91a21.07,21.07,0,0,1-7.81,1.38c-7.26,0-11.54-4.46-11.54-11.31,0-6.2,3.77-12,10.94-12s9.65,6,9.65,10.89a14.12,14.12,0,0,1-.18,2.39Zm9.83-4c0-2.07-.87-5.47-4.64-5.47-3.49,0-5,3.17-5.19,5.47Z" transform="translate(-61.73 -49)"/><path class="cls-3" d="M1165.1,928.38a12.63,12.63,0,0,0,5.74,1.61c2.49,0,3.59-1,3.59-2.48s-.92-2.3-3.68-3.26c-4.36-1.52-6.2-3.91-6.16-6.53,0-4,3.27-7,8.46-7A13.16,13.16,0,0,1,1179,912l-1.1,4a10.1,10.1,0,0,0-4.74-1.29c-2,0-3.12,1-3.12,2.35s1,2.11,3.9,3.12c4,1.47,5.93,3.54,6,6.85,0,4.05-3.17,7-9.1,7a14.41,14.41,0,0,1-6.8-1.57Z" transform="translate(-61.73 -49)"/><path class="cls-3" d="M987,956.88c-2.94,4.37-5.19,10.44-5.19,18.71A33.11,33.11,0,0,0,987,994.16h-4.13a31.17,31.17,0,0,1-5.57-18.57c0-9,2.95-15,5.57-18.71Z" transform="translate(-61.73 -49)"/><path class="cls-3" d="M990.31,988.73v-3.44l3.53-3.27c7-6.52,10.35-10.11,10.39-14.06,0-2.67-1.42-5-5.33-5a10.88,10.88,0,0,0-6.39,2.48l-1.65-4a14.82,14.82,0,0,1,9.19-3.08c6.62,0,9.83,4.19,9.83,9.06,0,5.24-3.76,9.47-9,14.29L998.3,984V984h12.27v4.69Z" transform="translate(-61.73 -49)"/><path class="cls-3" d="M1035.49,958.86v3.63l-12.64,26.24h-6l12.59-25.09v-.09H1015.4v-4.69Z" transform="translate(-61.73 -49)"/><path class="cls-3" d="M1060.12,958.86v3.63l-12.64,26.24h-6l12.59-25.09v-.09H1040v-4.69Z" transform="translate(-61.73 -49)"/><path class="cls-3" d="M1063.8,981.06c0-3.73,2.16-6.25,5.61-7.77v-.14c-3.13-1.51-4.55-4-4.55-6.62,0-4.87,4.32-8.18,10-8.18,6.43,0,9.38,3.86,9.38,7.54,0,2.53-1.34,5.15-4.6,6.76v.13c3.26,1.25,5.7,3.82,5.7,7.54,0,5.33-4.51,8.92-10.89,8.92C1067.43,989.24,1063.8,985.24,1063.8,981.06Zm15.76-.28c0-3-2.25-4.69-5.56-5.61-2.8.83-4.41,2.76-4.41,5.24a4.71,4.71,0,0,0,5,4.83C1077.59,985.24,1079.56,983.36,1079.56,980.78Zm-9.33-14.48c0,2.44,2,3.91,4.88,4.69a4.85,4.85,0,0,0,3.72-4.5,4,4,0,0,0-4.28-4.23A4,4,0,0,0,1070.23,966.3Z" transform="translate(-61.73 -49)"/><path class="cls-3" d="M1103.19,966.35l2.66,4.23c.74,1.19,1.38,2.3,2,3.45h.13c.65-1.25,1.29-2.39,1.93-3.54l2.49-4.14h6.16l-7.5,10.75,7.63,11.63h-6.39l-2.75-4.46c-.74-1.19-1.38-2.39-2-3.63h-.1c-.64,1.29-1.28,2.39-2,3.63l-2.57,4.46h-6.25l7.76-11.4-7.49-11Z" transform="translate(-61.73 -49)"/><path class="cls-3" d="M1139.45,964h-.09l-5.47,2.76-1-4.28,7.26-3.58h4.73v29.87h-5.47Z" transform="translate(-61.73 -49)"/><path class="cls-3" d="M1155.22,988.73v-3.44l3.54-3.27c7-6.52,10.34-10.11,10.38-14.06,0-2.67-1.42-5-5.33-5a10.88,10.88,0,0,0-6.39,2.48l-1.65-4a14.82,14.82,0,0,1,9.19-3.08c6.62,0,9.84,4.19,9.84,9.06,0,5.24-3.77,9.47-9,14.29l-2.62,2.25V984h12.28v4.69Z" transform="translate(-61.73 -49)"/><path class="cls-3" d="M1179.44,981.06c0-3.73,2.16-6.25,5.61-7.77v-.14c-3.13-1.51-4.55-4-4.55-6.62,0-4.87,4.32-8.18,10-8.18,6.43,0,9.38,3.86,9.38,7.54,0,2.53-1.34,5.15-4.6,6.76v.13c3.26,1.25,5.7,3.82,5.7,7.54,0,5.33-4.5,8.92-10.89,8.92C1183.07,989.24,1179.44,985.24,1179.44,981.06Zm15.76-.28c0-3-2.25-4.69-5.56-5.61-2.8.83-4.41,2.76-4.41,5.24a4.71,4.71,0,0,0,5,4.83C1193.23,985.24,1195.2,983.36,1195.2,980.78Zm-9.33-14.48c0,2.44,2,3.91,4.88,4.69a4.85,4.85,0,0,0,3.72-4.5,4,4,0,0,0-4.28-4.23A4,4,0,0,0,1185.87,966.3Z" transform="translate(-61.73 -49)"/><path class="cls-3" d="M1216.94,988.73v-7.58h-13.51v-3.68l12.18-18.61h6.67v18h3.86v4.27h-3.86v7.58Zm0-11.85v-8.14c0-1.7,0-3.45.19-5.19h-.19c-.91,1.88-1.7,3.4-2.61,5.05l-5.47,8.18,0,.1Z" transform="translate(-61.73 -49)"/><path class="cls-3" d="M1228.44,994.16c2.89-4.37,5.14-10.48,5.14-18.66s-2.25-14.21-5.14-18.62h4.09c2.66,3.68,5.6,9.65,5.6,18.66s-2.94,14.89-5.6,18.62Z" transform="translate(-61.73 -49)"/><g id="Display-icon"><rect class="cls-16" x="704.73" y="790.25" width="149.38" height="115.87" rx="12.96"/><path class="cls-17" d="M892.11,891.13v14.39a.26.26,0,0,0,.37.23l15-7.81a.62.62,0,0,0,.08-1.05l-14-10.34a.9.9,0,0,0-1.43.73Z" transform="translate(-61.73 -49)"/><path class="cls-17" d="M790.45,901.56l.18-14.38a.25.25,0,0,0-.37-.23l-15.07,7.62a.61.61,0,0,0-.09,1L789,906.12a.9.9,0,0,0,1.45-.7Z" transform="translate(-61.73 -49)"/><path class="cls-17" d="M840.91,851.31,834.14,864a.25.25,0,0,0,.22.37l16.88.16a.63.63,0,0,0,.57-.89L844.33,848a.9.9,0,0,0-1.61,0Z" transform="translate(-61.73 -49)"/><path class="cls-17" d="M847.81,931.05l-14.39-.3a.25.25,0,0,0-.23.37l7.5,15.12a.62.62,0,0,0,1,.11l10.63-13.77a.9.9,0,0,0-.7-1.45Z" transform="translate(-61.73 -49)"/></g></g><g id="_Small_info_bar_-_OS" data-name=" Small info bar - OS"><rect class="cls-1" x="11.49" y="361.3" width="597.14" height="287.23" rx="52.84"/><line class="cls-2" x1="49.28" y1="421.77" x2="215.58" y2="588.06"/><line class="cls-2" x1="215.58" y1="421.77" x2="49.28" y2="588.06"/><path class="cls-2" d="M137.86,535.83v40.76h-7.43V535.83Z" transform="translate(-61.73 -49)"/><path class="cls-2" d="M175.6,575.38c-1.76.91-5.63,1.82-10.52,1.82-13,0-20.81-8.11-20.81-20.5,0-13.43,9.32-21.53,21.77-21.53A23.53,23.53,0,0,1,176,537l-1.63,5.93a19.78,19.78,0,0,0-8-1.57c-8.29,0-14.28,5.2-14.28,15,0,8.95,5.27,14.7,14.21,14.7a21,21,0,0,0,8.11-1.51Z" transform="translate(-61.73 -49)"/><path class="cls-2" d="M216.54,555.79c0,13.67-8.29,21.47-19.54,21.47-11.49,0-18.74-8.77-18.74-20.74,0-12.52,7.86-21.35,19.35-21.35C209.52,535.17,216.54,544.18,216.54,555.79Zm-30.42.6c0,8.29,4.17,14.88,11.31,14.88s11.25-6.65,11.25-15.18c0-7.68-3.81-14.93-11.25-14.93S186.12,548,186.12,556.39Z" transform="translate(-61.73 -49)"/><path class="cls-2" d="M223,576.59V535.83h8.46l10.52,17.48a113.07,113.07,0,0,1,7,13.67H249c-.49-5.45-.67-10.71-.67-16.93V535.83h6.9v40.76h-7.68l-10.65-17.9a139.77,139.77,0,0,1-7.31-14.09l-.18.06c.3,5.26.36,10.65.36,17.36v14.57Z" transform="translate(-61.73 -49)"/><path class="cls-3" d="M379.53,511.92c0,14.28-8.66,22.44-20.41,22.44-12,0-19.6-9.17-19.6-21.68,0-13.08,8.22-22.31,20.23-22.31C372.2,490.37,379.53,499.79,379.53,511.92Zm-31.79.63c0,8.66,4.36,15.55,11.82,15.55s11.75-7,11.75-15.86c0-8-4-15.61-11.75-15.61S347.74,503.77,347.74,512.55Z" transform="translate(-61.73 -49)"/><path class="cls-3" d="M386,525.19a21.46,21.46,0,0,0,10.3,2.72c5,0,7.77-2.34,7.77-5.81,0-3.23-2.15-5.12-7.58-7.08-7-2.53-11.5-6.26-11.5-12.39,0-6.95,5.81-12.26,15-12.26a22.48,22.48,0,0,1,10.24,2.15l-1.9,6.26a17.94,17.94,0,0,0-8.47-2c-4.93,0-7.08,2.66-7.08,5.12,0,3.29,2.47,4.81,8.16,7,7.39,2.78,11,6.51,11,12.64,0,6.82-5.18,12.76-16.18,12.76-4.48,0-9.16-1.26-11.5-2.65Z" transform="translate(-61.73 -49)"/><path class="cls-3" d="M346.67,573.06A3.17,3.17,0,1,1,343.5,570,3,3,0,0,1,346.67,573.06Zm-6,28.64V579.31h5.7V601.7Z" transform="translate(-61.73 -49)"/><path class="cls-3" d="M380.13,585.89c0,10.38-6.3,16.31-14.84,16.31-8.74,0-14.25-6.66-14.25-15.76,0-9.52,6-16.23,14.71-16.23C374.8,570.21,380.13,577.06,380.13,585.89Zm-23.12.46c0,6.29,3.17,11.3,8.6,11.3s8.55-5,8.55-11.53c0-5.84-2.9-11.36-8.55-11.36S357,580,357,586.35Z" transform="translate(-61.73 -49)"/><path class="cls-3" d="M384.87,595.54a15.72,15.72,0,0,0,7.49,2c3.63,0,5.65-1.7,5.65-4.23,0-2.34-1.56-3.72-5.51-5.14-5.11-1.84-8.37-4.55-8.37-9,0-5.06,4.23-8.92,10.94-8.92a16.36,16.36,0,0,1,7.45,1.57l-1.38,4.55a13.14,13.14,0,0,0-6.16-1.47c-3.59,0-5.15,1.93-5.15,3.72,0,2.39,1.79,3.49,5.93,5.1,5.38,2,8,4.73,8,9.19,0,5-3.77,9.29-11.77,9.29a18.26,18.26,0,0,1-8.36-1.94Z" transform="translate(-61.73 -49)"/><path class="cls-3" d="M426,576.92h-.1l-5.46,2.76-1-4.27,7.26-3.59h4.74V601.7H426Z" transform="translate(-61.73 -49)"/><path class="cls-3" d="M454.18,601.7v-7.59H440.67v-3.67l12.17-18.62h6.67v18h3.86v4.27h-3.86v7.59Zm0-11.86V581.7c0-1.7,0-3.44.18-5.19h-.18c-.92,1.88-1.7,3.4-2.62,5.06l-5.47,8.18,0,.09Z" transform="translate(-61.73 -49)"/><g id="OS-icon"><rect class="cls-18" x="75.95" y="420.64" width="113.29" height="172.36" rx="9.98"/><path class="cls-19" d="M173.45,587.53l-57.24-27a.45.45,0,0,1-.06-.78l54.08-36.58" transform="translate(-61.73 -49)"/><path class="cls-19" d="M215.64,522.25l52.61,35.2a.44.44,0,0,1-.05.77l-58.9,28.19" transform="translate(-61.73 -49)"/></g></g><g id="_Small_info_bar_-Battery" data-name=" Small info bar -Battery"><rect class="cls-1" x="663.63" y="354.2" width="597.14" height="287.23" rx="52.84"/><line class="cls-2" x1="701.42" y1="414.67" x2="867.71" y2="580.97"/><line class="cls-2" x1="867.71" y1="414.67" x2="701.42" y2="580.97"/><path class="cls-2" d="M790,528.74v40.75h-7.44V528.74Z" transform="translate(-61.73 -49)"/><path class="cls-2" d="M827.73,568.29c-1.75.9-5.62,1.81-10.52,1.81-12.94,0-20.8-8.1-20.8-20.5,0-13.42,9.31-21.53,21.77-21.53a23.31,23.31,0,0,1,9.91,1.82l-1.63,5.92a20,20,0,0,0-8-1.57c-8.29,0-14.27,5.2-14.27,15,0,9,5.26,14.69,14.21,14.69a20.75,20.75,0,0,0,8.1-1.51Z" transform="translate(-61.73 -49)"/><path class="cls-2" d="M868.67,548.69c0,13.67-8.29,21.47-19.53,21.47-11.49,0-18.75-8.77-18.75-20.74,0-12.52,7.86-21.35,19.35-21.35C861.65,528.07,868.67,537.08,868.67,548.69Zm-30.42.61c0,8.28,4.17,14.87,11.31,14.87s11.25-6.65,11.25-15.17c0-7.68-3.81-14.94-11.25-14.94S838.25,540.89,838.25,549.3Z" transform="translate(-61.73 -49)"/><path class="cls-2" d="M875.08,569.49V528.74h8.46l10.53,17.47A112.25,112.25,0,0,1,901,559.88h.12c-.48-5.44-.66-10.7-.66-16.93V528.74h6.89v40.75h-7.68L889.05,551.6a144.21,144.21,0,0,1-7.32-14.09l-.18.06c.3,5.26.36,10.64.36,17.35v14.57Z" transform="translate(-61.73 -49)"/><path class="cls-3" d="M993.87,484.53a65.67,65.67,0,0,1,11.32-.88c5.75,0,9.29.7,12.19,2.72a9,9,0,0,1,4.43,8c0,3.92-2.47,7.52-7.08,9.23v.12c4.49,1.14,8.59,4.68,8.59,10.56a11.05,11.05,0,0,1-4.1,8.78c-3,2.66-8,4-15.8,4a75.92,75.92,0,0,1-9.55-.57Zm7.71,16.82h4c5.38,0,8.41-2.53,8.41-6.13,0-4-3-5.82-8-5.82a21.05,21.05,0,0,0-4.43.32Zm0,19.59a33.59,33.59,0,0,0,4.11.19c5,0,9.42-1.9,9.42-7.14,0-4.93-4.3-7-9.67-7h-3.86Z" transform="translate(-61.73 -49)"/><path class="cls-3" d="M1047.46,526.56l-.5-3.41h-.19a11.44,11.44,0,0,1-9.1,4.11c-6.2,0-9.67-4.49-9.67-9.17,0-7.77,6.89-11.69,18.26-11.62V506c0-2-.82-5.37-6.25-5.37a16.34,16.34,0,0,0-8.28,2.27l-1.52-5.05a22.18,22.18,0,0,1,11.12-2.72c9.86,0,12.71,6.26,12.71,13v11.12a48.76,48.76,0,0,0,.44,7.39Zm-1-15c-5.5-.12-10.74,1.08-10.74,5.75a4.08,4.08,0,0,0,4.42,4.43,6.31,6.31,0,0,0,6.07-4.24,5.56,5.56,0,0,0,.25-1.7Z" transform="translate(-61.73 -49)"/><path class="cls-3" d="M1070.78,487v8.78h7.4v5.82h-7.4v13.59c0,3.73,1,5.69,4,5.69a11.51,11.51,0,0,0,3-.38l.13,5.94a17.16,17.16,0,0,1-5.63.76,9,9,0,0,1-6.7-2.53c-1.64-1.77-2.4-4.55-2.4-8.6V501.6h-4.42v-5.82h4.42v-6.95Z" transform="translate(-61.73 -49)"/><path class="cls-3" d="M1093,487v8.78h7.39v5.82H1093v13.59c0,3.73,1,5.69,4,5.69a11.38,11.38,0,0,0,3-.38l.13,5.94a17.16,17.16,0,0,1-5.63.76,9,9,0,0,1-6.7-2.53c-1.64-1.77-2.4-4.55-2.4-8.6V501.6H1081v-5.82h4.42v-6.95Z" transform="translate(-61.73 -49)"/><path class="cls-3" d="M1111.36,513.35c.19,5.57,4.55,8,9.48,8a23.23,23.23,0,0,0,8.53-1.39l1.14,5.37a29.1,29.1,0,0,1-10.75,1.9c-10,0-15.86-6.13-15.86-15.55,0-8.53,5.18-16.56,15-16.56s13.28,8.22,13.28,15a18.51,18.51,0,0,1-.26,3.28Zm13.52-5.43c.07-2.84-1.2-7.52-6.38-7.52-4.8,0-6.83,4.36-7.14,7.52Z" transform="translate(-61.73 -49)"/><path class="cls-3" d="M1138.47,505.71c0-4.17-.06-7.14-.25-9.93H1145l.25,5.88h.26c1.51-4.36,5.12-6.57,8.4-6.57a7.91,7.91,0,0,1,1.83.19v7.33a10.51,10.51,0,0,0-2.27-.25,6.85,6.85,0,0,0-7,5.88,12.87,12.87,0,0,0-.26,2.4v15.92h-7.77Z" transform="translate(-61.73 -49)"/><path class="cls-3" d="M1167.22,495.78l5.57,16.5c.63,1.9,1.26,4.23,1.7,6h.19c.51-1.77,1.08-4,1.65-6.06l4.8-16.44h8.34l-7.71,21c-4.23,11.5-7.08,16.62-10.74,19.78a15.62,15.62,0,0,1-8.16,4l-1.77-6.57a13.33,13.33,0,0,0,4.55-2.15,13.55,13.55,0,0,0,4.24-4.87,3.18,3.18,0,0,0,.5-1.39,3.25,3.25,0,0,0-.44-1.51l-11.25-28.26Z" transform="translate(-61.73 -49)"/><path class="cls-3" d="M992.88,588.76a14.76,14.76,0,0,0,6.8,1.84c4.32,0,6.07-2.44,6-4.78,0-3.54-3.31-5.06-6.75-5.06h-2.62v-4.13h2.52c2.62,0,5.93-1.2,5.93-4.19,0-2-1.51-3.72-4.78-3.72a12,12,0,0,0-6.11,1.89l-1.29-4.09a16.09,16.09,0,0,1,8.6-2.3c6.16,0,9.33,3.4,9.33,7.31,0,3.12-1.84,5.69-5.52,7v.09a7.55,7.55,0,0,1,6.57,7.45c0,5.05-4.22,9.05-11.62,9.05a16.3,16.3,0,0,1-8.37-2.07Z" transform="translate(-61.73 -49)"/><path class="cls-3" d="M1014.76,600.16a74.66,74.66,0,0,0,3.08-12.14l5.93-.45a58.78,58.78,0,0,1-5.15,12.22Z" transform="translate(-61.73 -49)"/><path class="cls-3" d="M1045.41,568.72a22.38,22.38,0,0,0-2.89.14c-6.25.74-9.29,4.6-10,8.73h.14a8.59,8.59,0,0,1,6.71-2.89c5.14,0,9.14,3.67,9.14,9.74A10.37,10.37,0,0,1,1038,595.1c-7.26,0-11.26-5.51-11.26-12.87,0-5.74,2.07-10.43,5.19-13.42a17.33,17.33,0,0,1,10.62-4.41,15.41,15.41,0,0,1,2.85-.09Zm-2.66,16c0-3.45-1.89-5.93-5.2-5.93a5.51,5.51,0,0,0-4.87,3.08,3.85,3.85,0,0,0-.37,1.79c.1,4,2,7.17,5.61,7.17C1040.86,590.87,1042.75,588.35,1042.75,584.76Z" transform="translate(-61.73 -49)"/><path class="cls-3" d="M1051.44,586.92c0-3.72,2.16-6.25,5.6-7.77V579c-3.12-1.52-4.55-4-4.55-6.62,0-4.87,4.32-8.18,10-8.18,6.43,0,9.37,3.86,9.37,7.54,0,2.52-1.33,5.14-4.59,6.75v.14c3.26,1.24,5.69,3.81,5.69,7.54,0,5.33-4.5,8.91-10.89,8.91C1055.07,595.1,1051.44,591.1,1051.44,586.92Zm15.76-.27c0-3-2.25-4.69-5.56-5.61-2.81.83-4.41,2.76-4.41,5.24a4.69,4.69,0,0,0,5,4.82C1065.22,591.1,1067.2,589.22,1067.2,586.65Zm-9.33-14.48c0,2.43,2,3.91,4.87,4.69a4.86,4.86,0,0,0,3.72-4.51,4.3,4.3,0,0,0-8.59-.18Z" transform="translate(-61.73 -49)"/><path class="cls-3" d="M1097,564.72v3.63l-12.64,26.25h-6l12.6-25.1v-.09h-14.07v-4.69Z" transform="translate(-61.73 -49)"/><path class="cls-3" d="M1111.69,578.88c0-2.58,0-4.74-.18-6.67h4.87l.23,3.31h.14a7.74,7.74,0,0,1,6.89-3.81,6.46,6.46,0,0,1,6.21,4.14h.09a8.51,8.51,0,0,1,2.75-2.81,7.53,7.53,0,0,1,4.51-1.33c3.72,0,7.49,2.53,7.49,9.7V594.6h-5.51V582.23c0-3.72-1.29-5.93-4-5.93a4.32,4.32,0,0,0-4,3,8.52,8.52,0,0,0-.27,1.89V594.6h-5.52v-13c0-3.13-1.24-5.34-3.86-5.34a4.41,4.41,0,0,0-4,3.22,4.85,4.85,0,0,0-.32,1.84V594.6h-5.52Z" transform="translate(-61.73 -49)"/><path class="cls-3" d="M1157.1,585.82l-2.66,8.78h-5.84l9.93-31h7.21l10.07,31h-6.07l-2.8-8.78Zm8.87-4.28-2.43-7.62c-.6-1.89-1.11-4-1.57-5.8h-.09c-.46,1.8-.92,4-1.47,5.8l-2.39,7.62Z" transform="translate(-61.73 -49)"/><path class="cls-3" d="M1179.67,562h5.7v13.32h.09a7.64,7.64,0,0,1,2.8-2.57,7.74,7.74,0,0,1,3.87-1c3.81,0,7.81,2.53,7.81,9.7V594.6h-5.65V582.05c0-3.26-1.2-5.7-4.32-5.7a4.61,4.61,0,0,0-4.37,3.17,4.86,4.86,0,0,0-.23,1.7V594.6h-5.7Z" transform="translate(-61.73 -49)"/><g id="Baterry-icon"><rect class="cls-3" x="739.2" y="427.51" width="86.18" height="159.75"/><rect class="cls-3" x="762.32" y="404.38" width="42.04" height="37.84"/></g></g><g id="_Small_info_bar_-Storage" data-name=" Small info bar -Storage"><rect class="cls-1" x="1307.66" y="355.45" width="597.14" height="287.23" rx="52.84"/><line class="cls-2" x1="1345.45" y1="415.92" x2="1511.75" y2="582.21"/><line class="cls-2" x1="1511.75" y1="415.92" x2="1345.45" y2="582.21"/><path class="cls-2" d="M1434,530v40.76h-7.44V530Z" transform="translate(-61.73 -49)"/><path class="cls-2" d="M1471.76,569.53c-1.75.91-5.62,1.81-10.52,1.81-12.94,0-20.8-8.1-20.8-20.5,0-13.42,9.31-21.52,21.77-21.52,4.9,0,8.41,1,9.92,1.81l-1.64,5.93a19.69,19.69,0,0,0-8-1.58c-8.28,0-14.27,5.21-14.27,15,0,8.95,5.26,14.7,14.21,14.7a20.7,20.7,0,0,0,8.1-1.52Z" transform="translate(-61.73 -49)"/><path class="cls-2" d="M1512.7,549.94c0,13.66-8.28,21.46-19.53,21.46-11.49,0-18.74-8.76-18.74-20.74,0-12.51,7.86-21.34,19.35-21.34C1505.69,529.32,1512.7,538.33,1512.7,549.94Zm-30.41.6c0,8.29,4.17,14.88,11.3,14.88s11.25-6.65,11.25-15.18c0-7.68-3.81-14.94-11.25-14.94S1482.29,542.14,1482.29,550.54Z" transform="translate(-61.73 -49)"/><path class="cls-2" d="M1519.11,570.74V530h8.47l10.52,17.48a111.42,111.42,0,0,1,7,13.66h.13c-.49-5.44-.67-10.7-.67-16.93V530h6.89v40.76h-7.68l-10.64-17.9a142,142,0,0,1-7.32-14.09l-.18.06c.31,5.26.37,10.64.37,17.36v14.57Z" transform="translate(-61.73 -49)"/><path class="cls-3" d="M1624.64,519.34a21.54,21.54,0,0,0,10.3,2.72c5,0,7.77-2.34,7.77-5.82,0-3.22-2.15-5.12-7.58-7.08-7-2.52-11.51-6.25-11.51-12.38,0-7,5.82-12.27,15.05-12.27a22.56,22.56,0,0,1,10.23,2.15l-1.89,6.26a18.08,18.08,0,0,0-8.47-2c-4.93,0-7.08,2.65-7.08,5.12,0,3.28,2.47,4.8,8.15,7,7.4,2.78,11,6.51,11,12.64,0,6.83-5.18,12.77-16.18,12.77-4.49,0-9.16-1.26-11.5-2.65Z" transform="translate(-61.73 -49)"/><path class="cls-3" d="M1666,488.24V497h7.39v5.81H1666v13.59c0,3.73,1,5.69,4,5.69a11.38,11.38,0,0,0,3-.38l.13,5.94a17.16,17.16,0,0,1-5.63.76,9,9,0,0,1-6.69-2.53c-1.65-1.77-2.41-4.55-2.41-8.59V502.84H1654V497h4.42v-6.95Z" transform="translate(-61.73 -49)"/><path class="cls-3" d="M1708.12,512.13c0,11.32-8,16.37-15.8,16.37-8.72,0-15.42-6-15.42-15.86,0-10.11,6.64-16.31,15.93-16.31S1708.12,502.78,1708.12,512.13Zm-23.19.32c0,5.94,2.91,10.43,7.65,10.43,4.42,0,7.52-4.36,7.52-10.56,0-4.8-2.15-10.3-7.46-10.3C1687.14,502,1684.93,507.33,1684.93,512.45Z" transform="translate(-61.73 -49)"/><path class="cls-3" d="M1714.5,507c0-4.17-.06-7.14-.25-9.92H1721l.26,5.88h.25c1.52-4.36,5.12-6.58,8.41-6.58a8.57,8.57,0,0,1,1.83.19v7.33a11.29,11.29,0,0,0-2.28-.25,6.85,6.85,0,0,0-7,5.88,13.11,13.11,0,0,0-.25,2.4v15.93h-7.78Z" transform="translate(-61.73 -49)"/><path class="cls-3" d="M1753.75,527.81l-.5-3.41h-.19a11.44,11.44,0,0,1-9.1,4.1c-6.2,0-9.67-4.48-9.67-9.16,0-7.77,6.88-11.69,18.26-11.63v-.51c0-2-.82-5.37-6.26-5.37a16.3,16.3,0,0,0-8.28,2.28l-1.51-5.06a22.12,22.12,0,0,1,11.12-2.72c9.86,0,12.7,6.26,12.7,13v11.12a48.84,48.84,0,0,0,.45,7.4Zm-1-15c-5.5-.13-10.74,1.07-10.74,5.75a4.08,4.08,0,0,0,4.42,4.42,6.3,6.3,0,0,0,6.07-4.23,5.58,5.58,0,0,0,.25-1.71Z" transform="translate(-61.73 -49)"/><path class="cls-3" d="M1796.66,497c-.12,2.08-.25,4.61-.25,8.85v17.44c0,6.45-1.33,11.06-4.55,14S1784.21,541,1780,541c-3.92,0-8.09-.82-10.75-2.47l1.71-5.87a18.7,18.7,0,0,0,9,2.33c5,0,8.84-2.65,8.84-9.29v-2.65h-.12a10.39,10.39,0,0,1-9,4.55c-7.64,0-13.08-6.32-13.08-15,0-10.12,6.57-16.25,14-16.25,4.67,0,7.46,2.28,8.91,4.81h.13l.31-4.11Zm-8,12.32a7.51,7.51,0,0,0-.26-2.08,6.45,6.45,0,0,0-6.32-5c-4.36,0-7.58,3.8-7.58,10.05,0,5.25,2.66,9.48,7.52,9.48a6.63,6.63,0,0,0,6.32-4.67,13.38,13.38,0,0,0,.32-2.78Z" transform="translate(-61.73 -49)"/><path class="cls-3" d="M1810.25,514.6c.19,5.56,4.55,8,9.48,8a23,23,0,0,0,8.53-1.39l1.14,5.37a28.84,28.84,0,0,1-10.74,1.9c-10,0-15.87-6.13-15.87-15.55,0-8.53,5.19-16.56,15-16.56s13.27,8.22,13.27,15a19.92,19.92,0,0,1-.25,3.29Zm13.53-5.44c.06-2.84-1.2-7.52-6.39-7.52-4.8,0-6.82,4.36-7.14,7.52Z" transform="translate(-61.73 -49)"/><path class="cls-3" d="M1644.63,571h-.1l-5.46,2.74-1-4.25,7.26-3.56h4.74v29.67h-5.47Z" transform="translate(-61.73 -49)"/><path class="cls-3" d="M1660.39,595.58v-3.43l3.54-3.24c7-6.48,10.34-10,10.39-14,0-2.65-1.43-5-5.33-5a10.94,10.94,0,0,0-6.39,2.47l-1.66-4a14.84,14.84,0,0,1,9.2-3.06c6.61,0,9.83,4.15,9.83,9,0,5.2-3.77,9.4-9,14.19l-2.62,2.24v.09h12.27v4.66Z" transform="translate(-61.73 -49)"/><path class="cls-3" d="M1684.62,588c0-3.7,2.16-6.21,5.6-7.72v-.13c-3.12-1.51-4.55-4-4.55-6.58,0-4.83,4.32-8.12,10-8.12,6.43,0,9.37,3.83,9.37,7.48,0,2.52-1.33,5.12-4.59,6.71v.14c3.26,1.23,5.69,3.79,5.69,7.49,0,5.29-4.5,8.85-10.89,8.85C1688.25,596.08,1684.62,592.11,1684.62,588Zm15.76-.28c0-3-2.25-4.65-5.56-5.57-2.81.83-4.41,2.74-4.41,5.21a4.68,4.68,0,0,0,5,4.79C1698.4,592.11,1700.38,590.24,1700.38,587.68Zm-9.33-14.37c0,2.41,2,3.87,4.87,4.65a4.82,4.82,0,0,0,3.72-4.47,4.3,4.3,0,0,0-8.59-.18Z" transform="translate(-61.73 -49)"/><path class="cls-3" d="M1745.28,594.16a30.78,30.78,0,0,1-10,1.74c-5.24,0-9.19-1.33-12.13-4.11a15.15,15.15,0,0,1-4.32-11.32c0-9.72,7-16,17.23-16a20.6,20.6,0,0,1,8.23,1.46l-1.24,4.52a16.77,16.77,0,0,0-7-1.33c-6.62,0-11.26,3.88-11.26,11.05,0,7,4.32,11.13,10.75,11.13a10.77,10.77,0,0,0,4.27-.64V583h-5.46V578.6h10.93Z" transform="translate(-61.73 -49)"/><path class="cls-3" d="M1751.08,565.23a47,47,0,0,1,8.22-.64c4.19,0,6.76.5,8.87,2a6.48,6.48,0,0,1,3.22,5.75c0,2.83-1.79,5.43-5.15,6.66v.1c3.27.82,6.25,3.37,6.25,7.62a8,8,0,0,1-3,6.34c-2.21,1.92-5.84,2.88-11.49,2.88a55.56,55.56,0,0,1-6.94-.41Zm5.6,12.14h2.9c3.91,0,6.11-1.83,6.11-4.43,0-2.87-2.2-4.2-5.79-4.2a15.3,15.3,0,0,0-3.22.23Zm0,14.15a25.77,25.77,0,0,0,3,.13c3.63,0,6.85-1.37,6.85-5.15,0-3.56-3.13-5-7-5h-2.81Z" transform="translate(-61.73 -49)"/><path class="cls-3" d="M1644.46,637.67c0,2.32.08,4.24.16,5.84h-4.35l-.24-3H1640a7.07,7.07,0,0,1-6.27,3.4c-3.58,0-6.84-2.12-6.84-8.47V624.05h5v10.59c0,3.23,1,5.31,3.66,5.31a4.16,4.16,0,0,0,3.78-2.64,4.41,4.41,0,0,0,.28-1.51V624.05h5Z" transform="translate(-61.73 -49)"/><path class="cls-3" d="M1649.8,629.84c0-2.23,0-4.11-.16-5.79H1654l.24,2.92h.12a7.07,7.07,0,0,1,6.23-3.36c3.42,0,7,2.2,7,8.35v11.55h-4.94v-11c0-2.8-1-4.91-3.75-4.91a4.15,4.15,0,0,0-3.86,2.87,5,5,0,0,0-.2,1.6v11.43h-5Z" transform="translate(-61.73 -49)"/><path class="cls-3" d="M1676.31,635.16c.12,3.51,2.89,5,6,5a14.81,14.81,0,0,0,5.43-.88l.73,3.4a18.58,18.58,0,0,1-6.84,1.2c-6.36,0-10.1-3.88-10.1-9.83,0-5.39,3.3-10.47,9.57-10.47s8.45,5.19,8.45,9.47a12.11,12.11,0,0,1-.16,2.08Zm8.61-3.44c0-1.8-.77-4.75-4.07-4.75-3,0-4.34,2.75-4.54,4.75Z" transform="translate(-61.73 -49)"/><path class="cls-3" d="M1696.54,624.05l2.33,3.68c.64,1,1.21,2,1.77,3h.12c.56-1.08,1.13-2.07,1.69-3.07l2.17-3.6H1710l-6.55,9.35,6.67,10.11h-5.59l-2.41-3.88c-.65-1-1.21-2.08-1.77-3.16h-.08c-.57,1.12-1.13,2.08-1.77,3.16l-2.25,3.88h-5.47l6.79-9.91-6.55-9.55Z" transform="translate(-61.73 -49)"/><path class="cls-3" d="M1713.11,630.52c0-2.55-.08-4.63-.16-6.47h4.34l.24,3h.08a7.64,7.64,0,0,1,6.72-3.44c4.5,0,8.24,3.84,8.24,9.91,0,7-4.46,10.43-8.93,10.43a6.46,6.46,0,0,1-5.51-2.6h-.08v10.07h-4.94Zm4.94,4.84a5,5,0,0,0,.16,1.35,4.48,4.48,0,0,0,4.35,3.44c3.14,0,5-2.6,5-6.43,0-3.44-1.69-6.23-4.87-6.23a4.61,4.61,0,0,0-4.43,3.63,4.46,4.46,0,0,0-.2,1.24Z" transform="translate(-61.73 -49)"/><path class="cls-3" d="M1747.65,643.51l-.32-2.16h-.12a7.28,7.28,0,0,1-5.79,2.6,5.8,5.8,0,0,1-6.15-5.8c0-4.91,4.38-7.39,11.62-7.35v-.32c0-1.28-.52-3.39-4-3.39a10.43,10.43,0,0,0-5.27,1.44l-1-3.2a14.2,14.2,0,0,1,7.08-1.72c6.28,0,8.09,4,8.09,8.19v7a31.24,31.24,0,0,0,.28,4.68ZM1747,634c-3.5-.08-6.84.68-6.84,3.63a2.59,2.59,0,0,0,2.82,2.8,4,4,0,0,0,3.86-2.68,3.54,3.54,0,0,0,.16-1.08Z" transform="translate(-61.73 -49)"/><path class="cls-3" d="M1757.06,629.84c0-2.23,0-4.11-.16-5.79h4.35l.24,2.92h.12a7.07,7.07,0,0,1,6.23-3.36c3.42,0,7,2.2,7,8.35v11.55h-5v-11c0-2.8-1-4.91-3.74-4.91a4.15,4.15,0,0,0-3.86,2.87,5,5,0,0,0-.2,1.6v11.43h-5Z" transform="translate(-61.73 -49)"/><path class="cls-3" d="M1798.13,615.14V638c0,2,.08,4.16.16,5.48h-4.43l-.2-3.08h-.08a7,7,0,0,1-6.39,3.52c-4.67,0-8.37-4-8.37-10,0-6.51,4.06-10.39,8.77-10.39,2.69,0,4.63,1.12,5.51,2.56h.08v-11Zm-5,17a6.93,6.93,0,0,0-.12-1.28,4.32,4.32,0,0,0-4.26-3.47c-3.18,0-5,2.79-5,6.43s1.77,6.15,4.91,6.15a4.35,4.35,0,0,0,4.26-3.48,5.36,5.36,0,0,0,.16-1.43Z" transform="translate(-61.73 -49)"/><path class="cls-3" d="M1814.46,643.51l-.33-2.16H1814a7.28,7.28,0,0,1-5.79,2.6,5.8,5.8,0,0,1-6.15-5.8c0-4.91,4.38-7.39,11.62-7.35v-.32c0-1.28-.52-3.39-4-3.39a10.43,10.43,0,0,0-5.27,1.44l-1-3.2a14.2,14.2,0,0,1,7.08-1.72c6.28,0,8.09,4,8.09,8.19v7a31.24,31.24,0,0,0,.28,4.68Zm-.65-9.51c-3.5-.08-6.84.68-6.84,3.63a2.59,2.59,0,0,0,2.82,2.8,4,4,0,0,0,3.86-2.68,3.54,3.54,0,0,0,.16-1.08Z" transform="translate(-61.73 -49)"/><path class="cls-3" d="M1823.7,643.51c.08-1.32.16-3.48.16-5.48V615.14h5v11.59h.08a7.11,7.11,0,0,1,6.28-3.12c4.78,0,8.2,4,8.16,9.87,0,7-4.46,10.47-8.89,10.47a6.75,6.75,0,0,1-6.19-3.36h-.08l-.24,2.92Zm5.11-8a5.27,5.27,0,0,0,.12,1.15,4.57,4.57,0,0,0,4.39,3.44c3.09,0,5-2.48,5-6.39,0-3.44-1.64-6.23-4.94-6.23A4.64,4.64,0,0,0,1829,631a5.88,5.88,0,0,0-.16,1.28Z" transform="translate(-61.73 -49)"/><path class="cls-3" d="M1847.39,615.14h5v28.37h-5Z" transform="translate(-61.73 -49)"/><path class="cls-3" d="M1861.23,635.16c.12,3.51,2.89,5,6,5a14.81,14.81,0,0,0,5.43-.88l.72,3.4a18.52,18.52,0,0,1-6.83,1.2c-6.36,0-10.1-3.88-10.1-9.83,0-5.39,3.3-10.47,9.57-10.47s8.45,5.19,8.45,9.47a12.11,12.11,0,0,1-.16,2.08Zm8.6-3.44c0-1.8-.76-4.75-4.06-4.75-3.06,0-4.34,2.75-4.54,4.75Z" transform="translate(-61.73 -49)"/><g id="Storage-icon"><rect class="cls-3" x="1353.29" y="449.37" width="176.04" height="35.21"/><rect class="cls-2" x="1364.73" y="457.29" width="17.6" height="17.6" rx="8.8"/><rect class="cls-3" x="1352.4" y="491.35" width="176.04" height="35.21"/><rect class="cls-2" x="1363.84" y="499.27" width="17.6" height="17.6" rx="8.8"/><rect class="cls-3" x="1351.72" y="532.18" width="176.04" height="35.21"/><rect class="cls-2" x="1363.17" y="540.1" width="17.6" height="17.6" rx="8.8"/></g></g></g></svg>