<svg id="Layer_2" data-name="Layer 2" xmlns="http://www.w3.org/2000/svg" viewBox="0 0 1910.55 1004.75"><defs><style>.cls-1,.cls-10,.cls-12,.cls-13,.cls-15,.cls-16,.cls-18,.cls-19,.cls-2,.cls-4,.cls-9{fill:#fff;}.cls-1,.cls-10,.cls-11,.cls-12,.cls-13,.cls-14,.cls-15,.cls-16,.cls-17,.cls-18,.cls-19,.cls-4,.cls-5,.cls-6,.cls-7,.cls-8,.cls-9{stroke:#231f20;stroke-miterlimit:10;}.cls-1{stroke-width:11.49px;}.cls-11,.cls-17,.cls-3,.cls-6,.cls-7,.cls-8{fill:#231f20;}.cls-4,.cls-5{stroke-width:7.18px;}.cls-14,.cls-5{fill:none;}.cls-6{stroke-width:3.49px;}.cls-7{stroke-width:3.59px;}.cls-8{stroke-width:3.77px;}.cls-9{stroke-width:13.26px;}.cls-10{stroke-width:10.3px;}.cls-11{stroke-width:4.79px;}.cls-12{stroke-width:9.13px;}.cls-13{stroke-width:15.05px;}.cls-14{stroke-width:18.25px;}.cls-15{stroke-width:11.22px;}.cls-16{stroke-width:8.38px;}.cls-17{stroke-width:4.23px;}.cls-18{stroke-width:17.6px;}.cls-19{stroke-width:23.24px;}</style></defs><g id="Specs-of-products"><g id="_Small_info_bar_-_release_date" data-name=" Small info bar - release date"><rect class="cls-1" x="10.29" y="12.84" width="597.14" height="287.23" rx="52.84"/><line class="cls-2" x1="48.09" y1="73.31" x2="214.38" y2="239.6"/><line class="cls-2" x1="214.38" y1="73.31" x2="48.09" y2="239.6"/><path class="cls-2" d="M137.91,183.38v40.76h-7.43V183.38Z" transform="translate(-62.98 -45.01)"/><path class="cls-2" d="M175.65,222.93c-1.76.9-5.63,1.81-10.53,1.81-12.94,0-20.8-8.1-20.8-20.5,0-13.42,9.32-21.53,21.77-21.53a23.33,23.33,0,0,1,9.92,1.82l-1.63,5.92a20,20,0,0,0-8-1.57c-8.29,0-14.28,5.2-14.28,15,0,9,5.26,14.69,14.21,14.69a20.8,20.8,0,0,0,8.11-1.51Z" transform="translate(-62.98 -45.01)"/><path class="cls-2" d="M216.59,203.33c0,13.67-8.29,21.47-19.54,21.47-11.49,0-18.74-8.77-18.74-20.74,0-12.52,7.86-21.35,19.35-21.35C209.57,182.71,216.59,191.72,216.59,203.33Zm-30.42.61c0,8.28,4.17,14.88,11.31,14.88s11.24-6.66,11.24-15.18c0-7.68-3.81-14.94-11.24-14.94S186.17,195.53,186.17,203.94Z" transform="translate(-62.98 -45.01)"/><path class="cls-2" d="M223,224.14V183.38h8.47L242,200.86a113,113,0,0,1,7,13.66h.12c-.49-5.44-.67-10.7-.67-16.93V183.38h6.9v40.76h-7.68L237,206.24a141.94,141.94,0,0,1-7.31-14.09l-.18.06c.3,5.26.36,10.64.36,17.35v14.58Z" transform="translate(-62.98 -45.01)"/><path class="cls-3" d="M328.7,139.18a74.59,74.59,0,0,1,11.76-.88c6.13,0,10.3,1,13.15,3.41a10.8,10.8,0,0,1,3.66,8.53,11.36,11.36,0,0,1-7.71,10.68v.19c3,1.14,4.87,4.11,5.94,8.22,1.33,5.31,2.47,10.24,3.35,11.88h-8c-.63-1.26-1.64-4.74-2.84-10.05-1.2-5.56-3.22-7.33-7.65-7.46h-3.92v17.51H328.7ZM336.41,158H341c5.24,0,8.53-2.79,8.53-7,0-4.68-3.29-6.83-8.34-6.83a22.36,22.36,0,0,0-4.81.38Z" transform="translate(-62.98 -45.01)"/><path class="cls-3" d="M370,168c.19,5.56,4.56,8,9.49,8a23,23,0,0,0,8.53-1.4l1.14,5.38a29.16,29.16,0,0,1-10.75,1.89c-10,0-15.86-6.13-15.86-15.54,0-8.54,5.18-16.56,15-16.56s13.27,8.21,13.27,15a18.73,18.73,0,0,1-.25,3.28Zm13.53-5.43c.06-2.85-1.2-7.52-6.38-7.52-4.81,0-6.83,4.36-7.15,7.52Z" transform="translate(-62.98 -45.01)"/><path class="cls-3" d="M397.15,136.34H405v44.87h-7.83Z" transform="translate(-62.98 -45.01)"/><path class="cls-3" d="M418.89,168c.19,5.56,4.55,8,9.48,8a23,23,0,0,0,8.53-1.4L438,180a29.12,29.12,0,0,1-10.75,1.89c-10,0-15.86-6.13-15.86-15.54,0-8.54,5.18-16.56,15-16.56s13.27,8.21,13.27,15a18.73,18.73,0,0,1-.25,3.28Zm13.52-5.43c.07-2.85-1.2-7.52-6.38-7.52-4.8,0-6.83,4.36-7.14,7.52Z" transform="translate(-62.98 -45.01)"/><path class="cls-3" d="M463.32,181.21l-.51-3.41h-.19a11.44,11.44,0,0,1-9.1,4.11c-6.2,0-9.67-4.49-9.67-9.17,0-7.77,6.89-11.69,18.26-11.63v-.5c0-2-.82-5.38-6.25-5.38a16.24,16.24,0,0,0-8.28,2.28l-1.52-5.06a22.21,22.21,0,0,1,11.13-2.71c9.85,0,12.7,6.25,12.7,12.95v11.13a48.76,48.76,0,0,0,.44,7.39Zm-1-15c-5.49-.13-10.74,1.07-10.74,5.75a4.08,4.08,0,0,0,4.42,4.42,6.29,6.29,0,0,0,6.07-4.23,5.58,5.58,0,0,0,.25-1.71Z" transform="translate(-62.98 -45.01)"/><path class="cls-3" d="M477.72,174.07a17.4,17.4,0,0,0,7.9,2.21c3.42,0,4.93-1.39,4.93-3.41s-1.26-3.16-5.05-4.49c-6-2.08-8.53-5.37-8.47-9,0-5.44,4.49-9.67,11.63-9.67a18,18,0,0,1,8.15,1.83l-1.52,5.5a13.77,13.77,0,0,0-6.51-1.77c-2.78,0-4.29,1.33-4.29,3.22s1.45,2.91,5.37,4.3c5.56,2,8.15,4.87,8.21,9.42,0,5.56-4.36,9.6-12.51,9.6a19.75,19.75,0,0,1-9.35-2.15Z" transform="translate(-62.98 -45.01)"/><path class="cls-3" d="M510,168c.19,5.56,4.55,8,9.48,8a23,23,0,0,0,8.53-1.4l1.14,5.38a29.12,29.12,0,0,1-10.75,1.89c-10,0-15.86-6.13-15.86-15.54,0-8.54,5.18-16.56,15-16.56s13.27,8.21,13.27,15a18.73,18.73,0,0,1-.25,3.28Zm13.52-5.43c.06-2.85-1.2-7.52-6.38-7.52-4.81,0-6.83,4.36-7.14,7.52Z" transform="translate(-62.98 -45.01)"/><path class="cls-3" d="M565.45,136.34v36.21c0,3.16.12,6.58.25,8.66h-7l-.31-4.87h-.13a11.07,11.07,0,0,1-10,5.57c-7.33,0-13.14-6.26-13.14-15.74-.07-10.3,6.38-16.43,13.78-16.43,4.23,0,7.26,1.77,8.65,4h.13V136.34Zm-7.78,26.92a10.63,10.63,0,0,0-.19-2,6.81,6.81,0,0,0-6.7-5.5c-5,0-7.77,4.42-7.77,10.18s2.78,9.73,7.71,9.73a6.86,6.86,0,0,0,6.7-5.5,8.59,8.59,0,0,0,.25-2.27Z" transform="translate(-62.98 -45.01)"/><path class="cls-3" d="M331.42,249.24v-31h6.43l8,13.28a84.1,84.1,0,0,1,5.28,10.39h.1c-.37-4.14-.51-8.14-.51-12.87v-10.8H356v31h-5.84L342,235.64a110.18,110.18,0,0,1-5.56-10.71l-.14,0c.23,4,.28,8.09.28,13.19v11.07Z" transform="translate(-62.98 -45.01)"/><path class="cls-3" d="M383.54,237.85c0,8.22-5.79,11.9-11.49,11.9-6.35,0-11.22-4.37-11.22-11.54,0-7.35,4.83-11.85,11.58-11.85S383.54,231,383.54,237.85Zm-16.87.23c0,4.32,2.11,7.58,5.56,7.58,3.22,0,5.47-3.17,5.47-7.68,0-3.49-1.56-7.49-5.42-7.49S366.67,234.35,366.67,238.08Z" transform="translate(-62.98 -45.01)"/><path class="cls-3" d="M391.4,226.86,395,238.21c.64,2,1.1,3.77,1.52,5.61h.13c.42-1.84.92-3.58,1.52-5.61l3.54-11.35h6l-8.55,22.38H393.6l-8.32-22.38Z" transform="translate(-62.98 -45.01)"/><path class="cls-3" d="M419.62,249.24V245.8l3.54-3.27c7-6.52,10.34-10.11,10.38-14.06,0-2.67-1.42-5-5.33-5a10.88,10.88,0,0,0-6.39,2.48l-1.65-4a14.82,14.82,0,0,1,9.19-3.08c6.62,0,9.84,4.19,9.84,9.06,0,5.24-3.77,9.47-9,14.29l-2.62,2.25v.1h12.27v4.68Z" transform="translate(-62.98 -45.01)"/><path class="cls-3" d="M442.65,254.81a74.93,74.93,0,0,0,3.08-12.14l5.92-.46a58.36,58.36,0,0,1-5.14,12.23Z" transform="translate(-62.98 -45.01)"/><path class="cls-3" d="M464.61,249.24V245.8l3.54-3.27c7-6.52,10.34-10.11,10.39-14.06,0-2.67-1.42-5-5.33-5a10.88,10.88,0,0,0-6.39,2.48l-1.65-4a14.82,14.82,0,0,1,9.19-3.08c6.62,0,9.83,4.19,9.83,9.06,0,5.24-3.76,9.47-9,14.29l-2.62,2.25v.1h12.27v4.68Z" transform="translate(-62.98 -45.01)"/><path class="cls-3" d="M510.35,234.12c0,9.61-3.77,15.63-10.9,15.63-6.89,0-10.57-6.25-10.61-15.35,0-9.29,4-15.54,10.94-15.54C507,218.86,510.35,225.3,510.35,234.12Zm-15.81.28c-.05,7.26,2,11,5.1,11,3.31,0,5.05-4,5.05-11.21,0-6.95-1.65-11-5.05-11C496.6,223.19,494.49,226.91,494.54,234.4Z" transform="translate(-62.98 -45.01)"/><path class="cls-3" d="M513.89,249.24V245.8l3.54-3.27c7-6.52,10.34-10.11,10.38-14.06,0-2.67-1.42-5-5.33-5a10.88,10.88,0,0,0-6.39,2.48l-1.65-4a14.82,14.82,0,0,1,9.19-3.08c6.62,0,9.84,4.19,9.84,9.06,0,5.24-3.77,9.47-9,14.29l-2.62,2.25v.1h12.28v4.68Z" transform="translate(-62.98 -45.01)"/><path class="cls-3" d="M559.62,234.12c0,9.61-3.77,15.63-10.89,15.63-6.9,0-10.57-6.25-10.62-15.35,0-9.29,3.95-15.54,10.94-15.54C556.26,218.86,559.62,225.3,559.62,234.12Zm-15.81.28c0,7.26,2,11,5.1,11,3.31,0,5.06-4,5.06-11.21,0-6.95-1.66-11-5.06-11C545.88,223.19,543.76,226.91,543.81,234.4Z" transform="translate(-62.98 -45.01)"/><g id="Clender-icon"><rect class="cls-4" x="58.37" y="97.46" width="146.51" height="119.22" rx="17.98"/><line class="cls-5" x1="58.37" y1="133.37" x2="204.88" y2="133.37"/><rect class="cls-6" x="88.53" y="86.24" width="8.62" height="23.88"/><rect class="cls-7" x="162.75" y="85.7" width="9.09" height="23.88"/><rect class="cls-8" x="82.79" y="149.17" width="8.62" height="8.62"/><rect class="cls-8" x="112.95" y="149.17" width="8.62" height="8.62"/><rect class="cls-8" x="141.68" y="149.17" width="8.62" height="8.62"/><rect class="cls-8" x="170.41" y="149.17" width="8.62" height="8.62"/><rect class="cls-8" x="82.79" y="172.15" width="8.62" height="8.62"/><rect class="cls-8" x="112.95" y="172.15" width="8.62" height="8.62"/><rect class="cls-8" x="141.68" y="172.15" width="8.62" height="8.62"/><rect class="cls-8" x="170.41" y="172.15" width="8.62" height="8.62"/><rect class="cls-8" x="82.79" y="193.7" width="8.62" height="8.62"/><rect class="cls-8" x="112.95" y="193.7" width="8.62" height="8.62"/><rect class="cls-8" x="141.68" y="193.7" width="8.62" height="8.62"/></g></g><g id="_Small_info_bar_-_Camera" data-name=" Small info bar - Camera"><rect class="cls-1" x="662.43" y="5.75" width="597.14" height="287.23" rx="52.84"/><line class="cls-2" x1="700.22" y1="66.22" x2="866.52" y2="232.51"/><line class="cls-2" x1="866.52" y1="66.22" x2="700.22" y2="232.51"/><path class="cls-2" d="M790.05,176.29V217h-7.44V176.29Z" transform="translate(-62.98 -45.01)"/><path class="cls-2" d="M827.78,215.83c-1.75.91-5.62,1.82-10.52,1.82-12.94,0-20.8-8.11-20.8-20.5,0-13.43,9.31-21.53,21.77-21.53a23.57,23.57,0,0,1,9.92,1.81l-1.64,5.93a19.7,19.7,0,0,0-8-1.57c-8.28,0-14.27,5.2-14.27,15,0,8.95,5.26,14.7,14.21,14.7a20.93,20.93,0,0,0,8.1-1.51Z" transform="translate(-62.98 -45.01)"/><path class="cls-2" d="M868.72,196.24c0,13.67-8.28,21.47-19.53,21.47-11.49,0-18.74-8.77-18.74-20.74,0-12.52,7.86-21.35,19.35-21.35C861.71,175.62,868.72,184.63,868.72,196.24Zm-30.41.61c0,8.28,4.17,14.87,11.3,14.87s11.25-6.65,11.25-15.18c0-7.68-3.81-14.93-11.25-14.93S838.31,188.44,838.31,196.85Z" transform="translate(-62.98 -45.01)"/><path class="cls-2" d="M875.13,217V176.29h8.47l10.52,17.47a111.53,111.53,0,0,1,7,13.67h.13c-.49-5.44-.67-10.71-.67-16.93V176.29h6.89V217h-7.68l-10.64-17.9a142,142,0,0,1-7.32-14.09l-.18.06c.31,5.27.37,10.65.37,17.36V217Z" transform="translate(-62.98 -45.01)"/><path class="cls-3" d="M1011.37,172.85c-1.84,1-5.88,1.89-11,1.89-13.53,0-21.74-8.47-21.74-21.42,0-14,9.73-22.5,22.75-22.5,5.12,0,8.79,1.07,10.37,1.89l-1.71,6.2a20.59,20.59,0,0,0-8.34-1.64c-8.66,0-14.92,5.43-14.92,15.67,0,9.35,5.5,15.36,14.85,15.36a21.72,21.72,0,0,0,8.47-1.58Z" transform="translate(-62.98 -45.01)"/><path class="cls-3" d="M1034.43,174.11l-.5-3.41h-.19a11.44,11.44,0,0,1-9.1,4.11c-6.2,0-9.67-4.49-9.67-9.17,0-7.77,6.89-11.69,18.26-11.63v-.5c0-2-.82-5.37-6.25-5.37a16.24,16.24,0,0,0-8.28,2.27l-1.52-5a22.08,22.08,0,0,1,11.12-2.72c9.86,0,12.71,6.25,12.71,13v11.13a48.76,48.76,0,0,0,.44,7.39Zm-1-15c-5.5-.13-10.74,1.07-10.74,5.75a4.08,4.08,0,0,0,4.42,4.43,6.3,6.3,0,0,0,6.07-4.24,5.58,5.58,0,0,0,.25-1.71Z" transform="translate(-62.98 -45.01)"/><path class="cls-3" d="M1049.22,152.5c0-3.54-.06-6.51-.25-9.17h6.7l.32,4.55h.18a10.66,10.66,0,0,1,9.49-5.24,8.87,8.87,0,0,1,8.53,5.69h.12a11.7,11.7,0,0,1,3.8-3.86,10.25,10.25,0,0,1,6.19-1.83c5.12,0,10.3,3.47,10.3,13.33v18.14H1087v-17c0-5.12-1.77-8.15-5.5-8.15a5.93,5.93,0,0,0-5.44,4.11,11,11,0,0,0-.38,2.59v18.45h-7.58V156.29c0-4.3-1.71-7.33-5.31-7.33a6.05,6.05,0,0,0-5.56,4.42,6.57,6.57,0,0,0-.44,2.53v18.2h-7.59Z" transform="translate(-62.98 -45.01)"/><path class="cls-3" d="M1108.31,160.9c.19,5.56,4.55,8,9.48,8a23.25,23.25,0,0,0,8.54-1.39l1.13,5.37a29.06,29.06,0,0,1-10.74,1.89c-10,0-15.86-6.13-15.86-15.54,0-8.54,5.18-16.56,15-16.56s13.27,8.21,13.27,15a19.77,19.77,0,0,1-.25,3.28Zm13.53-5.43c.06-2.85-1.2-7.52-6.39-7.52-4.8,0-6.82,4.36-7.14,7.52Z" transform="translate(-62.98 -45.01)"/><path class="cls-3" d="M1135.42,153.26c0-4.18-.06-7.15-.25-9.93h6.76l.26,5.88h.25c1.52-4.36,5.12-6.57,8.41-6.57a8,8,0,0,1,1.83.19v7.33a10.61,10.61,0,0,0-2.28-.25,6.85,6.85,0,0,0-7,5.87,13.13,13.13,0,0,0-.25,2.41v15.92h-7.78Z" transform="translate(-62.98 -45.01)"/><path class="cls-3" d="M1174.67,174.11l-.5-3.41H1174a11.44,11.44,0,0,1-9.1,4.11c-6.2,0-9.67-4.49-9.67-9.17,0-7.77,6.89-11.69,18.26-11.63v-.5c0-2-.82-5.37-6.26-5.37a16.23,16.23,0,0,0-8.27,2.27l-1.52-5a22,22,0,0,1,11.12-2.72c9.86,0,12.7,6.25,12.7,13v11.13a48.61,48.61,0,0,0,.45,7.39Zm-1-15c-5.5-.13-10.74,1.07-10.74,5.75a4.08,4.08,0,0,0,4.42,4.43,6.31,6.31,0,0,0,6.07-4.24,5.58,5.58,0,0,0,.25-1.71Z" transform="translate(-62.98 -45.01)"/><path class="cls-3" d="M997.18,219.74v2.72l-9.48,19.69h-4.48l9.44-18.83v-.06H982.12v-3.52Z" transform="translate(-62.98 -45.01)"/><path class="cls-3" d="M1000.25,242.15v-2.59l2.65-2.45c5.28-4.89,7.76-7.58,7.79-10.54,0-2-1.07-3.76-4-3.76a8.19,8.19,0,0,0-4.8,1.86l-1.24-3a11.1,11.1,0,0,1,6.9-2.31c5,0,7.37,3.14,7.37,6.79,0,3.93-2.82,7.1-6.72,10.72l-2,1.69v.07h9.2v3.52Z" transform="translate(-62.98 -45.01)"/><path class="cls-3" d="M1034.55,230.81c0,7.2-2.83,11.71-8.17,11.71-5.17,0-7.93-4.68-8-11.51s3-11.65,8.2-11.65C1032,219.36,1034.55,224.19,1034.55,230.81Zm-11.86.2c0,5.45,1.48,8.27,3.83,8.27s3.79-3,3.79-8.41c0-5.2-1.24-8.27-3.79-8.27C1024.24,222.6,1022.66,225.39,1022.69,231Z" transform="translate(-62.98 -45.01)"/><path class="cls-3" d="M1045.3,219.22a37.41,37.41,0,0,1,6.48-.48c3.11,0,5.38.66,6.86,1.9a6.54,6.54,0,0,1,2.28,5.13,7,7,0,0,1-2,5.28c-1.69,1.68-4.34,2.48-7.34,2.48a12.23,12.23,0,0,1-2.07-.14v8.76h-4.21Zm4.21,10.83a9,9,0,0,0,2.07.17c3.17,0,5.1-1.55,5.1-4.28,0-2.58-1.79-4-4.72-4a11.2,11.2,0,0,0-2.45.21Z" transform="translate(-62.98 -45.01)"/><path class="cls-3" d="M1071.71,218.91h13.41v3.48H1076v6.42h8.55v3.48H1076v9.86h-4.24Z" transform="translate(-62.98 -45.01)"/><path class="cls-3" d="M1088.32,230.77c0-2.27,0-3.89-.13-5.41h3.68l.14,3.2h.14a5,5,0,0,1,4.59-3.58,4.46,4.46,0,0,1,1,.1v4a5.92,5.92,0,0,0-1.25-.14,3.74,3.74,0,0,0-3.79,3.21,7.21,7.21,0,0,0-.14,1.31v8.69h-4.24Z" transform="translate(-62.98 -45.01)"/><path class="cls-3" d="M1116.25,233.6c0,6.17-4.35,8.92-8.62,8.92-4.76,0-8.41-3.27-8.41-8.65s3.62-8.89,8.68-8.89S1116.25,228.5,1116.25,233.6Zm-12.65.17c0,3.24,1.58,5.69,4.17,5.69,2.41,0,4.1-2.38,4.1-5.76,0-2.62-1.17-5.62-4.07-5.62S1103.6,231,1103.6,233.77Z" transform="translate(-62.98 -45.01)"/><path class="cls-3" d="M1119.73,230.36c0-1.93,0-3.55-.14-5h3.72l.21,2.51h.1A6.08,6.08,0,0,1,1129,225c2.93,0,6,1.9,6,7.2v10h-4.24v-9.48c0-2.42-.9-4.24-3.21-4.24a3.55,3.55,0,0,0-3.31,2.48,4.54,4.54,0,0,0-.17,1.38v9.86h-4.27Z" transform="translate(-62.98 -45.01)"/><path class="cls-3" d="M1144.13,220.57v4.79h4v3.17h-4v7.41c0,2,.56,3.1,2.18,3.1a6.45,6.45,0,0,0,1.65-.2l.07,3.24a9.36,9.36,0,0,1-3.07.41,4.9,4.9,0,0,1-3.65-1.38c-.9-1-1.31-2.48-1.31-4.69v-7.89h-2.42v-3.17H1140v-3.79Z" transform="translate(-62.98 -45.01)"/><g id="Camera-icon"><rect class="cls-9" x="710.47" y="75.92" width="143.63" height="143.63" rx="71.82"/><rect class="cls-10" x="725.39" y="91.94" width="111.59" height="111.59" rx="55.8"/><rect class="cls-11" x="754.67" y="120.11" width="51.93" height="51.93" rx="25.96"/></g></g><g id="_Small_info_bar_-Hardware" data-name=" Small info bar -Hardware"><rect class="cls-1" x="1306.46" y="6.99" width="597.14" height="287.23" rx="52.84"/><line class="cls-2" x1="1344.26" y1="67.46" x2="1510.55" y2="233.75"/><line class="cls-2" x1="1510.55" y1="67.46" x2="1344.26" y2="233.75"/><path class="cls-2" d="M1434.08,177.53v40.76h-7.44V177.53Z" transform="translate(-62.98 -45.01)"/><path class="cls-2" d="M1471.81,217.08c-1.75.9-5.62,1.81-10.52,1.81-12.94,0-20.8-8.1-20.8-20.5,0-13.42,9.31-21.53,21.77-21.53a23.37,23.37,0,0,1,9.92,1.82l-1.64,5.93a19.69,19.69,0,0,0-8-1.58c-8.28,0-14.27,5.2-14.27,15,0,8.95,5.26,14.69,14.21,14.69a20.71,20.71,0,0,0,8.1-1.51Z" transform="translate(-62.98 -45.01)"/><path class="cls-2" d="M1512.75,197.49c0,13.66-8.28,21.46-19.53,21.46-11.49,0-18.74-8.77-18.74-20.74,0-12.52,7.86-21.35,19.35-21.35C1505.74,176.86,1512.75,185.88,1512.75,197.49Zm-30.41.6c0,8.28,4.17,14.88,11.31,14.88s11.24-6.66,11.24-15.18c0-7.68-3.81-14.94-11.24-14.94S1482.34,189.69,1482.34,198.09Z" transform="translate(-62.98 -45.01)"/><path class="cls-2" d="M1519.16,218.29V177.53h8.47L1538.15,195a111.42,111.42,0,0,1,6.95,13.66h.13c-.49-5.44-.67-10.7-.67-16.93V177.53h6.89v40.76h-7.68l-10.64-17.9a144.21,144.21,0,0,1-7.32-14.09l-.18.06c.31,5.26.37,10.64.37,17.35v14.58Z" transform="translate(-62.98 -45.01)"/><path class="cls-3" d="M1632.65,132.76v17.06h18V132.76h7.78v42.6h-7.78V156.59h-18v18.77h-7.78v-42.6Z" transform="translate(-62.98 -45.01)"/><path class="cls-3" d="M1684.35,175.36l-.51-3.42h-.19a11.41,11.41,0,0,1-9.1,4.11c-6.19,0-9.67-4.49-9.67-9.16,0-7.78,6.89-11.7,18.27-11.63v-.51c0-2-.83-5.37-6.26-5.37a16.24,16.24,0,0,0-8.28,2.28l-1.52-5.06a22.2,22.2,0,0,1,11.13-2.72c9.85,0,12.7,6.26,12.7,13V168a50.33,50.33,0,0,0,.44,7.4Zm-1-15.05c-5.49-.12-10.74,1.08-10.74,5.76a4.08,4.08,0,0,0,4.42,4.42,6.29,6.29,0,0,0,6.07-4.23,5.62,5.62,0,0,0,.25-1.71Z" transform="translate(-62.98 -45.01)"/><path class="cls-3" d="M1699.13,154.5c0-4.17-.06-7.14-.25-9.92h6.76l.26,5.87h.25c1.52-4.36,5.12-6.57,8.41-6.57a8,8,0,0,1,1.83.19v7.33a11.29,11.29,0,0,0-2.28-.25,6.85,6.85,0,0,0-6.95,5.88,12.92,12.92,0,0,0-.25,2.4v15.93h-7.78Z" transform="translate(-62.98 -45.01)"/><path class="cls-3" d="M1749.44,130.48V166.7c0,3.16.13,6.57.25,8.66h-7l-.31-4.87h-.13a11.08,11.08,0,0,1-10,5.56c-7.33,0-13.15-6.26-13.15-15.74-.06-10.3,6.39-16.43,13.78-16.43,4.24,0,7.27,1.77,8.66,4.05h.13V130.48Zm-7.77,26.93a11.62,11.62,0,0,0-.19-2,6.81,6.81,0,0,0-6.7-5.49c-5,0-7.78,4.42-7.78,10.17s2.79,9.73,7.72,9.73a6.83,6.83,0,0,0,6.69-5.49,8.7,8.7,0,0,0,.26-2.28Z" transform="translate(-62.98 -45.01)"/><path class="cls-3" d="M1762.46,144.58l3.22,14c.7,3.29,1.39,6.64,2,10h.13c.63-3.35,1.64-6.76,2.53-9.92l4-14h6.32l3.85,13.65c1,3.6,1.77,7,2.47,10.3h.12c.51-3.35,1.21-6.7,2-10.3l3.41-13.65h7.65l-9.67,30.78h-7.21l-3.66-12.52a92.31,92.31,0,0,1-2.34-9.86h-.13a79.77,79.77,0,0,1-2.34,9.86l-3.92,12.52h-7.26l-9.1-30.78Z" transform="translate(-62.98 -45.01)"/><path class="cls-3" d="M1822.06,175.36l-.51-3.42h-.19a11.4,11.4,0,0,1-9.1,4.11c-6.19,0-9.67-4.49-9.67-9.16,0-7.78,6.89-11.7,18.27-11.63v-.51c0-2-.83-5.37-6.26-5.37a16.3,16.3,0,0,0-8.28,2.28l-1.52-5.06a22.2,22.2,0,0,1,11.13-2.72c9.86,0,12.7,6.26,12.7,13V168a50.33,50.33,0,0,0,.44,7.4Zm-1-15.05c-5.5-.12-10.75,1.08-10.75,5.76a4.08,4.08,0,0,0,4.43,4.42,6.29,6.29,0,0,0,6.06-4.23,5.65,5.65,0,0,0,.26-1.71Z" transform="translate(-62.98 -45.01)"/><path class="cls-3" d="M1836.84,154.5c0-4.17-.06-7.14-.25-9.92h6.76l.26,5.87h.25c1.52-4.36,5.12-6.57,8.41-6.57a8,8,0,0,1,1.83.19v7.33a11.29,11.29,0,0,0-2.28-.25,6.85,6.85,0,0,0-7,5.88,12.92,12.92,0,0,0-.25,2.4v15.93h-7.78Z" transform="translate(-62.98 -45.01)"/><path class="cls-3" d="M1864.27,162.15c.19,5.56,4.55,8,9.48,8a23,23,0,0,0,8.54-1.39l1.13,5.37a28.84,28.84,0,0,1-10.74,1.9c-10,0-15.86-6.13-15.86-15.55,0-8.53,5.18-16.56,15-16.56s13.27,8.22,13.27,15a20,20,0,0,1-.25,3.29Zm13.53-5.44c.06-2.84-1.2-7.52-6.39-7.52-4.8,0-6.82,4.36-7.14,7.52Z" transform="translate(-62.98 -45.01)"/><path class="cls-3" d="M1643.31,234.61l-2.67,8.78h-5.84l9.93-31H1652l10.06,31h-6.07l-2.8-8.78Zm8.87-4.27-2.44-7.63c-.6-1.89-1.1-4-1.56-5.79h-.1c-.45,1.79-.91,4-1.47,5.79l-2.38,7.63Z" transform="translate(-62.98 -45.01)"/><path class="cls-3" d="M1665.87,228.45c0-2.94-.09-5.33-.18-7.44h5l.28,3.44h.09a8.75,8.75,0,0,1,7.68-3.95c5.14,0,9.42,4.41,9.42,11.4,0,8.09-5.1,12-10.21,12a7.35,7.35,0,0,1-6.29-3h-.09v11.58h-5.66Zm5.66,5.56a5.78,5.78,0,0,0,.18,1.57,5.11,5.11,0,0,0,5,3.95c3.59,0,5.7-3,5.7-7.4,0-3.95-1.93-7.17-5.56-7.17a5.26,5.26,0,0,0-5,4.18,5.08,5.08,0,0,0-.23,1.43Z" transform="translate(-62.98 -45.01)"/><path class="cls-3" d="M1692.76,228.45c0-2.94-.09-5.33-.18-7.44h5l.28,3.44h.09a8.72,8.72,0,0,1,7.67-3.95c5.15,0,9.43,4.41,9.43,11.4,0,8.09-5.1,12-10.21,12a7.35,7.35,0,0,1-6.29-3h-.1v11.58h-5.65Zm5.65,5.56a5.78,5.78,0,0,0,.19,1.57,5.11,5.11,0,0,0,5,3.95c3.59,0,5.7-3,5.7-7.4,0-3.95-1.93-7.17-5.56-7.17a5.26,5.26,0,0,0-5,4.18,5.1,5.1,0,0,0-.24,1.43Z" transform="translate(-62.98 -45.01)"/><path class="cls-3" d="M1719.65,210.76h5.7v32.63h-5.7Z" transform="translate(-62.98 -45.01)"/><path class="cls-3" d="M1735.46,233.78c.14,4.05,3.31,5.8,6.89,5.8a16.7,16.7,0,0,0,6.21-1l.83,3.91a21.13,21.13,0,0,1-7.82,1.38c-7.26,0-11.53-4.46-11.53-11.31,0-6.2,3.77-12,10.94-12s9.65,6,9.65,10.89a13.89,13.89,0,0,1-.19,2.39Zm9.84-3.95c0-2.07-.88-5.47-4.65-5.47-3.49,0-5,3.17-5.19,5.47Z" transform="translate(-62.98 -45.01)"/><path class="cls-3" d="M1791.07,230.75c-.18-4-.41-8.82-.37-13h-.13c-1,3.77-2.3,8-3.68,11.86l-4.5,13.42H1778l-4.14-13.23c-1.19-4-2.29-8.18-3.12-12h-.09c-.14,4-.33,9-.56,13.2l-.68,12.45h-5.29l2.07-31h7.44l4,12.46c1.1,3.63,2.07,7.31,2.85,10.75h.14c.82-3.35,1.88-7.17,3.08-10.8l4.27-12.41h7.35l1.8,31h-5.52Z" transform="translate(-62.98 -45.01)"/><path class="cls-3" d="M1810.52,218.62h-.1l-5.46,2.76-1-4.28,7.26-3.58H1816v29.87h-5.47Z" transform="translate(-62.98 -45.01)"/><path class="cls-3" d="M1663.94,290.87c0-3.72,2.16-6.25,5.61-7.77V283c-3.13-1.52-4.55-4-4.55-6.62,0-4.87,4.32-8.18,10-8.18,6.44,0,9.38,3.86,9.38,7.53,0,2.53-1.34,5.15-4.6,6.76v.14c3.26,1.24,5.7,3.81,5.7,7.54,0,5.33-4.5,8.91-10.89,8.91C1667.57,299.05,1663.94,295.05,1663.94,290.87Zm15.77-.28c0-3-2.26-4.68-5.57-5.6-2.8.83-4.41,2.76-4.41,5.24a4.71,4.71,0,0,0,5,4.82C1677.73,295.05,1679.71,293.17,1679.71,290.59Zm-9.33-14.47c0,2.43,2,3.9,4.87,4.69a4.86,4.86,0,0,0,3.72-4.51,4.3,4.3,0,0,0-8.59-.18Z" transform="translate(-62.98 -45.01)"/><path class="cls-3" d="M1700.11,284.34v3.91h-11.72v-3.91Z" transform="translate(-62.98 -45.01)"/><path class="cls-3" d="M1721.76,297.86a16.37,16.37,0,0,1-6.34,1.15c-7,0-11.54-4.46-11.54-11.4,0-6.71,4.6-11.95,12.46-11.95a14.07,14.07,0,0,1,5.47,1.06l-1,4.22a10.06,10.06,0,0,0-4.28-.87c-4.32,0-6.89,3.17-6.85,7.26,0,4.6,3,7.22,6.85,7.22a11,11,0,0,0,4.46-.88Z" transform="translate(-62.98 -45.01)"/><path class="cls-3" d="M1746.81,287.15c0,8.22-5.79,11.9-11.49,11.9-6.34,0-11.21-4.36-11.21-11.53,0-7.36,4.82-11.86,11.58-11.86S1746.81,280.35,1746.81,287.15Zm-16.87.23c0,4.32,2.12,7.58,5.56,7.58,3.22,0,5.47-3.17,5.47-7.67,0-3.5-1.56-7.5-5.42-7.5S1729.94,283.65,1729.94,287.38Z" transform="translate(-62.98 -45.01)"/><path class="cls-3" d="M1751.45,283.38c0-3,0-5.19-.18-7.22h4.92l.18,4.28h.19a6.67,6.67,0,0,1,6.11-4.78,5.49,5.49,0,0,1,1.33.14v5.33a7.27,7.27,0,0,0-1.65-.19,5,5,0,0,0-5.06,4.28,9.8,9.8,0,0,0-.18,1.74v11.59h-5.66Z" transform="translate(-62.98 -45.01)"/><path class="cls-3" d="M1771.4,288.94c.14,4,3.31,5.79,6.9,5.79a16.87,16.87,0,0,0,6.2-1l.83,3.91a21.13,21.13,0,0,1-7.82,1.38c-7.26,0-11.53-4.46-11.53-11.31,0-6.21,3.77-12,10.94-12s9.65,6,9.65,10.89a13,13,0,0,1-.19,2.39Zm9.84-3.95c0-2.07-.88-5.47-4.64-5.47-3.5,0-5,3.17-5.2,5.47Z" transform="translate(-62.98 -45.01)"/><g id="Hardware-icon"><rect class="cls-12" x="1371.33" y="91.1" width="111.04" height="111.04" rx="13.71"/><rect class="cls-13" x="1402.2" y="120.3" width="51.39" height="51.39" rx="1.11"/><line class="cls-14" x1="1407.83" y1="62.2" x2="1407.83" y2="86.54"/><line class="cls-14" x1="1441.3" y1="62.2" x2="1441.3" y2="86.54"/><line class="cls-14" x1="1410.88" y1="206.7" x2="1410.88" y2="231.04"/><line class="cls-14" x1="1444.34" y1="206.7" x2="1444.34" y2="231.04"/><line class="cls-14" x1="1366.75" y1="130.64" x2="1342.41" y2="130.66"/><line class="cls-14" x1="1366.78" y1="164.1" x2="1342.44" y2="164.12"/><line class="cls-14" x1="1509.05" y1="125.96" x2="1484.72" y2="125.98"/><line class="cls-14" x1="1509.08" y1="159.42" x2="1484.75" y2="159.44"/></g></g><g id="_Small_info_bar_-_Price" data-name=" Small info bar -  Price"><rect class="cls-1" x="5.75" y="711.77" width="597.14" height="287.23" rx="52.84"/><line class="cls-2" x1="43.54" y1="772.24" x2="209.83" y2="938.53"/><line class="cls-2" x1="209.83" y1="772.24" x2="43.54" y2="938.53"/><path class="cls-2" d="M133.37,882.31v40.76h-7.44V882.31Z" transform="translate(-62.98 -45.01)"/><path class="cls-2" d="M171.1,921.86c-1.75.9-5.62,1.81-10.52,1.81-12.94,0-20.8-8.1-20.8-20.5,0-13.42,9.31-21.53,21.77-21.53a23.31,23.31,0,0,1,9.91,1.82l-1.63,5.92a19.91,19.91,0,0,0-8-1.57c-8.29,0-14.27,5.2-14.27,15,0,9,5.26,14.69,14.21,14.69a20.75,20.75,0,0,0,8.1-1.51Z" transform="translate(-62.98 -45.01)"/><path class="cls-2" d="M212,902.26c0,13.67-8.29,21.47-19.53,21.47-11.49,0-18.75-8.77-18.75-20.74,0-12.52,7.86-21.35,19.35-21.35C205,881.64,212,890.65,212,902.26Zm-30.42.61c0,8.28,4.17,14.87,11.31,14.87s11.25-6.65,11.25-15.17c0-7.68-3.81-14.94-11.25-14.94S181.62,894.46,181.62,902.87Z" transform="translate(-62.98 -45.01)"/><path class="cls-2" d="M218.45,923.07V882.31h8.46l10.53,17.47a112.25,112.25,0,0,1,6.95,13.67h.12c-.48-5.44-.66-10.7-.66-16.93V882.31h6.89v40.76h-7.68l-10.64-17.9a144.21,144.21,0,0,1-7.32-14.09l-.18.06c.3,5.26.36,10.64.36,17.35v14.58Z" transform="translate(-62.98 -45.01)"/><path class="cls-3" d="M337.24,838.11a66.8,66.8,0,0,1,11.88-.89c5.69,0,9.86,1.2,12.58,3.48a12,12,0,0,1,4.17,9.41c0,4-1.27,7.4-3.67,9.67-3.09,3.1-8,4.55-13.46,4.55a21.89,21.89,0,0,1-3.79-.25v16h-7.71ZM345,858a15.79,15.79,0,0,0,3.79.32c5.82,0,9.35-2.85,9.35-7.84,0-4.74-3.28-7.27-8.65-7.27a21.45,21.45,0,0,0-4.49.38Z" transform="translate(-62.98 -45.01)"/><path class="cls-3" d="M371.49,859.28c0-4.17-.06-7.14-.25-9.92H378l.25,5.87h.26c1.51-4.36,5.12-6.57,8.4-6.57a8.06,8.06,0,0,1,1.84.19v7.33a10.69,10.69,0,0,0-2.28-.25,6.85,6.85,0,0,0-7,5.88,12.92,12.92,0,0,0-.25,2.4v15.92h-7.78Z" transform="translate(-62.98 -45.01)"/><path class="cls-3" d="M402.27,840.76a4.36,4.36,0,1,1-4.36-4.24A4.12,4.12,0,0,1,402.27,840.76ZM394,880.13V849.36h7.84v30.77Z" transform="translate(-62.98 -45.01)"/><path class="cls-3" d="M432.8,879.19a22.72,22.72,0,0,1-8.73,1.58c-9.6,0-15.86-6.13-15.86-15.68,0-9.23,6.32-16.43,17.13-16.43a19.44,19.44,0,0,1,7.52,1.45l-1.39,5.82a13.72,13.72,0,0,0-5.88-1.2c-5.94,0-9.48,4.36-9.42,10,0,6.32,4.11,9.93,9.42,9.93a15.24,15.24,0,0,0,6.13-1.2Z" transform="translate(-62.98 -45.01)"/><path class="cls-3" d="M443.48,866.93c.18,5.56,4.55,8,9.48,8a23.23,23.23,0,0,0,8.53-1.39l1.14,5.37a29.1,29.1,0,0,1-10.75,1.9c-10,0-15.86-6.13-15.86-15.55,0-8.53,5.18-16.56,15-16.56s13.27,8.22,13.27,15a19,19,0,0,1-.25,3.29ZM457,861.49c.06-2.84-1.2-7.52-6.38-7.52-4.81,0-6.83,4.36-7.14,7.52Z" transform="translate(-62.98 -45.01)"/><path class="cls-3" d="M343.32,952.12v-4.46a15.37,15.37,0,0,1-7.44-2l1.24-4.32a14.47,14.47,0,0,0,7.17,2c2.89,0,4.87-1.42,4.87-3.63s-1.61-3.4-5-4.64c-4.83-1.75-7.95-4-7.95-8.23,0-4,2.76-7,7.4-7.81v-4.5h3.77v4.27a14.6,14.6,0,0,1,6.34,1.52l-1.24,4.23a13.59,13.59,0,0,0-6.25-1.57c-3.22,0-4.37,1.66-4.37,3.22,0,1.88,1.66,2.94,5.56,4.5,5.15,1.93,7.45,4.42,7.45,8.51,0,3.9-2.71,7.35-7.77,8.18v4.73Z" transform="translate(-62.98 -45.01)"/><path class="cls-3" d="M368.6,923.4h-.09L363,926.15l-1-4.27,7.26-3.59h4.73v29.88H368.6Z" transform="translate(-62.98 -45.01)"/><path class="cls-3" d="M382.76,953.73a74.81,74.81,0,0,0,3.08-12.13l5.93-.46a58.78,58.78,0,0,1-5.15,12.22Z" transform="translate(-62.98 -45.01)"/><path class="cls-3" d="M395.22,948.17v-3.45l3.53-3.26c7-6.53,10.35-10.11,10.39-14.07,0-2.66-1.42-5-5.33-5a10.88,10.88,0,0,0-6.39,2.48l-1.65-4a14.75,14.75,0,0,1,9.19-3.08c6.62,0,9.83,4.18,9.83,9.05,0,5.24-3.76,9.47-9,14.3l-2.62,2.25v.09h12.27v4.69Z" transform="translate(-62.98 -45.01)"/><path class="cls-3" d="M422.15,944.12a14.23,14.23,0,0,0,3.12-.09,10.53,10.53,0,0,0,9.89-8.91l-.1,0a8.25,8.25,0,0,1-6.52,2.67c-5.2,0-9.06-3.77-9.06-9.29a10.59,10.59,0,0,1,10.8-10.66c6.94,0,10.67,5.47,10.67,12.73,0,6.39-2.12,10.94-5.2,13.88a16.44,16.44,0,0,1-10.2,4.09,21.5,21.5,0,0,1-3.4.09Zm2.94-16c.05,3.08,1.79,5.47,4.92,5.47a5.44,5.44,0,0,0,4.82-2.48,3.31,3.31,0,0,0,.33-1.61c0-4-1.47-7.54-5.15-7.54C427.16,922,425.09,924.5,425.09,928.13Z" transform="translate(-62.98 -45.01)"/><path class="cls-3" d="M446.79,944.12a14.24,14.24,0,0,0,3.12-.09,11.21,11.21,0,0,0,6.07-2.3,11,11,0,0,0,3.81-6.61l-.09,0a8.28,8.28,0,0,1-6.53,2.67c-5.19,0-9.05-3.77-9.05-9.29a10.58,10.58,0,0,1,10.8-10.66c6.94,0,10.66,5.47,10.66,12.73,0,6.39-2.11,10.94-5.19,13.88a16.44,16.44,0,0,1-10.2,4.09,21.52,21.52,0,0,1-3.4.09Zm2.94-16c0,3.08,1.79,5.47,4.91,5.47a5.45,5.45,0,0,0,4.83-2.48,3.45,3.45,0,0,0,.32-1.61c0-4-1.47-7.54-5.15-7.54C451.79,922,449.73,924.5,449.73,928.13Z" transform="translate(-62.98 -45.01)"/><path class="cls-3" d="M469.49,945a3.44,3.44,0,0,1,3.49-3.63,3.63,3.63,0,0,1,0,7.26A3.44,3.44,0,0,1,469.49,945Z" transform="translate(-62.98 -45.01)"/><path class="cls-3" d="M482.27,944.12a14.24,14.24,0,0,0,3.12-.09,10.53,10.53,0,0,0,9.89-8.91l-.1,0a8.25,8.25,0,0,1-6.52,2.67c-5.2,0-9.06-3.77-9.06-9.29a10.58,10.58,0,0,1,10.8-10.66c6.94,0,10.67,5.47,10.67,12.73,0,6.39-2.12,10.94-5.2,13.88a16.44,16.44,0,0,1-10.2,4.09,21.5,21.5,0,0,1-3.4.09Zm2.94-16c.05,3.08,1.79,5.47,4.92,5.47a5.44,5.44,0,0,0,4.82-2.48,3.31,3.31,0,0,0,.33-1.61c0-4-1.48-7.54-5.15-7.54C487.28,922,485.21,924.5,485.21,928.13Z" transform="translate(-62.98 -45.01)"/><path class="cls-3" d="M506.9,944.12A14.32,14.32,0,0,0,510,944a11.21,11.21,0,0,0,6.07-2.3,11,11,0,0,0,3.81-6.61l-.09,0a8.28,8.28,0,0,1-6.53,2.67c-5.19,0-9-3.77-9-9.29A10.58,10.58,0,0,1,515,917.79c6.94,0,10.66,5.47,10.66,12.73,0,6.39-2.11,10.94-5.19,13.88a16.46,16.46,0,0,1-10.2,4.09,21.62,21.62,0,0,1-3.41.09Zm3-16c0,3.08,1.79,5.47,4.91,5.47a5.45,5.45,0,0,0,4.83-2.48,3.45,3.45,0,0,0,.32-1.61c.05-4-1.47-7.54-5.15-7.54C511.91,922,509.85,924.5,509.85,928.13Z" transform="translate(-62.98 -45.01)"/><g id="Price-icon"><rect class="cls-15" x="55.5" y="782.6" width="143.63" height="143.63" rx="71.82"/><path class="cls-3" d="M212.74,886c4.38,0-1-11.68-6.73-15.71-6-4.2-12.46-4.36-18-4.49-4.52-.11-8.75-.21-13.46,2.25a20.55,20.55,0,0,0-9,9c-.34.68-4.73,9.86,0,18,3.63,6.23,10.52,8.15,13.46,9,6.59,1.84,8.6-.33,15.71,2.25,3.24,1.17,7.37,2.74,9,6.73a8.75,8.75,0,0,1,0,6.73c-2.52,5.21-11.16,5.34-15.71,4.49-1.41-.26-8.25-1.54-11.22-6.73-1.18-2.08,0-4.49-2.24-4.49H163.36c-1.25,0-.59,2.42,0,4.49a27.39,27.39,0,0,0,9,13.47c11.33,8.3,26.29,3.22,29.18,2.24,4.54-1.54,10-3.39,13.46-9,.59-.93,5.21-8.31,2.25-15.71-1.77-4.4-5.36-6.68-9-9-3.45-2.19-6.67-3.12-11.22-4.49a53.78,53.78,0,0,0-9-2.25c-3.36-.42-6.12-.29-9-2.24a6.19,6.19,0,0,1-2.24-2.25c-1.47-2.78-.18-6.82,2.24-9,1.67-1.48,3.5-1.76,6.74-2.25a15.14,15.14,0,0,1,6.73,0,12.59,12.59,0,0,1,6.73,4.49c1.6,2.17,2.68,4.49,4.49,4.49Z" transform="translate(-62.98 -45.01)"/><rect class="cls-3" x="120.58" y="811.78" width="13.47" height="85.28"/></g></g><g id="_Small_info_bar_-Display" data-name=" Small info bar -Display"><rect class="cls-1" x="657.88" y="704.67" width="597.14" height="287.23" rx="52.84"/><line class="cls-2" x1="695.68" y1="765.14" x2="861.97" y2="931.44"/><line class="cls-2" x1="861.97" y1="765.14" x2="695.68" y2="931.44"/><path class="cls-2" d="M785.5,875.21V916h-7.44V875.21Z" transform="translate(-62.98 -45.01)"/><path class="cls-2" d="M823.23,914.76c-1.75.9-5.62,1.81-10.52,1.81-12.94,0-20.8-8.1-20.8-20.5,0-13.42,9.31-21.53,21.77-21.53a23.37,23.37,0,0,1,9.92,1.82L822,882.28a19.87,19.87,0,0,0-8-1.57c-8.28,0-14.27,5.2-14.27,15,0,8.95,5.26,14.69,14.21,14.69a20.75,20.75,0,0,0,8.1-1.51Z" transform="translate(-62.98 -45.01)"/><path class="cls-2" d="M864.17,895.16c0,13.67-8.28,21.47-19.53,21.47-11.49,0-18.75-8.77-18.75-20.74,0-12.52,7.86-21.35,19.35-21.35C857.16,874.54,864.17,883.55,864.17,895.16Zm-30.42.61c0,8.28,4.18,14.88,11.31,14.88s11.25-6.66,11.25-15.18c0-7.68-3.81-14.94-11.25-14.94S833.75,887.36,833.75,895.77Z" transform="translate(-62.98 -45.01)"/><path class="cls-2" d="M870.58,916V875.21h8.47l10.52,17.48a111.42,111.42,0,0,1,6.95,13.66h.12c-.48-5.44-.66-10.7-.66-16.93V875.21h6.89V916h-7.68l-10.64-17.9A144.21,144.21,0,0,1,877.23,884l-.18.06c.3,5.26.36,10.64.36,17.35V916Z" transform="translate(-62.98 -45.01)"/><path class="cls-3" d="M989.37,831a78.52,78.52,0,0,1,12.39-.88c8,0,13.46,1.64,17.38,4.93,4.11,3.35,6.64,8.4,6.64,15.67,0,7.59-2.59,13.27-6.64,16.94-4.23,3.85-11,5.81-19.27,5.81a84.25,84.25,0,0,1-10.5-.57Zm7.78,36.09a28.9,28.9,0,0,0,4.3.19c10.11.06,16.11-5.5,16.11-16.31.07-9.41-5.37-14.79-15.1-14.79a24.23,24.23,0,0,0-5.31.45Z" transform="translate(-62.98 -45.01)"/><path class="cls-3" d="M1040.69,833.67a4.36,4.36,0,0,1-8.72,0,4.36,4.36,0,0,1,8.72,0ZM1032.41,873V842.26h7.84V873Z" transform="translate(-62.98 -45.01)"/><path class="cls-3" d="M1048.21,865.9a17.4,17.4,0,0,0,7.9,2.21c3.42,0,4.93-1.39,4.93-3.41s-1.26-3.16-5-4.49c-6-2.08-8.54-5.37-8.47-9,0-5.44,4.48-9.67,11.63-9.67a18,18,0,0,1,8.15,1.83l-1.52,5.5a13.81,13.81,0,0,0-6.51-1.77c-2.78,0-4.3,1.33-4.3,3.22s1.46,2.91,5.38,4.3c5.56,2,8.15,4.87,8.21,9.42,0,5.56-4.36,9.6-12.51,9.6a19.75,19.75,0,0,1-9.35-2.15Z" transform="translate(-62.98 -45.01)"/><path class="cls-3" d="M1075,852.5c0-4-.13-7.33-.26-10.24h6.83l.38,4.74h.12a12,12,0,0,1,10.56-5.43c7.08,0,13,6.06,13,15.67,0,11.12-7,16.5-14,16.5-3.85,0-7.08-1.65-8.66-4.11h-.12v15.93H1075Zm7.77,7.65a8,8,0,0,0,.25,2.15,7,7,0,0,0,6.83,5.43c4.93,0,7.83-4.11,7.83-10.17,0-5.44-2.65-9.86-7.64-9.86a7.25,7.25,0,0,0-7,5.75,7,7,0,0,0-.31,2Z" transform="translate(-62.98 -45.01)"/><path class="cls-3" d="M1111.92,828.17h7.83V873h-7.83Z" transform="translate(-62.98 -45.01)"/><path class="cls-3" d="M1145.47,873l-.5-3.41h-.19a11.44,11.44,0,0,1-9.1,4.11c-6.2,0-9.67-4.49-9.67-9.17,0-7.77,6.89-11.69,18.26-11.63v-.5c0-2-.82-5.37-6.25-5.37a16.24,16.24,0,0,0-8.28,2.27l-1.52-5.06a22.19,22.19,0,0,1,11.12-2.71c9.86,0,12.71,6.25,12.71,12.95v11.13a48.76,48.76,0,0,0,.44,7.39Zm-1-15c-5.5-.13-10.74,1.07-10.74,5.75a4.08,4.08,0,0,0,4.42,4.42,6.29,6.29,0,0,0,6.07-4.23,5.58,5.58,0,0,0,.25-1.71Z" transform="translate(-62.98 -45.01)"/><path class="cls-3" d="M1164.5,842.26l5.56,16.5c.63,1.89,1.26,4.23,1.71,6h.18c.51-1.77,1.08-4,1.65-6.07l4.8-16.43h8.34l-7.71,21c-4.23,11.51-7.08,16.63-10.74,19.79a15.65,15.65,0,0,1-8.15,4l-1.77-6.57a14,14,0,0,0,8.78-7,3.09,3.09,0,0,0,.51-1.39,3.33,3.33,0,0,0-.45-1.52L1156,842.26Z" transform="translate(-62.98 -45.01)"/><path class="cls-3" d="M996.1,904.81H996l-5.47,2.76-1-4.28,7.26-3.58h4.73v29.87H996.1Z" transform="translate(-62.98 -45.01)"/><path class="cls-3" d="M1013,923.75a14.77,14.77,0,0,0,6.8,1.83c4.32,0,6.07-2.43,6-4.77,0-3.54-3.31-5.06-6.76-5.06h-2.61v-4.14H1019c2.62,0,5.93-1.19,5.93-4.18,0-2-1.51-3.72-4.78-3.72a12.1,12.1,0,0,0-6.11,1.88l-1.29-4.09a16.18,16.18,0,0,1,8.6-2.3c6.15,0,9.33,3.41,9.33,7.31,0,3.13-1.84,5.7-5.52,7v.09a7.54,7.54,0,0,1,6.57,7.44c0,5.06-4.23,9.06-11.62,9.06a16.3,16.3,0,0,1-8.37-2.07Z" transform="translate(-62.98 -45.01)"/><path class="cls-3" d="M1036.87,926.46a3.44,3.44,0,0,1,3.5-3.63,3.63,3.63,0,0,1,0,7.26A3.44,3.44,0,0,1,1036.87,926.46Z" transform="translate(-62.98 -45.01)"/><path class="cls-3" d="M1048.5,923.75a14.77,14.77,0,0,0,6.8,1.83c4.32,0,6.07-2.43,6-4.77,0-3.54-3.31-5.06-6.75-5.06H1052v-4.14h2.53c2.62,0,5.93-1.19,5.93-4.18,0-2-1.52-3.72-4.79-3.72a12.1,12.1,0,0,0-6.11,1.88l-1.28-4.09a16.17,16.17,0,0,1,8.59-2.3c6.16,0,9.33,3.41,9.33,7.31,0,3.13-1.84,5.7-5.52,7v.09a7.54,7.54,0,0,1,6.58,7.44c0,5.06-4.23,9.06-11.63,9.06a16.3,16.3,0,0,1-8.37-2.07Z" transform="translate(-62.98 -45.01)"/><path class="cls-3" d="M1088.58,901a3.17,3.17,0,1,1-3.17-3.08A3,3,0,0,1,1088.58,901Zm-6,28.63V907.2h5.7v22.38Z" transform="translate(-62.98 -45.01)"/><path class="cls-3" d="M1094.32,913.86c0-2.57,0-4.73-.18-6.66h5l.28,3.36h.14a8.05,8.05,0,0,1,7.12-3.86c3.91,0,7.95,2.52,7.95,9.6v13.28h-5.65V916.94c0-3.21-1.2-5.65-4.27-5.65a4.75,4.75,0,0,0-4.42,3.31,5.91,5.91,0,0,0-.23,1.84v13.14h-5.7Z" transform="translate(-62.98 -45.01)"/><path class="cls-3" d="M1137.07,928.89a16.22,16.22,0,0,1-6.34,1.15c-7,0-11.54-4.46-11.54-11.39,0-6.71,4.6-11.95,12.46-11.95a14,14,0,0,1,5.46,1l-1,4.23a10,10,0,0,0-4.27-.87c-4.32,0-6.89,3.17-6.85,7.26,0,4.6,3,7.21,6.85,7.21a11.08,11.08,0,0,0,4.46-.87Z" transform="translate(-62.98 -45.01)"/><path class="cls-3" d="M1141.25,897h5.7v13.33h.09a8.12,8.12,0,0,1,6.67-3.58c3.81,0,7.81,2.52,7.81,9.69v13.19h-5.65V917c0-3.27-1.2-5.7-4.32-5.7a4.61,4.61,0,0,0-4.37,3.17,4.86,4.86,0,0,0-.23,1.7v13.37h-5.7Z" transform="translate(-62.98 -45.01)"/><path class="cls-3" d="M1171.54,920c.14,4,3.31,5.79,6.9,5.79a16.87,16.87,0,0,0,6.2-1l.83,3.9a20.93,20.93,0,0,1-7.82,1.38c-7.26,0-11.53-4.46-11.53-11.3,0-6.21,3.77-12,10.94-12s9.65,6,9.65,10.89a13,13,0,0,1-.19,2.39Zm9.84-4c0-2.06-.88-5.46-4.64-5.46-3.5,0-5,3.17-5.2,5.46Z" transform="translate(-62.98 -45.01)"/><path class="cls-3" d="M1191,924.39a12.67,12.67,0,0,0,5.75,1.61c2.48,0,3.58-1,3.58-2.48s-.92-2.3-3.67-3.27c-4.37-1.51-6.21-3.9-6.16-6.52,0-4,3.26-7,8.45-7a13.09,13.09,0,0,1,5.93,1.33l-1.1,4a10.05,10.05,0,0,0-4.73-1.29c-2,0-3.13,1-3.13,2.34s1.06,2.12,3.91,3.13c4,1.47,5.93,3.54,6,6.85,0,4-3.17,7-9.1,7a14.44,14.44,0,0,1-6.8-1.56Z" transform="translate(-62.98 -45.01)"/><path class="cls-3" d="M988.29,952.89c-2.94,4.37-5.19,10.43-5.19,18.7a33,33,0,0,0,5.19,18.57h-4.14c-2.62-3.67-5.56-9.65-5.56-18.57s2.94-15,5.56-18.7Z" transform="translate(-62.98 -45.01)"/><path class="cls-3" d="M991.55,984.74v-3.45l3.54-3.26c7-6.53,10.34-10.11,10.39-14.06,0-2.67-1.42-5-5.33-5a10.88,10.88,0,0,0-6.39,2.48l-1.65-4a14.75,14.75,0,0,1,9.19-3.08c6.62,0,9.83,4.18,9.83,9,0,5.24-3.77,9.47-9,14.3L999.55,980v.09h12.27v4.69Z" transform="translate(-62.98 -45.01)"/><path class="cls-3" d="M1035.17,959.55h-11.49l-.87,6a15.36,15.36,0,0,1,2.16-.14,13.33,13.33,0,0,1,7.26,1.93,8.57,8.57,0,0,1,3.91,7.58c0,5.7-4.74,10.34-12.09,10.34a17.28,17.28,0,0,1-7.91-1.74l1.15-4.28a15.12,15.12,0,0,0,6.58,1.57c3.3,0,6.48-1.89,6.48-5.47,0-3.4-2.53-5.66-8.51-5.66a26.51,26.51,0,0,0-4.09.28l2-15.07h15.44Z" transform="translate(-62.98 -45.01)"/><path class="cls-3" d="M1059,958.86a22.45,22.45,0,0,0-2.9.14c-6.25.74-9.28,4.6-10,8.73h.14a8.59,8.59,0,0,1,6.71-2.89c5.15,0,9.15,3.68,9.15,9.74a10.38,10.38,0,0,1-10.53,10.66c-7.26,0-11.26-5.51-11.26-12.86,0-5.75,2.07-10.44,5.19-13.42a20,20,0,0,1,13.47-4.51Zm-2.67,16c0-3.44-1.88-5.92-5.19-5.92a5.47,5.47,0,0,0-4.87,3.07,3.89,3.89,0,0,0-.37,1.8c.09,3.95,2,7.17,5.6,7.17C1054.48,981,1056.36,978.49,1056.36,974.9Z" transform="translate(-62.98 -45.01)"/><path class="cls-3" d="M1086.56,969.62c0,9.6-3.77,15.62-10.9,15.62-6.89,0-10.57-6.25-10.61-15.35,0-9.28,4-15.53,10.94-15.53C1083.2,954.36,1086.56,960.79,1086.56,969.62Zm-15.81.27c0,7.27,2,11,5.1,11,3.31,0,5.06-4,5.06-11.21,0-6.94-1.66-11-5.06-11C1072.82,958.68,1070.7,962.4,1070.75,969.89Z" transform="translate(-62.98 -45.01)"/><path class="cls-3" d="M1104.44,962.36l2.66,4.23c.74,1.19,1.38,2.29,2,3.44h.13c.65-1.24,1.29-2.39,1.93-3.54l2.49-4.13h6.15l-7.49,10.75,7.63,11.63h-6.39l-2.75-4.46c-.74-1.19-1.38-2.39-2-3.63h-.09c-.64,1.29-1.29,2.39-2,3.63l-2.57,4.46h-6.26l7.77-11.4-7.49-11Z" transform="translate(-62.98 -45.01)"/><path class="cls-3" d="M1140.7,960h-.09l-5.47,2.75-1-4.27,7.27-3.58h4.73v29.87h-5.47Z" transform="translate(-62.98 -45.01)"/><path class="cls-3" d="M1174.67,958.86a22.45,22.45,0,0,0-2.9.14c-6.25.74-9.28,4.6-10,8.73h.14a8.59,8.59,0,0,1,6.71-2.89c5.15,0,9.15,3.68,9.15,9.74a10.38,10.38,0,0,1-10.53,10.66c-7.26,0-11.26-5.51-11.26-12.86,0-5.75,2.07-10.44,5.2-13.42a20,20,0,0,1,13.46-4.51Zm-2.67,16c0-3.44-1.88-5.92-5.19-5.92a5.47,5.47,0,0,0-4.87,3.07,3.89,3.89,0,0,0-.37,1.8c.09,3.95,2,7.17,5.61,7.17C1170.12,981,1172,978.49,1172,974.9Z" transform="translate(-62.98 -45.01)"/><path class="cls-3" d="M1202.2,969.62c0,9.6-3.77,15.62-10.89,15.62-6.9,0-10.57-6.25-10.62-15.35,0-9.28,4-15.53,10.94-15.53C1198.84,954.36,1202.2,960.79,1202.2,969.62Zm-15.81.27c-.05,7.27,2,11,5.1,11,3.31,0,5.06-4,5.06-11.21,0-6.94-1.66-11-5.06-11C1188.46,958.68,1186.34,962.4,1186.39,969.89Z" transform="translate(-62.98 -45.01)"/><path class="cls-3" d="M1226.83,969.62c0,9.6-3.76,15.62-10.89,15.62-6.89,0-10.57-6.25-10.62-15.35,0-9.28,4-15.53,10.94-15.53C1223.48,954.36,1226.83,960.79,1226.83,969.62Zm-15.81.27c0,7.27,2,11,5.11,11,3.3,0,5-4,5-11.21,0-6.94-1.65-11-5-11C1213.09,958.68,1211,962.4,1211,969.89Z" transform="translate(-62.98 -45.01)"/><path class="cls-3" d="M1229.69,990.16c2.89-4.36,5.14-10.48,5.14-18.66s-2.25-14.2-5.14-18.61h4.09c2.66,3.68,5.6,9.65,5.6,18.66s-2.94,14.89-5.6,18.61Z" transform="translate(-62.98 -45.01)"/><g id="Display-icon"><rect class="cls-16" x="704.73" y="790.25" width="149.38" height="115.87" rx="12.96"/><path class="cls-17" d="M893.36,887.14v14.39a.25.25,0,0,0,.37.22l15-7.81a.62.62,0,0,0,.08-1l-14-10.34a.9.9,0,0,0-1.43.72Z" transform="translate(-62.98 -45.01)"/><path class="cls-17" d="M791.7,897.57l.17-14.39a.25.25,0,0,0-.37-.23l-15.06,7.62a.62.62,0,0,0-.09,1l13.85,10.51a.9.9,0,0,0,1.45-.71Z" transform="translate(-62.98 -45.01)"/><path class="cls-17" d="M842.16,847.32,835.38,860a.26.26,0,0,0,.23.38l16.88.15a.61.61,0,0,0,.56-.88L845.58,844a.91.91,0,0,0-1.61,0Z" transform="translate(-62.98 -45.01)"/><path class="cls-17" d="M849.06,927.05l-14.39-.3a.25.25,0,0,0-.23.37l7.49,15.13a.62.62,0,0,0,1.05.1l10.63-13.77a.9.9,0,0,0-.7-1.45Z" transform="translate(-62.98 -45.01)"/></g></g><g id="_Small_info_bar_-_OS" data-name=" Small info bar - OS"><rect class="cls-1" x="11.49" y="361.3" width="597.14" height="287.23" rx="52.84"/><line class="cls-2" x1="49.28" y1="421.77" x2="215.58" y2="588.06"/><line class="cls-2" x1="215.58" y1="421.77" x2="49.28" y2="588.06"/><path class="cls-2" d="M139.11,531.84V572.6h-7.44V531.84Z" transform="translate(-62.98 -45.01)"/><path class="cls-2" d="M176.85,571.39c-1.76.91-5.63,1.81-10.53,1.81-12.94,0-20.8-8.1-20.8-20.5,0-13.42,9.31-21.52,21.77-21.52,4.9,0,8.41,1,9.92,1.81l-1.63,5.93a19.78,19.78,0,0,0-8-1.58c-8.28,0-14.27,5.2-14.27,15,0,8.95,5.26,14.69,14.21,14.69a20.8,20.8,0,0,0,8.11-1.51Z" transform="translate(-62.98 -45.01)"/><path class="cls-2" d="M217.78,551.8c0,13.66-8.28,21.46-19.53,21.46-11.49,0-18.74-8.76-18.74-20.74,0-12.52,7.86-21.34,19.35-21.34C210.77,531.18,217.78,540.19,217.78,551.8Zm-30.41.6c0,8.29,4.17,14.88,11.31,14.88s11.24-6.65,11.24-15.18c0-7.68-3.81-14.94-11.24-14.94S187.37,544,187.37,552.4Z" transform="translate(-62.98 -45.01)"/><path class="cls-2" d="M224.19,572.6V531.84h8.47l10.52,17.48a113,113,0,0,1,7,13.66h.12c-.49-5.44-.67-10.7-.67-16.93V531.84h6.9V572.6h-7.68l-10.65-17.9a140.85,140.85,0,0,1-7.31-14.09l-.19.06c.31,5.26.37,10.64.37,17.35V572.6Z" transform="translate(-62.98 -45.01)"/><path class="cls-3" d="M380.78,507.93c0,14.28-8.66,22.43-20.42,22.43-12,0-19.59-9.16-19.59-21.67,0-13.09,8.22-22.31,20.23-22.31C373.45,486.38,380.78,495.79,380.78,507.93Zm-31.79.63c0,8.66,4.36,15.55,11.82,15.55s11.75-7,11.75-15.87c0-8-4-15.61-11.75-15.61S349,499.77,349,508.56Z" transform="translate(-62.98 -45.01)"/><path class="cls-3" d="M387.29,521.2a21.57,21.57,0,0,0,10.3,2.72c5,0,7.77-2.34,7.77-5.82,0-3.22-2.15-5.12-7.58-7.08-7-2.52-11.5-6.25-11.5-12.38,0-6.95,5.81-12.26,15-12.26a22.66,22.66,0,0,1,10.24,2.14l-1.9,6.26a18.08,18.08,0,0,0-8.47-2c-4.93,0-7.08,2.65-7.08,5.12,0,3.29,2.47,4.8,8.16,7,7.39,2.79,11,6.51,11,12.64,0,6.83-5.18,12.77-16.18,12.77-4.48,0-9.16-1.26-11.5-2.65Z" transform="translate(-62.98 -45.01)"/><path class="cls-3" d="M348.33,588.92l-2.66,8.78h-5.84l9.93-31H357l10.07,31H361l-2.8-8.78Zm8.87-4.27L354.77,577c-.6-1.88-1.11-4-1.56-5.79h-.1c-.46,1.79-.92,3.95-1.47,5.79l-2.39,7.63Z" transform="translate(-62.98 -45.01)"/><path class="cls-3" d="M370.9,582.77c0-2.95-.09-5.34-.18-7.45h5l.28,3.45h.09a8.7,8.7,0,0,1,7.67-4c5.15,0,9.43,4.42,9.43,11.4,0,8.09-5.11,12-10.21,12a7.35,7.35,0,0,1-6.29-3h-.09V606.8H370.9Zm5.66,5.56a5.75,5.75,0,0,0,.18,1.56,5.1,5.1,0,0,0,5,4c3.59,0,5.7-3,5.7-7.4,0-4-1.93-7.17-5.56-7.17a5.28,5.28,0,0,0-5.06,4.18,5.45,5.45,0,0,0-.22,1.43Z" transform="translate(-62.98 -45.01)"/><path class="cls-3" d="M397.79,582.77c0-2.95-.09-5.34-.18-7.45h5l.28,3.45h.09a8.7,8.7,0,0,1,7.67-4c5.15,0,9.42,4.42,9.42,11.4,0,8.09-5.1,12-10.2,12a7.37,7.37,0,0,1-6.3-3h-.09V606.8h-5.65Zm5.65,5.56a5.75,5.75,0,0,0,.19,1.56,5.1,5.1,0,0,0,5,4c3.59,0,5.7-3,5.7-7.4,0-4-1.93-7.17-5.56-7.17a5.27,5.27,0,0,0-5.06,4.18,5.08,5.08,0,0,0-.23,1.43Z" transform="translate(-62.98 -45.01)"/><path class="cls-3" d="M424.68,565.07h5.7V597.7h-5.7Z" transform="translate(-62.98 -45.01)"/><path class="cls-3" d="M440.49,588.1c.14,4,3.31,5.79,6.89,5.79a16.92,16.92,0,0,0,6.21-1l.82,3.9a21.07,21.07,0,0,1-7.81,1.38c-7.26,0-11.53-4.46-11.53-11.3,0-6.21,3.76-12.05,10.93-12.05s9.66,6,9.66,10.9a14.09,14.09,0,0,1-.19,2.39Zm9.83-4c.05-2.06-.87-5.47-4.64-5.47-3.49,0-5,3.18-5.19,5.47Z" transform="translate(-62.98 -45.01)"/><path class="cls-3" d="M469.72,582c0-2.57-.05-4.73-.18-6.66h4.87l.23,3.31h.14a7.73,7.73,0,0,1,6.89-3.82,6.45,6.45,0,0,1,6.2,4.14h.1a8.47,8.47,0,0,1,2.75-2.8,7.45,7.45,0,0,1,4.51-1.34c3.72,0,7.49,2.53,7.49,9.7V597.7H497.2V585.34c0-3.72-1.28-5.93-4-5.93a4.32,4.32,0,0,0-4,3,8,8,0,0,0-.27,1.88V597.7h-5.52v-13c0-3.12-1.24-5.33-3.86-5.33a4.41,4.41,0,0,0-4,3.22,4.81,4.81,0,0,0-.32,1.84V597.7h-5.52Z" transform="translate(-62.98 -45.01)"/><path class="cls-3" d="M521.29,597.7l-.37-2.48h-.14a8.28,8.28,0,0,1-6.61,3,6.65,6.65,0,0,1-7-6.67c0-5.65,5-8.5,13.29-8.45v-.37c0-1.47-.6-3.91-4.55-3.91a11.78,11.78,0,0,0-6,1.66l-1.11-3.68a16.14,16.14,0,0,1,8.09-2c7.17,0,9.24,4.55,9.24,9.43v8.08a35.87,35.87,0,0,0,.32,5.38Zm-.74-10.94c-4-.09-7.81.78-7.81,4.19a3,3,0,0,0,3.22,3.21,4.58,4.58,0,0,0,4.41-3.08,4,4,0,0,0,.18-1.24Z" transform="translate(-62.98 -45.01)"/><path class="cls-3" d="M548.5,597a16.41,16.41,0,0,1-6.34,1.15c-7,0-11.54-4.46-11.54-11.4,0-6.71,4.6-12,12.46-12a14.1,14.1,0,0,1,5.47,1.06l-1,4.23a10,10,0,0,0-4.27-.87c-4.32,0-6.89,3.17-6.85,7.26,0,4.59,3,7.21,6.85,7.21a11.08,11.08,0,0,0,4.46-.87Z" transform="translate(-62.98 -45.01)"/><path class="cls-3" d="M580.4,581.89c0,10.39-6.3,16.32-14.85,16.32-8.73,0-14.25-6.67-14.25-15.77,0-9.51,6-16.22,14.71-16.22C575.07,566.22,580.4,573.07,580.4,581.89Zm-23.12.46c0,6.3,3.17,11.31,8.59,11.31s8.55-5.06,8.55-11.54c0-5.84-2.89-11.35-8.55-11.35S557.28,576,557.28,582.35Z" transform="translate(-62.98 -45.01)"/><path class="cls-3" d="M584.76,592.51a12.67,12.67,0,0,0,5.75,1.61c2.48,0,3.58-1,3.58-2.48s-.91-2.3-3.67-3.27c-4.37-1.51-6.21-3.9-6.16-6.52,0-4,3.26-7,8.46-7a13.07,13.07,0,0,1,5.92,1.34l-1.1,4a9.94,9.94,0,0,0-4.73-1.29c-2,0-3.13,1-3.13,2.34s1.06,2.12,3.91,3.13c4,1.47,5.93,3.54,6,6.85,0,4-3.17,7-9.1,7a14.44,14.44,0,0,1-6.8-1.56Z" transform="translate(-62.98 -45.01)"/><g id="OS-icon"><rect class="cls-18" x="75.95" y="420.64" width="113.29" height="172.36" rx="9.98"/><path class="cls-19" d="M174.69,583.54l-57.23-27a.44.44,0,0,1-.06-.77l54.07-36.58" transform="translate(-62.98 -45.01)"/><path class="cls-19" d="M216.89,518.26l52.61,35.2a.44.44,0,0,1-.05.77l-58.9,28.18" transform="translate(-62.98 -45.01)"/></g></g><g id="_Small_info_bar_-Battery" data-name=" Small info bar -Battery"><rect class="cls-1" x="663.63" y="354.2" width="597.14" height="287.23" rx="52.84"/><line class="cls-2" x1="701.42" y1="414.67" x2="867.71" y2="580.97"/><line class="cls-2" x1="867.71" y1="414.67" x2="701.42" y2="580.97"/><path class="cls-2" d="M791.24,524.74V565.5h-7.43V524.74Z" transform="translate(-62.98 -45.01)"/><path class="cls-2" d="M829,564.29c-1.76.91-5.63,1.82-10.52,1.82-12.94,0-20.8-8.11-20.8-20.5,0-13.43,9.31-21.53,21.76-21.53a23.53,23.53,0,0,1,9.92,1.81l-1.63,5.93a19.78,19.78,0,0,0-8-1.57c-8.29,0-14.28,5.2-14.28,15,0,9,5.27,14.7,14.22,14.7a21,21,0,0,0,8.1-1.51Z" transform="translate(-62.98 -45.01)"/><path class="cls-2" d="M869.92,544.7c0,13.67-8.29,21.47-19.53,21.47-11.49,0-18.75-8.77-18.75-20.74,0-12.52,7.86-21.35,19.35-21.35C862.9,524.08,869.92,533.09,869.92,544.7Zm-30.42.6c0,8.29,4.17,14.88,11.31,14.88s11.25-6.65,11.25-15.18c0-7.68-3.81-14.93-11.25-14.93S839.5,536.9,839.5,545.3Z" transform="translate(-62.98 -45.01)"/><path class="cls-2" d="M876.33,565.5V524.74h8.46l10.52,17.48a111.64,111.64,0,0,1,7,13.67h.12c-.48-5.45-.67-10.71-.67-16.94V524.74h6.9V565.5h-7.68L890.3,547.6A139.88,139.88,0,0,1,883,533.51l-.18.06c.3,5.26.36,10.65.36,17.36V565.5Z" transform="translate(-62.98 -45.01)"/><path class="cls-3" d="M995.12,480.54a65.63,65.63,0,0,1,11.31-.88c5.76,0,9.29.69,12.2,2.71a9,9,0,0,1,4.43,8c0,3.92-2.47,7.52-7.08,9.23v.12c4.48,1.14,8.59,4.68,8.59,10.56a11,11,0,0,1-4.11,8.78c-3,2.66-8,4-15.8,4a74,74,0,0,1-9.54-.57Zm7.71,16.81h4c5.38,0,8.41-2.53,8.41-6.13,0-4-3-5.81-8-5.81a21.28,21.28,0,0,0-4.43.31Zm0,19.59a33.59,33.59,0,0,0,4.11.19c5,0,9.42-1.89,9.42-7.14,0-4.93-4.3-6.95-9.67-6.95h-3.86Z" transform="translate(-62.98 -45.01)"/><path class="cls-3" d="M1048.71,522.57l-.5-3.41H1048a11.44,11.44,0,0,1-9.1,4.11c-6.2,0-9.67-4.49-9.67-9.17,0-7.77,6.89-11.69,18.26-11.63V502c0-2-.82-5.38-6.26-5.38a16.23,16.23,0,0,0-8.27,2.28l-1.52-5.06a22.16,22.16,0,0,1,11.12-2.71c9.86,0,12.71,6.25,12.71,12.95v11.13a48.84,48.84,0,0,0,.44,7.39Zm-1-15c-5.5-.13-10.74,1.07-10.74,5.75a4.08,4.08,0,0,0,4.42,4.42,6.3,6.3,0,0,0,6.07-4.23,5.58,5.58,0,0,0,.25-1.71Z" transform="translate(-62.98 -45.01)"/><path class="cls-3" d="M1072,483v8.78h7.4v5.82H1072v13.58c0,3.73,1,5.69,4,5.69a11.53,11.53,0,0,0,3-.38l.12,5.94a16.82,16.82,0,0,1-5.62.76,9,9,0,0,1-6.7-2.53c-1.64-1.77-2.4-4.55-2.4-8.59V497.61H1060v-5.82h4.42v-7Z" transform="translate(-62.98 -45.01)"/><path class="cls-3" d="M1094.22,483v8.78h7.39v5.82h-7.39v13.58c0,3.73,1,5.69,4,5.69a11.38,11.38,0,0,0,3-.38l.13,5.94a16.89,16.89,0,0,1-5.63.76,9,9,0,0,1-6.7-2.53c-1.64-1.77-2.4-4.55-2.4-8.59V497.61h-4.42v-5.82h4.42v-7Z" transform="translate(-62.98 -45.01)"/><path class="cls-3" d="M1112.61,509.36c.19,5.56,4.55,8,9.48,8a23,23,0,0,0,8.53-1.39l1.14,5.38A29.12,29.12,0,0,1,1121,523.2c-10,0-15.86-6.13-15.86-15.55,0-8.53,5.18-16.55,15-16.55s13.27,8.21,13.27,15a18.77,18.77,0,0,1-.25,3.29Zm13.52-5.43c.07-2.85-1.2-7.53-6.38-7.53-4.8,0-6.83,4.37-7.14,7.53Z" transform="translate(-62.98 -45.01)"/><path class="cls-3" d="M1139.72,501.71c0-4.17-.06-7.14-.25-9.92h6.76l.25,5.88h.25c1.52-4.36,5.12-6.57,8.41-6.57a8.53,8.53,0,0,1,1.83.18v7.34a10.44,10.44,0,0,0-2.27-.26,6.85,6.85,0,0,0-7,5.88,13.06,13.06,0,0,0-.26,2.4v15.93h-7.77Z" transform="translate(-62.98 -45.01)"/><path class="cls-3" d="M1168.47,491.79l5.56,16.5c.64,1.89,1.27,4.23,1.71,6h.19c.51-1.77,1.07-4,1.64-6.07l4.81-16.43h8.34l-7.71,21c-4.23,11.51-7.08,16.63-10.74,19.79a15.78,15.78,0,0,1-8.16,4l-1.77-6.58a13.28,13.28,0,0,0,4.55-2.14,13.64,13.64,0,0,0,4.24-4.87,3.18,3.18,0,0,0,.5-1.39,3.28,3.28,0,0,0-.44-1.52l-11.25-28.25Z" transform="translate(-62.98 -45.01)"/><path class="cls-3" d="M1005.43,590.6V583H991.92v-3.68l12.18-18.61h6.66v18h3.87V583h-3.87v7.58Zm0-11.85v-8.14c0-1.7.05-3.45.19-5.19h-.19c-.92,1.88-1.7,3.4-2.62,5.05l-5.47,8.18,0,.1Z" transform="translate(-62.98 -45.01)"/><path class="cls-3" d="M1019.91,586.56a15,15,0,0,0,3.13-.09,11.34,11.34,0,0,0,6.06-2.3,11.05,11.05,0,0,0,3.82-6.62l-.09,0a8.24,8.24,0,0,1-6.53,2.67c-5.19,0-9-3.77-9-9.28a10.59,10.59,0,0,1,10.8-10.67c6.94,0,10.66,5.47,10.66,12.73,0,6.39-2.11,10.94-5.19,13.88a16.48,16.48,0,0,1-10.21,4.1,24.19,24.19,0,0,1-3.4.09Zm2.94-16c0,3.07,1.8,5.46,4.92,5.46a5.44,5.44,0,0,0,4.83-2.48,3.39,3.39,0,0,0,.32-1.61c0-4-1.47-7.53-5.15-7.53C1024.92,564.41,1022.85,566.93,1022.85,570.57Z" transform="translate(-62.98 -45.01)"/><path class="cls-3" d="M1042.62,587.48a3.44,3.44,0,0,1,3.49-3.63,3.63,3.63,0,0,1,0,7.26A3.44,3.44,0,0,1,1042.62,587.48Z" transform="translate(-62.98 -45.01)"/><path class="cls-3" d="M1055.4,586.56a14.9,14.9,0,0,0,3.12-.09,11.37,11.37,0,0,0,6.07-2.3,11,11,0,0,0,3.81-6.62l-.09,0a8.24,8.24,0,0,1-6.53,2.67c-5.19,0-9-3.77-9-9.28a10.59,10.59,0,0,1,10.8-10.67c6.94,0,10.66,5.47,10.66,12.73,0,6.39-2.11,10.94-5.19,13.88a16.47,16.47,0,0,1-10.2,4.1,24.24,24.24,0,0,1-3.4.09Zm2.94-16c0,3.07,1.79,5.46,4.91,5.46a5.43,5.43,0,0,0,4.83-2.48,3.39,3.39,0,0,0,.32-1.61c0-4-1.47-7.53-5.15-7.53C1060.41,564.41,1058.34,566.93,1058.34,570.57Z" transform="translate(-62.98 -45.01)"/><path class="cls-3" d="M1091.89,590.6l-7.58-31h6l2.94,14.06c.78,3.77,1.51,7.72,2,10.8h.09c.51-3.26,1.38-6.94,2.25-10.85l3.36-14h5.93l3.08,14.24c.78,3.68,1.42,7.13,1.88,10.48h.09c.55-3.4,1.29-6.94,2.12-10.71l3.21-14h5.75l-8.32,31h-6.07L1105.45,576a86.61,86.61,0,0,1-1.7-9.83h-.09c-.56,3.31-1.15,6.3-2.07,9.83L1098,590.6Z" transform="translate(-62.98 -45.01)"/><path class="cls-3" d="M1126.27,558h5.7V571.3h.09a7.56,7.56,0,0,1,2.8-2.57,7.64,7.64,0,0,1,3.87-1c3.81,0,7.81,2.52,7.81,9.69V590.6h-5.65V578.06c0-3.27-1.2-5.7-4.32-5.7a4.63,4.63,0,0,0-4.6,4.87V590.6h-5.7Z" transform="translate(-62.98 -45.01)"/><g id="Baterry-icon"><rect class="cls-3" x="739.2" y="427.51" width="86.18" height="159.75"/><rect class="cls-3" x="762.32" y="404.38" width="42.04" height="37.84"/></g></g><g id="_Small_info_bar_-Storage" data-name=" Small info bar -Storage"><rect class="cls-1" x="1307.66" y="355.45" width="597.14" height="287.23" rx="52.84"/><line class="cls-2" x1="1345.45" y1="415.92" x2="1511.75" y2="582.21"/><line class="cls-2" x1="1511.75" y1="415.92" x2="1345.45" y2="582.21"/><path class="cls-2" d="M1435.28,526v40.76h-7.44V526Z" transform="translate(-62.98 -45.01)"/><path class="cls-2" d="M1473,565.54c-1.75.9-5.62,1.81-10.52,1.81-12.94,0-20.8-8.1-20.8-20.5,0-13.42,9.31-21.53,21.77-21.53a23.37,23.37,0,0,1,9.92,1.82l-1.64,5.92a19.87,19.87,0,0,0-8-1.57c-8.28,0-14.27,5.2-14.27,15,0,9,5.26,14.69,14.21,14.69a20.75,20.75,0,0,0,8.1-1.51Z" transform="translate(-62.98 -45.01)"/><path class="cls-2" d="M1514,545.94c0,13.67-8.28,21.47-19.53,21.47-11.49,0-18.75-8.77-18.75-20.74,0-12.52,7.87-21.35,19.36-21.35C1506.94,525.32,1514,534.33,1514,545.94Zm-30.41.61c0,8.28,4.17,14.87,11.3,14.87s11.25-6.65,11.25-15.17c0-7.68-3.81-14.94-11.25-14.94S1483.54,538.14,1483.54,546.55Z" transform="translate(-62.98 -45.01)"/><path class="cls-2" d="M1520.36,566.75V526h8.47l10.52,17.47a112.25,112.25,0,0,1,7,13.67h.12c-.48-5.44-.66-10.7-.66-16.93V526h6.89v40.76H1545l-10.64-17.9a144.21,144.21,0,0,1-7.32-14.09l-.18.06c.3,5.26.36,10.64.36,17.35v14.58Z" transform="translate(-62.98 -45.01)"/><path class="cls-3" d="M1625.88,515.35a21.58,21.58,0,0,0,10.31,2.71c5,0,7.77-2.33,7.77-5.81,0-3.22-2.15-5.12-7.58-7.08-7-2.53-11.51-6.26-11.51-12.39,0-6.95,5.82-12.26,15-12.26a22.45,22.45,0,0,1,10.24,2.15l-1.89,6.26a18.06,18.06,0,0,0-8.47-2c-4.93,0-7.08,2.66-7.08,5.12,0,3.29,2.46,4.81,8.15,7,7.4,2.78,11,6.51,11,12.64,0,6.83-5.18,12.77-16.18,12.77a25.29,25.29,0,0,1-11.5-2.66Z" transform="translate(-62.98 -45.01)"/><path class="cls-3" d="M1667.22,484.25V493h7.39v5.81h-7.39v13.59c0,3.73,1,5.69,4,5.69a11.38,11.38,0,0,0,3-.38l.13,5.94a17.16,17.16,0,0,1-5.63.76,9,9,0,0,1-6.7-2.53c-1.64-1.77-2.4-4.55-2.4-8.6V498.85h-4.42V493h4.42v-7Z" transform="translate(-62.98 -45.01)"/><path class="cls-3" d="M1709.37,508.14c0,11.31-8,16.37-15.8,16.37-8.72,0-15.42-6-15.42-15.86,0-10.12,6.64-16.31,15.93-16.31S1709.37,498.79,1709.37,508.14Zm-23.19.32c0,5.94,2.9,10.43,7.64,10.43,4.43,0,7.53-4.37,7.53-10.56,0-4.8-2.15-10.3-7.46-10.3C1688.39,498,1686.18,503.34,1686.18,508.46Z" transform="translate(-62.98 -45.01)"/><path class="cls-3" d="M1715.75,503c0-4.17-.06-7.14-.25-9.92h6.76l.26,5.87h.25c1.52-4.36,5.12-6.57,8.4-6.57a8,8,0,0,1,1.84.19v7.33a10.61,10.61,0,0,0-2.28-.25,6.85,6.85,0,0,0-7,5.88,12.92,12.92,0,0,0-.25,2.4v15.93h-7.78Z" transform="translate(-62.98 -45.01)"/><path class="cls-3" d="M1755,523.82l-.51-3.42h-.18a11.45,11.45,0,0,1-9.11,4.11c-6.19,0-9.67-4.49-9.67-9.16,0-7.78,6.89-11.7,18.27-11.63v-.51c0-2-.82-5.37-6.26-5.37a16.4,16.4,0,0,0-8.28,2.27l-1.51-5.05a22.12,22.12,0,0,1,11.12-2.72c9.86,0,12.7,6.26,12.7,13v11.12a48.84,48.84,0,0,0,.45,7.4Zm-1-15.05c-5.5-.12-10.75,1.08-10.75,5.75a4.08,4.08,0,0,0,4.43,4.43,6.3,6.3,0,0,0,6.07-4.24,5.52,5.52,0,0,0,.25-1.7Z" transform="translate(-62.98 -45.01)"/><path class="cls-3" d="M1797.91,493c-.12,2.08-.25,4.61-.25,8.84v17.45c0,6.44-1.33,11.06-4.55,14s-7.65,3.72-11.88,3.72c-3.92,0-8.09-.82-10.75-2.46l1.71-5.88a18.57,18.57,0,0,0,9,2.34c5.06,0,8.85-2.66,8.85-9.29v-2.66h-.12a10.4,10.4,0,0,1-9,4.56c-7.65,0-13.08-6.32-13.08-15.05,0-10.11,6.57-16.24,14-16.24a9.71,9.71,0,0,1,8.91,4.8h.12l.32-4.1Zm-8,12.32a7.58,7.58,0,0,0-.26-2.09,6.45,6.45,0,0,0-6.32-5c-4.36,0-7.58,3.79-7.58,10.05,0,5.25,2.65,9.48,7.52,9.48a6.63,6.63,0,0,0,6.32-4.68,13.3,13.3,0,0,0,.32-2.78Z" transform="translate(-62.98 -45.01)"/><path class="cls-3" d="M1811.5,510.61c.19,5.56,4.55,8,9.48,8a23.23,23.23,0,0,0,8.53-1.39l1.14,5.37a28.84,28.84,0,0,1-10.74,1.9c-10,0-15.87-6.13-15.87-15.55,0-8.53,5.18-16.56,15-16.56s13.28,8.22,13.28,15a18.74,18.74,0,0,1-.26,3.29Zm13.53-5.44c.06-2.84-1.21-7.52-6.39-7.52-4.8,0-6.82,4.36-7.14,7.52Z" transform="translate(-62.98 -45.01)"/><path class="cls-3" d="M1637,591.58v-3.42l3.53-3.24c7-6.48,10.35-10,10.39-14,0-2.64-1.42-5-5.33-5a10.94,10.94,0,0,0-6.39,2.46l-1.65-4a14.87,14.87,0,0,1,9.19-3.05c6.62,0,9.83,4.15,9.83,9,0,5.2-3.76,9.4-9,14.19l-2.62,2.24v.09h12.27v4.65Z" transform="translate(-62.98 -45.01)"/><path class="cls-3" d="M1680.62,566.57h-11.49l-.87,5.94a15.36,15.36,0,0,1,2.16-.14,13.32,13.32,0,0,1,7.26,1.92,8.49,8.49,0,0,1,3.91,7.53c0,5.66-4.74,10.27-12.09,10.27a17.2,17.2,0,0,1-7.9-1.74l1.14-4.24a15.33,15.33,0,0,0,6.58,1.55c3.31,0,6.48-1.87,6.48-5.43,0-3.38-2.53-5.62-8.51-5.62a26.51,26.51,0,0,0-4.09.28l2-15h15.44Z" transform="translate(-62.98 -45.01)"/><path class="cls-3" d="M1704.48,565.89a22.45,22.45,0,0,0-2.9.14c-6.25.73-9.28,4.56-10,8.67h.14a8.62,8.62,0,0,1,6.71-2.88c5.15,0,9.15,3.65,9.15,9.68A10.35,10.35,0,0,1,1697,592.09c-7.26,0-11.26-5.48-11.26-12.78,0-5.71,2.07-10.36,5.2-13.33a17.27,17.27,0,0,1,10.61-4.38,15.41,15.41,0,0,1,2.85-.09Zm-2.67,15.93c0-3.43-1.88-5.89-5.19-5.89a5.48,5.48,0,0,0-4.87,3.06,3.78,3.78,0,0,0-.37,1.78c.09,3.92,2,7.12,5.61,7.12C1699.93,587.89,1701.81,585.38,1701.81,581.82Z" transform="translate(-62.98 -45.01)"/><path class="cls-3" d="M1746.53,590.17a30.82,30.82,0,0,1-10,1.73c-5.24,0-9.19-1.32-12.13-4.1a15.18,15.18,0,0,1-4.32-11.32c0-9.72,7-16,17.23-16a20.78,20.78,0,0,1,8.23,1.46l-1.24,4.52a16.81,16.81,0,0,0-7-1.32c-6.61,0-11.26,3.88-11.26,11,0,7,4.33,11.14,10.76,11.14a10.77,10.77,0,0,0,4.27-.64V579h-5.47v-4.42h10.94Z" transform="translate(-62.98 -45.01)"/><path class="cls-3" d="M1752.32,561.23a48.36,48.36,0,0,1,8.23-.63c4.18,0,6.76.5,8.87,2a6.48,6.48,0,0,1,3.22,5.75c0,2.83-1.79,5.43-5.15,6.66v.09c3.26.82,6.25,3.38,6.25,7.62a8,8,0,0,1-3,6.35c-2.2,1.91-5.83,2.87-11.48,2.87a54,54,0,0,1-7-.41Zm5.61,12.14h2.9c3.9,0,6.11-1.82,6.11-4.42,0-2.88-2.21-4.2-5.79-4.2a15.23,15.23,0,0,0-3.22.23Zm0,14.15a25.37,25.37,0,0,0,3,.14c3.63,0,6.85-1.37,6.85-5.16,0-3.56-3.13-5-7-5h-2.81Z" transform="translate(-62.98 -45.01)"/><path class="cls-3" d="M1645.71,633.68c0,2.32.08,4.23.16,5.83h-4.35l-.24-3h-.08a7.09,7.09,0,0,1-6.27,3.39c-3.58,0-6.84-2.12-6.84-8.47V620.06h5v10.58c0,3.24,1,5.32,3.66,5.32a4.18,4.18,0,0,0,3.78-2.64,4.47,4.47,0,0,0,.28-1.52V620.06h5Z" transform="translate(-62.98 -45.01)"/><path class="cls-3" d="M1651.05,625.85c0-2.24,0-4.12-.16-5.79h4.35l.24,2.91h.12a7.07,7.07,0,0,1,6.23-3.35c3.42,0,7,2.2,7,8.35v11.54h-5v-11c0-2.8-1-4.92-3.74-4.92a4.14,4.14,0,0,0-3.86,2.88,5,5,0,0,0-.2,1.6v11.42h-5Z" transform="translate(-62.98 -45.01)"/><path class="cls-3" d="M1677.56,631.16c.12,3.52,2.89,5,6,5a14.81,14.81,0,0,0,5.43-.88l.72,3.39a18.48,18.48,0,0,1-6.83,1.2c-6.36,0-10.1-3.87-10.1-9.83,0-5.39,3.3-10.46,9.57-10.46s8.45,5.19,8.45,9.47a12.07,12.07,0,0,1-.16,2.07Zm8.6-3.43c0-1.8-.76-4.76-4.06-4.76-3,0-4.34,2.76-4.54,4.76Z" transform="translate(-62.98 -45.01)"/><path class="cls-3" d="M1697.79,620.06l2.33,3.67c.64,1,1.21,2,1.77,3h.12c.56-1.08,1.13-2.08,1.69-3.08l2.17-3.59h5.39l-6.56,9.34,6.68,10.11h-5.59l-2.41-3.87c-.65-1-1.21-2.08-1.77-3.16h-.08c-.57,1.12-1.13,2.08-1.77,3.16l-2.26,3.87H1692l6.8-9.9-6.55-9.55Z" transform="translate(-62.98 -45.01)"/><path class="cls-3" d="M1714.36,626.53c0-2.56-.09-4.63-.17-6.47h4.35l.24,3h.08a7.66,7.66,0,0,1,6.72-3.43c4.5,0,8.24,3.83,8.24,9.9,0,7-4.46,10.43-8.93,10.43a6.47,6.47,0,0,1-5.51-2.59h-.08v10.06h-4.94Zm4.94,4.83a5.07,5.07,0,0,0,.16,1.36,4.48,4.48,0,0,0,4.35,3.44c3.13,0,5-2.6,5-6.43,0-3.44-1.68-6.24-4.86-6.24a4.62,4.62,0,0,0-4.43,3.64,4.46,4.46,0,0,0-.2,1.24Z" transform="translate(-62.98 -45.01)"/><path class="cls-3" d="M1748.9,639.51l-.32-2.15h-.12a7.32,7.32,0,0,1-5.79,2.59,5.8,5.8,0,0,1-6.16-5.79c0-4.91,4.39-7.39,11.63-7.35v-.32c0-1.28-.52-3.4-4-3.4a10.43,10.43,0,0,0-5.27,1.44l-1-3.19a14.2,14.2,0,0,1,7.08-1.72c6.28,0,8.09,4,8.09,8.19v7a31.09,31.09,0,0,0,.28,4.67Zm-.64-9.51c-3.5-.08-6.84.68-6.84,3.64a2.59,2.59,0,0,0,2.82,2.8,4,4,0,0,0,3.86-2.68,3.54,3.54,0,0,0,.16-1.08Z" transform="translate(-62.98 -45.01)"/><path class="cls-3" d="M1758.31,625.85c0-2.24,0-4.12-.16-5.79h4.35l.24,2.91h.12a7.07,7.07,0,0,1,6.23-3.35c3.42,0,7,2.2,7,8.35v11.54h-5v-11c0-2.8-1-4.92-3.74-4.92a4.14,4.14,0,0,0-3.86,2.88,5,5,0,0,0-.2,1.6v11.42h-5Z" transform="translate(-62.98 -45.01)"/><path class="cls-3" d="M1799.38,611.15V634c0,2,.08,4.15.16,5.47h-4.43l-.2-3.07h-.08a7.07,7.07,0,0,1-6.39,3.51c-4.67,0-8.37-4-8.37-10,0-6.51,4.06-10.38,8.77-10.38,2.69,0,4.62,1.12,5.51,2.55h.08v-11Zm-5,17a6.93,6.93,0,0,0-.12-1.28,4.33,4.33,0,0,0-4.27-3.48c-3.17,0-4.94,2.8-4.94,6.43s1.77,6.16,4.9,6.16a4.36,4.36,0,0,0,4.27-3.48,5.48,5.48,0,0,0,.16-1.44Z" transform="translate(-62.98 -45.01)"/><path class="cls-3" d="M1815.7,639.51l-.32-2.15h-.12a7.32,7.32,0,0,1-5.79,2.59,5.8,5.8,0,0,1-6.15-5.79c0-4.91,4.38-7.39,11.62-7.35v-.32c0-1.28-.52-3.4-4-3.4a10.43,10.43,0,0,0-5.27,1.44l-1-3.19a14.2,14.2,0,0,1,7.08-1.72c6.28,0,8.09,4,8.09,8.19v7a31.09,31.09,0,0,0,.28,4.67Zm-.64-9.51c-3.5-.08-6.84.68-6.84,3.64a2.59,2.59,0,0,0,2.82,2.8,4,4,0,0,0,3.86-2.68,3.54,3.54,0,0,0,.16-1.08Z" transform="translate(-62.98 -45.01)"/><path class="cls-3" d="M1825,639.51c.08-1.32.16-3.47.16-5.47V611.15h5v11.58h.08a7.12,7.12,0,0,1,6.28-3.11c4.78,0,8.2,4,8.16,9.86,0,7-4.46,10.47-8.89,10.47a6.76,6.76,0,0,1-6.19-3.35h-.08l-.24,2.91Zm5.11-8a5.43,5.43,0,0,0,.12,1.16,4.56,4.56,0,0,0,4.39,3.44c3.09,0,5-2.48,5-6.39,0-3.44-1.65-6.24-4.94-6.24a4.62,4.62,0,0,0-4.39,3.6,5.88,5.88,0,0,0-.16,1.28Z" transform="translate(-62.98 -45.01)"/><path class="cls-3" d="M1848.64,611.15h5v28.36h-5Z" transform="translate(-62.98 -45.01)"/><path class="cls-3" d="M1862.48,631.16c.12,3.52,2.89,5,6,5a14.81,14.81,0,0,0,5.43-.88l.72,3.39a18.53,18.53,0,0,1-6.84,1.2c-6.35,0-10.09-3.87-10.09-9.83,0-5.39,3.3-10.46,9.57-10.46s8.45,5.19,8.45,9.47a12.07,12.07,0,0,1-.16,2.07Zm8.6-3.43c0-1.8-.76-4.76-4.06-4.76-3.06,0-4.34,2.76-4.54,4.76Z" transform="translate(-62.98 -45.01)"/><g id="Storage-icon"><rect class="cls-3" x="1353.29" y="449.37" width="176.04" height="35.21"/><rect class="cls-2" x="1364.73" y="457.29" width="17.6" height="17.6" rx="8.8"/><rect class="cls-3" x="1352.4" y="491.35" width="176.04" height="35.21"/><rect class="cls-2" x="1363.84" y="499.27" width="17.6" height="17.6" rx="8.8"/><rect class="cls-3" x="1351.72" y="532.18" width="176.04" height="35.21"/><rect class="cls-2" x="1363.17" y="540.1" width="17.6" height="17.6" rx="8.8"/></g></g></g></svg>