<svg id="Layer_1" data-name="Layer 1" xmlns="http://www.w3.org/2000/svg" viewBox="0 0 582.24 243.16"><defs><style>.cls-1,.cls-4{fill:#231f20;}.cls-1,.cls-2,.cls-3,.cls-4{stroke:#231f20;stroke-miterlimit:10;}.cls-2,.cls-3{fill:none;}.cls-2{stroke-width:6.33px;}.cls-3{stroke-width:9.69px;}.cls-4{stroke-width:3.16px;}</style></defs><g id="_LOGO" data-name=" LOGO"><path class="cls-1" d="M32.37,80.05h8V161h-8Zm5,39.27H64.91a15.56,15.56,0,0,0,7.93-2,13.32,13.32,0,0,0,5.28-5.59A18.5,18.5,0,0,0,80,103.41a18,18,0,0,0-1.86-8.34,13.41,13.41,0,0,0-5.29-5.59,15.64,15.64,0,0,0-8-2H37.32V80.05H64.47a25.37,25.37,0,0,1,12.32,2.89A20.27,20.27,0,0,1,85,91.15a25,25,0,0,1,2.92,12.26A25,25,0,0,1,85,115.67a20.22,20.22,0,0,1-8.26,8.21,25.39,25.39,0,0,1-12.29,2.89H37.32Zm25.92,5,7.4-2.56L91.33,161H81.76Z" transform="translate(-19.76 -26.73)"/><path class="cls-1" d="M106.63,80.1h8V161h-8Zm5.5,0h46.45v7.46H112.13Zm0,37h40.33v7.46H112.13Zm0,36.44h46.45V161H112.13Z" transform="translate(-19.76 -26.73)"/><path class="cls-1" d="M166.37,80.1h8.45l23.31,69.53,23.3-69.53h8.46L203.29,166H193.8Z" transform="translate(-19.76 -26.73)"/><path class="cls-1" d="M251.81,161h-8V80.1h8Z" transform="translate(-19.76 -26.73)"/><path class="cls-1" d="M273.5,80.1h8V161h-8Zm5.51,0h46.44v7.46H279Zm0,37h40.32v7.46H279Zm0,36.44h46.44V161H279Z" transform="translate(-19.76 -26.73)"/><path class="cls-1" d="M377,80.1h5.57l17.68,69.53L417.34,80.1h9l-22,80.88h-8.23l-16-63.74L363.44,161h-8.23l-22-80.88h9l17.08,69.53Z" transform="translate(-19.76 -26.73)"/><path class="cls-1" d="M141.45,215.09V248h-8V215.09l-26.31-48h8.73l21.58,40.38L159,167.09h8.74Z" transform="translate(-19.76 -26.73)"/><path class="cls-1" d="M193.12,167.09h9.68L232.61,248h-8.9L198,175.49,172.2,248h-8.89ZM177,220.88H219.6v7.45H177Z" transform="translate(-19.76 -26.73)"/><path class="cls-1" d="M244.85,167h8V248h-8Zm5,39.27h27.59a15.58,15.58,0,0,0,7.93-2,13.38,13.38,0,0,0,5.28-5.59,18.5,18.5,0,0,0,1.92-8.34,18,18,0,0,0-1.86-8.35,13.47,13.47,0,0,0-5.29-5.59,15.74,15.74,0,0,0-8-2H249.8V167h27.14a25.31,25.31,0,0,1,12.32,2.89,20.27,20.27,0,0,1,8.24,8.2,27.22,27.22,0,0,1,0,24.53,20.28,20.28,0,0,1-8.26,8.21,25.4,25.4,0,0,1-12.3,2.89H249.8Zm25.92,4.95,7.4-2.56L303.81,248h-9.57Z" transform="translate(-19.76 -26.73)"/><path class="cls-1" d="M319.11,167.09h8V248h-8Zm7.67,73.42h18.3q11.24,0,16.83-5.25t5.59-15.83v-23.8q0-10.57-5.59-15.83t-16.83-5.26h-18.3v-7.45h18q10.29,0,17.13,3.2a21.54,21.54,0,0,1,10.24,9.65q3.39,6.45,3.39,16.13V219q0,9.67-3.42,16.1a21.82,21.82,0,0,1-10.26,9.65Q355,248,344.69,248H326.78Z" transform="translate(-19.76 -26.73)"/><rect class="cls-2" x="215.18" y="15.82" width="28.48" height="28.48" rx="14.24"/><path class="cls-3" d="M457.76,112.16H568c8.29,0,15,6.45,15,14.41v66c0,8-6.76,14.51-15.1,14.51H490.72l-46.15,31.64V207.1h-6.75a12.77,12.77,0,0,1-13-12.51V125.3a13.41,13.41,0,0,1,13.67-13.14Z" transform="translate(-19.76 -26.73)"/><rect class="cls-4" x="447.89" y="107.59" width="79.11" height="6.33" rx="2.57"/><rect class="cls-4" x="434.7" y="129.74" width="79.11" height="6.33" rx="2.57"/><rect class="cls-4" x="454.48" y="151.89" width="79.11" height="6.33" rx="2.57"/><line class="cls-2" x1="262.64" y1="231" x2="101.26" y2="231"/><path class="cls-2" d="M266.58,257.73l80.08-.08a45,45,0,0,0,26.94-9h0a33,33,0,0,0,13.18-26.31c0-20.61,0-53.23,0-53.23h25.32v28.22a22.71,22.71,0,0,0,19,22.41h0v44.3l63.29-41.13h73.7a32.27,32.27,0,0,0,16-4.26h0a29.15,29.15,0,0,0,14.7-25.32c0-24.91,0-68.52,0-68.52h0A28,28,0,0,0,573.65,97l-47.59-.65H443.78l-9.49-41.13" transform="translate(-19.76 -26.73)"/><path class="cls-2" d="M121,260.89V220.73a16.58,16.58,0,0,0-2-7.8L95.7,169.12H22.92V77.36l15.82-19" transform="translate(-19.76 -26.73)"/><rect class="cls-2" x="398.71" y="3.16" width="28.48" height="28.48" rx="14.24"/><rect class="cls-2" x="32.42" y="29.89" width="28.48" height="28.48" rx="14.24" transform="translate(73.55 61.53) rotate(-180)"/></g></svg>