<svg id="Layer_1" data-name="Layer 1" xmlns="http://www.w3.org/2000/svg" viewBox="0 0 26.75 23.73"><defs><style>.cls-1{fill:#fff;}.cls-1,.cls-2,.cls-3,.cls-4,.cls-5{stroke:#231f20;stroke-miterlimit:10;}.cls-1,.cls-2{stroke-width:1.25px;}.cls-2{fill:none;}.cls-3,.cls-4,.cls-5{fill:#231f20;}.cls-3{stroke-width:0.61px;}.cls-4{stroke-width:0.62px;}.cls-5{stroke-width:0.66px;}</style></defs><g id="Clender-icon"><rect class="cls-1" x="0.62" y="2.36" width="25.5" height="20.75" rx="3.13"/><line class="cls-2" x1="0.62" y1="8.61" x2="26.12" y2="8.61"/><rect class="cls-3" x="5.87" y="0.41" width="1.5" height="4.16"/><rect class="cls-4" x="18.79" y="0.31" width="1.58" height="4.16"/><rect class="cls-5" x="4.87" y="11.36" width="1.5" height="1.5"/><rect class="cls-5" x="10.12" y="11.36" width="1.5" height="1.5"/><rect class="cls-5" x="15.12" y="11.36" width="1.5" height="1.5"/><rect class="cls-5" x="20.12" y="11.36" width="1.5" height="1.5"/><rect class="cls-5" x="4.87" y="15.36" width="1.5" height="1.5"/><rect class="cls-5" x="10.12" y="15.36" width="1.5" height="1.5"/><rect class="cls-5" x="15.12" y="15.36" width="1.5" height="1.5"/><rect class="cls-5" x="20.12" y="15.36" width="1.5" height="1.5"/><rect class="cls-5" x="4.87" y="19.11" width="1.5" height="1.5"/><rect class="cls-5" x="10.12" y="19.11" width="1.5" height="1.5"/><rect class="cls-5" x="15.12" y="19.11" width="1.5" height="1.5"/></g></svg>