<svg id="Layer_1" data-name="Layer 1" xmlns="http://www.w3.org/2000/svg" viewBox="0 0 69 69"><defs><style>.cls-1{fill:#fff;}</style></defs><rect width="69" height="69"/><g id="_TWITTER" data-name=" TWITTER"><g id="Twittwe"><path class="cls-1" d="M68,13.9a27.59,27.59,0,0,1-7.9,2.16,13.79,13.79,0,0,0,6.05-7.6,27.54,27.54,0,0,1-8.73,3.33A13.76,13.76,0,0,0,33.63,21.2,14,14,0,0,0,34,24.33,39,39,0,0,1,5.65,10,13.76,13.76,0,0,0,9.91,28.32,13.65,13.65,0,0,1,3.68,26.6v.18a13.76,13.76,0,0,0,11,13.48,14,14,0,0,1-3.63.48,13.76,13.76,0,0,1-2.58-.25A13.75,13.75,0,0,0,21.34,50,27.55,27.55,0,0,1,4.27,55.93,27.25,27.25,0,0,1,1,55.73a38.82,38.82,0,0,0,21.07,6.18c25.29,0,39.12-20.95,39.12-39.12,0-.59,0-1.19,0-1.78A27.77,27.77,0,0,0,68,13.9Z" transform="translate(0 0)"/></g></g></svg>