<svg id="Layer_1" data-name="Layer 1" xmlns="http://www.w3.org/2000/svg" viewBox="0 0 615 335"><defs><style>.cls-1,.cls-4{fill:#fff;}.cls-1,.cls-2,.cls-3,.cls-4{stroke:#fff;stroke-miterlimit:10;}.cls-2,.cls-3{fill:none;}.cls-2{stroke-width:6.33px;}.cls-3{stroke-width:9.69px;}.cls-4{stroke-width:3.16px;}</style></defs><rect width="615" height="335"/><g id="_LOGO" data-name=" LOGO"><path class="cls-1" d="M29.46,101.74h8v80.93h-8ZM34.41,141H62a15.56,15.56,0,0,0,7.93-2,13.32,13.32,0,0,0,5.28-5.59,18.5,18.5,0,0,0,1.92-8.34,18,18,0,0,0-1.86-8.35A13.47,13.47,0,0,0,70,111.16a15.74,15.74,0,0,0-8-2H34.41v-7.45H61.55a25.38,25.38,0,0,1,12.33,2.89,20.31,20.31,0,0,1,8.23,8.2,27.22,27.22,0,0,1,0,24.53,20.28,20.28,0,0,1-8.26,8.21,25.4,25.4,0,0,1-12.3,2.89H34.41Zm25.92,5,7.4-2.56,20.69,39.27H78.85Z" transform="translate(1 1)"/><path class="cls-1" d="M103.72,101.79h8v80.88h-8Zm5.5,0h46.45v7.46H109.22Zm0,37h40.33v7.45H109.22Zm0,36.43h46.45v7.46H109.22Z" transform="translate(1 1)"/><path class="cls-1" d="M163.46,101.79h8.45l23.31,69.53,23.3-69.53H227l-26.6,85.86h-9.49Z" transform="translate(1 1)"/><path class="cls-1" d="M248.89,182.67h-8V101.79h8Z" transform="translate(1 1)"/><path class="cls-1" d="M270.59,101.79h8v80.88h-8Zm5.5,0h46.45v7.46H276.09Zm0,37h40.33v7.45H276.09Zm0,36.43h46.45v7.46H276.09Z" transform="translate(1 1)"/><path class="cls-1" d="M374.1,101.79h5.57l17.68,69.53,17.08-69.53h9l-22,80.88h-8.23l-16-63.75-16.69,63.75H352.3l-22-80.88h9l17.07,69.53Z" transform="translate(1 1)"/><path class="cls-1" d="M138.53,236.78v32.88h-8V236.78l-26.31-48H113l21.58,40.38,21.58-40.38h8.73Z" transform="translate(1 1)"/><path class="cls-1" d="M190.21,188.78h9.68l29.81,80.88h-8.9l-25.75-72.48-25.76,72.48h-8.9Zm-16.08,53.79h42.56V250H174.13Z" transform="translate(1 1)"/><path class="cls-1" d="M241.94,188.72h8v80.94h-8ZM246.89,228h27.59a15.52,15.52,0,0,0,7.92-2,13.34,13.34,0,0,0,5.29-5.59,18.5,18.5,0,0,0,1.92-8.34,17.87,17.87,0,0,0-1.87-8.35,13.38,13.38,0,0,0-5.28-5.59,15.74,15.74,0,0,0-8-2H246.89v-7.46H274a25.32,25.32,0,0,1,12.32,2.9,20.21,20.21,0,0,1,8.24,8.2,27.22,27.22,0,0,1,0,24.53,20.2,20.2,0,0,1-8.26,8.2,25.4,25.4,0,0,1-12.3,2.9H246.89Zm25.92,4.95,7.4-2.55,20.69,39.27h-9.57Z" transform="translate(1 1)"/><path class="cls-1" d="M316.2,188.78h8v80.88h-8Zm7.67,73.42h18.3q11.24,0,16.83-5.25t5.59-15.83V217.31q0-10.56-5.59-15.82t-16.83-5.26h-18.3v-7.45h18q10.29,0,17.13,3.2a21.47,21.47,0,0,1,10.23,9.65q3.41,6.45,3.4,16.13v22.92q0,9.67-3.42,16.1a21.8,21.8,0,0,1-10.27,9.65q-6.84,3.22-17.13,3.23H323.87Z" transform="translate(1 1)"/><rect class="cls-2" x="233.02" y="65.24" width="28.48" height="28.48" rx="14.24"/><path class="cls-3" d="M454.85,133.85H565.1c8.29,0,15,6.45,15,14.4v66c0,8-6.76,14.5-15.1,14.5H487.81l-46.15,31.65V228.78h-6.75a12.77,12.77,0,0,1-13-12.5V147a13.41,13.41,0,0,1,13.67-13.13Z" transform="translate(1 1)"/><rect class="cls-4" x="465.74" y="157" width="79.11" height="6.33" rx="2.57"/><rect class="cls-4" x="452.55" y="179.15" width="79.11" height="6.33" rx="2.57"/><rect class="cls-4" x="472.33" y="201.3" width="79.11" height="6.33" rx="2.57"/><line class="cls-2" x1="280.49" y1="280.41" x2="119.11" y2="280.41"/><path class="cls-2" d="M263.67,279.41l80.08-.07a45,45,0,0,0,26.93-9h0A33,33,0,0,0,383.87,244c0-20.61,0-53.23,0-53.23h25.32V219a22.72,22.72,0,0,0,19,22.41h0v44.3L491.5,244.6h73.7a32.26,32.26,0,0,0,16-4.25h0A29.16,29.16,0,0,0,595.92,215V146.51h0a28,28,0,0,0-25.18-27.83l-47.6-.65H440.87l-9.49-41.14" transform="translate(1 1)"/><path class="cls-2" d="M118.11,282.58V242.42a16.58,16.58,0,0,0-2-7.8L92.79,190.81H20V99l15.82-19" transform="translate(1 1)"/><rect class="cls-2" x="416.56" y="52.58" width="28.48" height="28.48" rx="14.24"/><rect class="cls-2" x="29.5" y="51.58" width="28.48" height="28.48" rx="14.24" transform="translate(88.49 132.64) rotate(180)"/></g></svg>